<svg xmlns="http://www.w3.org/2000/svg" viewBox="0 0 2900 2100"><defs><style>.a,.b,.c{fill:none;stroke:#000;stroke-miterlimit:10;}.a{stroke-width:3px;}.b{stroke-width:2px;}.c{stroke-width:3.9px;}</style></defs><polygon class="a" points="2870.5 2071.5 37.5 2061.5 37.5 32.5 2870.5 30.5 2870.5 2071.5"/><line class="a" x1="38" y1="1800.5" x2="2863.5" y2="1800.5"/><line class="a" x1="2304.5" y1="1797.5" x2="2304.5" y2="2068.5"/><line class="a" x1="1751.5" y1="1798" x2="1751.5" y2="2069"/><line class="a" x1="1752" y1="1927.5" x2="2304" y2="1927.5"/><path d="M1815.9,2020.91h-6v-31.29h-.32c-.66,1.16-3.74,2.92-8.19,2.92v-4.87a9.85,9.85,0,0,0,8.93-6h5.53Z"/><path d="M1826.54,1992.52a3.84,3.84,0,1,1,3.83,3.84A3.84,3.84,0,0,1,1826.54,1992.52Zm0,19.68a3.84,3.84,0,1,1,3.83,3.84A3.84,3.84,0,0,1,1826.54,2012.2Z"/><path d="M1841.9,2010.67h5.75c.31,3.37,3.32,5.79,7.12,5.79,4.51,0,7.78-3.42,7.78-8.13a8,8,0,0,0-8-8.33,10.4,10.4,0,0,0-6.5,2.23l-5.43-.81,2.2-19.79h21.6v5.08h-16.67l-1.24,11h.23a10.56,10.56,0,0,1,7.15-2.61c7.15,0,12.45,5.52,12.43,13.12s-5.62,13.23-13.52,13.23C1847.56,2021.44,1842.13,2016.92,1841.9,2010.67Z"/><path d="M1874.55,2001.29c0-12.8,5.39-20.2,14.41-20.2s14.38,7.42,14.38,20.2-5.31,20.27-14.38,20.27S1874.55,2014.14,1874.55,2001.29Zm22.91,0c0-9.79-3.23-15.18-8.5-15.18s-8.5,5.39-8.52,15.18,3.21,15.15,8.52,15.15S1897.46,2011.11,1897.46,2001.29Z"/><path d="M1970.31,1998.6c0,8.09-1.55,16.15-9.74,16.3-3.28.12-6.62-1.24-7.08-4.33h-.23c-.9,2.26-3.74,4.3-8.11,4.1-6.47-.25-10.5-5.52-10.5-13.4,0-7.56,4.76-12.15,10.3-12.8,4-.48,7.35,1,7.93,2.73h.24v-2.15h4.72v17.8c0,2,1.1,3.62,3.07,3.62,3.49,0,4.57-3.74,4.55-12.06,0-9.74-6.68-17-17.9-17-12.27,0-19.12,7.89-19.12,20.09,0,12.73,6.92,19.85,19.83,19.85a33.45,33.45,0,0,0,10.34-2l1.34,4.2a33.12,33.12,0,0,1-11.93,2.32c-15.86,0-24.66-8.88-24.68-24.43,0-15.12,9.05-24.5,24.41-24.5C1962.41,1977,1970.31,1987.05,1970.31,1998.6Zm-30.8,2.44c0,4.64,1.74,8.93,6.75,8.93s6.92-3,6.9-9c0-5.83-2.13-7.9-6.83-7.9C1942,1993.12,1939.53,1996.62,1939.51,2001Z"/><path d="M1974.29,2020.91l14.13-39.28h6.85l14.14,39.28h-6.29l-3.59-10.4h-15.34l-3.61,10.4Zm23.51-15.39-5.79-16.76h-.31l-5.79,16.76Z"/><path d="M2014.33,2010.67h6c.23,3.49,3.55,5.67,7.81,5.67,4.62,0,7.94-2.59,7.94-6.4s-3.15-6.72-8.59-6.72h-3.32v-4.83h3.32c4.35,0,7.4-2.49,7.38-6.29,0-3.63-2.61-6.06-6.62-6.06-3.85,0-7.25,2.18-7.38,5.79h-5.74c.2-6.39,6-10.74,13.2-10.74,7.56,0,12.29,4.93,12.27,10.7a8.58,8.58,0,0,1-6.75,8.69v.31c5.22.8,8.23,4.37,8.21,9.34,0,6.52-5.87,11.31-13.88,11.31S2014.58,2017.07,2014.33,2010.67Z"/><path d="M1808.68,1883.77h-6v-31.29h-.33c-.65,1.15-3.74,2.92-8.19,2.92v-4.87a9.85,9.85,0,0,0,8.94-6h5.53Z"/><path d="M1818.57,1864.14c0-12.79,5.39-20.19,14.4-20.19s14.39,7.42,14.39,20.19-5.32,20.28-14.39,20.28S1818.57,1877,1818.57,1864.14Zm22.9,0c0-9.78-3.22-15.17-8.5-15.17s-8.5,5.39-8.51,15.17,3.2,15.16,8.51,15.16S1841.47,1874,1841.47,1864.14Z"/><path d="M1868,1883.77h-6v-31.29h-.33c-.65,1.15-3.74,2.92-8.18,2.92v-4.87a9.84,9.84,0,0,0,8.93-6H1868Z"/><path d="M1896,1866.62h-17.41v-5H1896Z"/><path d="M1904.15,1844.48h24.63v5.11h-18.7v12h17.41v5.09h-17.41v12H1929v5.11h-24.86Z"/><path d="M1953.61,1866.62h-17.42v-5h17.42Z"/><path d="M1960.45,1864.14c0-12.79,5.39-20.19,14.4-20.19s14.39,7.42,14.39,20.19-5.31,20.28-14.39,20.28S1960.45,1877,1960.45,1864.14Zm22.9,0c0-9.78-3.22-15.17-8.5-15.17s-8.49,5.39-8.51,15.17,3.2,15.16,8.51,15.16S1983.35,1874,1983.35,1864.14Z"/><path d="M2013.46,1849.85v-.28h-19.84v-5.09h26v5.26l-17.08,34h-6.2Z"/><path d="M2338.89,1836.84h8.55c5.58,0,8.31,3.35,8.31,7.77s-2.75,7.79-8.32,7.79h-4.92v8.44h-3.62Zm8.21,12.49c3.54,0,5-2,5-4.72s-1.47-4.66-5.06-4.66h-4.54v9.38Z"/><path d="M2359.7,1842.84h3.39v2.86h.18a4.67,4.67,0,0,1,4.57-3.13,4.15,4.15,0,0,1,2.36.66l-1.13,2.93a3.57,3.57,0,0,0-1.62-.35,4,4,0,0,0-4.25,4v11h-3.5Z"/><path d="M2371.38,1851.92c0-5.6,3.32-9.31,8.39-9.31s8.39,3.71,8.39,9.31-3.31,9.29-8.39,9.29S2371.38,1857.49,2371.38,1851.92Zm13.24,0c0-3.44-1.54-6.37-4.83-6.37s-4.87,2.93-4.87,6.37,1.55,6.35,4.87,6.35S2384.62,1855.37,2384.62,1851.91Z"/><path d="M2392.07,1842.84h3.42v2.92h.29a5.41,5.41,0,0,1,5.17-3.15c4.35,0,7.56,3.43,7.56,9.27s-3.17,9.31-7.53,9.31a5.48,5.48,0,0,1-5.2-3.15h-.21v9.55h-3.5Zm8.13,15.37c3.13,0,4.77-2.76,4.77-6.37s-1.59-6.26-4.77-6.26-4.7,2.5-4.7,6.26S2397.19,1858.21,2400.2,1858.21Z"/><path d="M2411.62,1852c0-5.53,3.31-9.35,8.33-9.35,4.07,0,8,2.54,8,9v1.25h-12.79c.09,3.47,2.11,5.41,5.11,5.41a4.08,4.08,0,0,0,4.15-2.57l3.31.6c-.8,2.93-3.57,4.87-7.5,4.87C2414.88,1861.21,2411.62,1857.55,2411.62,1852Zm12.86-1.69a4.45,4.45,0,0,0-4.51-4.77,4.84,4.84,0,0,0-4.84,4.77Z"/><path d="M2431.82,1842.84h3.38v2.86h.19a4.69,4.69,0,0,1,4.57-3.13c.45,0,1.14,0,1.49.08V1846a7.69,7.69,0,0,0-1.83-.22,4,4,0,0,0-4.3,4.06v11h-3.5Z"/><path d="M2454,1845.65h-3.69v9.91c0,2,1,2.4,2.16,2.4a6.31,6.31,0,0,0,1.23-.15l.63,2.89a7,7,0,0,1-2.27.38c-2.77.05-5.26-1.53-5.25-4.8v-10.63h-2.64v-2.81h2.64v-4.31h3.5v4.31H2454Z"/><path d="M2457.63,1867.43l.85-2.91c1.93.52,3.18.32,4.06-2l.52-1.41-6.59-18.24h3.75l4.56,14h.19l4.56-14h3.76l-7.5,20.63c-1,2.8-2.91,4.37-5.81,4.37A6.32,6.32,0,0,1,2457.63,1867.43Z"/><path d="M2484.48,1855.76c0-4.09,3.49-5,6.9-5.38,3.24-.38,4.55-.35,4.55-1.63v-.08c0-2-1.16-3.23-3.42-3.23a4.21,4.21,0,0,0-4.19,2.51l-3.29-.75c1.17-3.28,4.17-4.59,7.43-4.59,2.86,0,7,1,7,6.28v11.95H2496v-2.46h-.14a5.62,5.62,0,0,1-5.32,2.86C2487.14,1861.24,2484.48,1859.29,2484.48,1855.76Zm11.46-1.41V1852c-.5.5-3.2.81-4.33,1-2,.27-3.7.94-3.7,2.81s1.43,2.63,3.41,2.63C2494.24,1858.43,2495.94,1856.48,2495.94,1854.35Z"/><path d="M2503.32,1851.88c0-5.84,3.2-9.27,7.55-9.27a5.43,5.43,0,0,1,5.18,3.15h.21v-8.92h3.51v24h-3.43V1858h-.29a5.48,5.48,0,0,1-5.2,3.15C2506.48,1861.19,2503.32,1857.7,2503.32,1851.88Zm13,0c0-3.76-1.64-6.26-4.7-6.26s-4.76,2.69-4.76,6.26,1.63,6.37,4.76,6.37S2516.32,1855.63,2516.32,1851.84Z"/><path d="M2524,1851.88c0-5.84,3.2-9.27,7.55-9.27a5.43,5.43,0,0,1,5.18,3.15h.21v-8.92h3.5v24H2537V1858h-.29a5.48,5.48,0,0,1-5.2,3.15C2527.12,1861.19,2524,1857.7,2524,1851.88Zm13,0c0-3.76-1.64-6.26-4.7-6.26s-4.76,2.69-4.76,6.26,1.63,6.37,4.76,6.37S2537,1855.63,2537,1851.84Z"/><path d="M2545.41,1842.84h3.38v2.86h.19a4.67,4.67,0,0,1,4.57-3.13,4.15,4.15,0,0,1,2.36.66l-1.13,2.93a3.58,3.58,0,0,0-1.63-.35,4,4,0,0,0-4.24,4v11h-3.5Z"/><path d="M2557.09,1852c0-5.53,3.3-9.35,8.32-9.35,4.08,0,8,2.54,8,9v1.25h-12.8c.1,3.47,2.11,5.41,5.11,5.41a4.08,4.08,0,0,0,4.15-2.57l3.32.6c-.8,2.93-3.58,4.87-7.5,4.87C2560.35,1861.21,2557.09,1857.55,2557.09,1852Zm12.86-1.69a4.46,4.46,0,0,0-4.52-4.77,4.84,4.84,0,0,0-4.84,4.77Z"/><path d="M2587.59,1847.8a3.46,3.46,0,0,0-3.59-2.42c-2,0-3.5,1-3.48,2.37,0,1.22.84,1.89,2.82,2.36l2.86.65c3.3.77,4.92,2.34,4.92,4.88,0,3.26-3,5.57-7.36,5.57-4,0-6.69-1.8-7.28-5l3.39-.51c.42,1.77,1.77,2.67,3.87,2.67,2.3,0,3.78-1.09,3.78-2.48,0-1.13-.81-1.9-2.54-2.29l-3.05-.67c-3.37-.75-4.92-2.45-4.92-5,0-3.19,2.88-5.33,6.95-5.33,3.89,0,6.08,1.83,6.81,4.63Z"/><path d="M2605.28,1847.8a3.48,3.48,0,0,0-3.6-2.42c-2,0-3.49,1-3.48,2.37,0,1.22.84,1.89,2.82,2.36l2.86.65c3.31.77,4.92,2.34,4.92,4.88,0,3.26-3,5.57-7.36,5.57-4,0-6.69-1.8-7.27-5l3.38-.51c.43,1.77,1.77,2.67,3.87,2.67,2.3,0,3.79-1.09,3.79-2.48,0-1.13-.81-1.9-2.55-2.29l-3-.67c-3.38-.75-4.93-2.45-4.93-5,0-3.19,2.89-5.33,6.95-5.33,3.89,0,6.09,1.83,6.81,4.63Z"/><circle class="b" cx="2716.55" cy="205.1" r="58.93"/><line class="c" x1="2741.73" y1="150.08" x2="2714.65" y2="206.35"/><path d="M2761.47,131.16h-3.93l-9.39-13.57H2748v13.57h-4.56V109.6h4l9.31,13.56h.18V109.6h4.54Z"/><rect x="2327.28" y="1704.4" width="20.93" height="8.49"/><rect x="2347.65" y="1712.88" width="104.66" height="8.49"/><rect x="2451.37" y="1704.4" width="104.66" height="8.49"/><rect x="2659.37" y="1704.4" width="104.66" height="8.49"/><rect x="2555.09" y="1711.94" width="104.66" height="8.49"/><rect x="2306.35" y="1712.75" width="20.93" height="8.49"/><rect x="2284.67" y="1704.26" width="20.93" height="8.49"/><rect x="2264.39" y="1712.28" width="20.93" height="8.49"/><rect x="2242.71" y="1703.79" width="20.93" height="8.49"/><path d="M2233.74,1677c0-8.09,3.41-12.77,9.11-12.77s9.1,4.69,9.1,12.77-3.36,12.82-9.1,12.82S2233.74,1685.09,2233.74,1677Zm14.49,0c0-6.18-2-9.59-5.38-9.59s-5.37,3.41-5.38,9.59,2,9.58,5.38,9.58S2248.23,1683.17,2248.23,1677Z"/><path d="M2352.54,1690.62h-3.76v-19.78h-.2c-.42.73-2.37,1.84-5.18,1.84v-3.08a6.23,6.23,0,0,0,5.65-3.82h3.49Z"/><path d="M2439.86,1688.85l8.41-8.71c2.66-2.83,4-4.4,4-6.6,0-2.47-1.91-4-4.44-4a4.12,4.12,0,0,0-4.39,4.42h-3.58c0-4.54,3.4-7.55,8.05-7.55s7.93,3.06,7.93,7c0,2.78-1.3,5-5.85,9.57l-4.93,5.17v.18h11.18v3.22h-16.35Z"/><path d="M2532.16,1686H2536c.15,2.21,2.25,3.59,4.94,3.59,2.92,0,5-1.63,5-4s-2-4.24-5.43-4.24h-2.1v-3.06h2.1c2.75,0,4.68-1.58,4.67-4s-1.65-3.83-4.19-3.83-4.58,1.38-4.67,3.66h-3.63c.13-4,3.79-6.79,8.35-6.79,4.78,0,7.78,3.11,7.76,6.77a5.42,5.42,0,0,1-4.27,5.49v.2a5.67,5.67,0,0,1,5.2,5.9c0,4.13-3.72,7.16-8.79,7.16S2532.32,1690.08,2532.16,1686Z"/><path d="M2643.18,1684.15l10.74-17h4.62V1684h3.29v3.18h-3.29V1692H2655v-4.85h-11.78Zm11.81-12.49h-.2l-7.68,12.15v.2H2655Z"/><path d="M2754.77,1685.56h3.64a4.23,4.23,0,0,0,4.5,3.66,4.87,4.87,0,0,0,4.92-5.14,5,5,0,0,0-5.08-5.26,6.63,6.63,0,0,0-4.11,1.4l-3.44-.51,1.4-12.51h13.66v3.21h-10.55l-.78,6.95h.14a6.68,6.68,0,0,1,4.53-1.65c4.52,0,7.87,3.49,7.86,8.3a8.16,8.16,0,0,1-8.55,8.37C2758.34,1692.38,2754.91,1689.52,2754.77,1685.56Z"/><path d="M86.27,1884.05v-43.62h15.09c13,0,20.87,8.18,20.87,21.77s-7.88,21.85-21.17,21.85Zm14.4-6.83c9.1,0,13.72-5,13.72-15s-4.62-14.93-13.48-14.93H94.18v30Z"/><path d="M129.4,1851.33h7.48v5.46h.34a8.52,8.52,0,0,1,12.46-4.73l-2.39,6.39a7,7,0,0,0-3-.68,6.9,6.9,0,0,0-7.14,7v19.23H129.4Z"/><path d="M152.07,1874.87c0-7.37,6.07-9.26,12.42-9.95,5.77-.61,8.09-.72,8.09-2.93v-.13c0-3.22-2-5-5.53-5-3.77,0-6,1.92-6.71,4.15l-7.2-1c1.7-6,7-9,13.86-9,6.25,0,13.29,2.6,13.29,11.25v21.89h-7.41v-4.49h-.25c-1.41,2.75-4.48,5.15-9.61,5.15C156.78,1884.71,152.07,1881.31,152.07,1874.87Zm20.54-2.55v-3.86c-1,.81-5.05,1.32-7.08,1.6-3.45.49-6,1.72-6,4.69s2.3,4.3,5.51,4.3C169.67,1879.05,172.61,1876,172.61,1872.32Z"/><path d="M185.59,1851.33h7.86l5.75,23h.3l5.88-23h7.77l5.88,22.88h.32l5.67-22.88h7.88l-9.27,32.72h-8l-6.13-22.11H209l-6.14,22.11h-8Z"/><path d="M237.72,1842.52a4.48,4.48,0,1,1,4.48,4.17A4.34,4.34,0,0,1,237.72,1842.52Zm.6,8.81H246v32.72h-7.71Z"/><path d="M261.67,1884.05H254v-32.72h7.37v5.56h.38c1.49-3.64,4.86-6,9.76-6,6.75,0,11.23,4.47,11.2,12.31v20.83H275v-19.64c0-4.36-2.38-7-6.37-7s-6.92,2.72-6.92,7.45Z"/><path d="M290.33,1888.74l6.94-1.68c.94,1.79,3,4,7.63,4,4.39,0,7.58-2,7.58-6.67v-6.2h-.38c-1.19,2.41-3.81,5.41-9.42,5.41-7.54,0-13.48-5.32-13.48-16s5.94-16.68,13.51-16.68a9.76,9.76,0,0,1,9.39,5.84h.43v-5.42h7.6v33.26c0,8.24-6.52,12.29-15.36,12.29C296.44,1896.88,291.74,1893.19,290.33,1888.74Zm22.2-21.2c0-6.19-2.73-10.3-7.69-10.3-5.14,0-7.78,4.36-7.78,10.3s2.69,10,7.78,10C309.76,1877.54,312.53,1873.79,312.53,1867.54Z"/><path d="M359.29,1857.3h-6.45v16.91c0,3.11,1.56,3.79,3.49,3.79a10,10,0,0,0,2.26-.29l1.3,6a15.21,15.21,0,0,1-4.54.77c-5.79.17-10.26-2.85-10.22-9V1857.3h-4.64v-6h4.64v-7.83h7.71v7.83h6.45Z"/><path d="M365.16,1842.52a4.47,4.47,0,1,1,4.47,4.17A4.33,4.33,0,0,1,365.16,1842.52Zm.6,8.81h7.71v32.72h-7.71Z"/><path d="M397.73,1857.3h-6.45v16.91c0,3.11,1.55,3.79,3.49,3.79a10.12,10.12,0,0,0,2.26-.29l1.3,6a15.21,15.21,0,0,1-4.54.77c-5.79.17-10.27-2.85-10.22-9V1857.3h-4.65v-6h4.65v-7.83h7.71v7.83h6.45Z"/><path d="M412.59,1884.05h-7.71v-43.62h7.71Z"/><path d="M419.11,1867.89c0-10.1,6.11-17,15.48-17,8.06,0,15,5,15,16.53v2.36h-22.8c.07,5.61,3.37,8.89,8.36,8.89,3.32,0,5.87-1.45,6.92-4.22l7.2.81c-1.37,5.68-6.61,9.41-14.23,9.41C425.14,1884.69,419.11,1878.15,419.11,1867.89Zm23.05-3.28c-.05-4.46-3-7.69-7.46-7.69a7.85,7.85,0,0,0-7.92,7.69Z"/></svg>