<svg width="44" height="31" viewBox="0 0 44 31" fill="none" xmlns="http://www.w3.org/2000/svg">
<path fill-rule="evenodd" clip-rule="evenodd" d="M0.5 0.5H5.5V3V5.5H3H0.5V0.5ZM8.7 0.5H12.5V5.5H8.7V0.5ZM16.3 0.5H20.1V5.5H16.3V0.5ZM23.9 0.5H27.7V5.5H23.9V0.5ZM31.5 0.5H35.3V5.5H31.5V0.5ZM38.5 0.5H43.5V5.5H41H38.5V3V0.5ZM0.5 13.4167V9.25H5.5V13.4167H0.5ZM43.5 9.25V13.4167H38.5V9.25H43.5ZM0.5 21.75V17.5833H5.5V21.75H0.5ZM43.5 17.5833V21.75H38.5V17.5833H43.5ZM5.5 30.5H0.5V25.5H3H5.5V28V30.5ZM12.5 30.5H8.7V25.5H12.5V30.5ZM20.1 30.5H16.3V25.5H20.1V30.5ZM27.7 30.5H23.9V25.5H27.7V30.5ZM35.3 30.5H31.5V25.5H35.3V30.5ZM38.5 30.5V28V25.5H41H43.5V30.5H38.5Z" fill="#FF0000"/>
</svg>
