<svg xmlns="http://www.w3.org/2000/svg" viewBox="0 0 2900 2100"><defs><style>.a,.b,.c,.d{fill:none;stroke:#000;}.a,.d{stroke-miterlimit:10;}.a{stroke-width:3px;}.b,.c{stroke-linecap:round;stroke-linejoin:round;}.b,.d{stroke-width:2px;}</style></defs><polygon class="a" points="2870.5 2071.5 37.5 2061.5 37.5 32.5 2870.5 30.5 2870.5 2071.5"/><line class="a" x1="38" y1="1800.5" x2="2863.5" y2="1800.5"/><line class="a" x1="2304.5" y1="1797.5" x2="2304.5" y2="2068.5"/><line class="a" x1="1751.5" y1="1798" x2="1751.5" y2="2069"/><line class="a" x1="1752" y1="1927.5" x2="2304" y2="1927.5"/><path d="M1815.9,2020.91h-6v-31.29h-.32c-.66,1.16-3.74,2.92-8.19,2.92v-4.87a9.85,9.85,0,0,0,8.93-6h5.53Z"/><path d="M1826.54,1992.52a3.84,3.84,0,1,1,3.83,3.84A3.84,3.84,0,0,1,1826.54,1992.52Zm0,19.68a3.84,3.84,0,1,1,3.83,3.84A3.84,3.84,0,0,1,1826.54,2012.2Z"/><path d="M1841.9,2010.67h5.75c.31,3.37,3.32,5.79,7.12,5.79,4.5,0,7.78-3.42,7.78-8.13a8,8,0,0,0-8-8.33,10.4,10.4,0,0,0-6.5,2.23l-5.43-.81,2.2-19.79h21.6v5.08h-16.67l-1.24,11h.23a10.56,10.56,0,0,1,7.15-2.61c7.15,0,12.45,5.52,12.43,13.12s-5.62,13.23-13.52,13.23C1847.56,2021.44,1842.13,2016.92,1841.9,2010.67Z"/><path d="M1874.55,2001.29c0-12.8,5.39-20.2,14.41-20.2s14.38,7.42,14.38,20.2-5.31,20.27-14.38,20.27S1874.55,2014.14,1874.55,2001.29Zm22.91,0c0-9.79-3.23-15.18-8.5-15.18s-8.5,5.39-8.52,15.18,3.21,15.15,8.52,15.15S1897.46,2011.11,1897.46,2001.29Z"/><path d="M1970.31,1998.6c0,8.09-1.55,16.15-9.74,16.3-3.28.12-6.62-1.24-7.08-4.33h-.23c-.9,2.26-3.74,4.3-8.11,4.1-6.47-.25-10.5-5.52-10.5-13.4,0-7.56,4.76-12.15,10.3-12.8,4-.48,7.35,1,7.93,2.73h.24v-2.15h4.72v17.8c0,2,1.1,3.62,3.07,3.62,3.49,0,4.57-3.74,4.55-12.06,0-9.74-6.68-17-17.9-17-12.27,0-19.12,7.89-19.12,20.09,0,12.73,6.92,19.85,19.83,19.85a33.45,33.45,0,0,0,10.34-2l1.34,4.2a33.12,33.12,0,0,1-11.93,2.32c-15.86,0-24.66-8.88-24.68-24.43,0-15.12,9.05-24.5,24.41-24.5C1962.41,1977,1970.31,1987.05,1970.31,1998.6Zm-30.8,2.44c0,4.64,1.74,8.93,6.75,8.93s6.92-3,6.9-9c0-5.83-2.13-7.9-6.83-7.9C1942,1993.12,1939.53,1996.62,1939.51,2001Z"/><path d="M1974.29,2020.91l14.13-39.28h6.85l14.14,39.28h-6.29l-3.59-10.4h-15.34l-3.61,10.4Zm23.51-15.39-5.79-16.76h-.31l-5.79,16.76Z"/><path d="M2014.33,2010.67h6c.23,3.49,3.55,5.67,7.81,5.67,4.62,0,7.94-2.59,7.94-6.4s-3.15-6.72-8.59-6.72h-3.32v-4.83h3.32c4.35,0,7.4-2.49,7.38-6.29,0-3.63-2.61-6.06-6.62-6.06-3.85,0-7.25,2.18-7.38,5.79h-5.74c.2-6.39,6-10.74,13.2-10.74,7.56,0,12.29,4.93,12.27,10.7a8.58,8.58,0,0,1-6.75,8.69v.31c5.22.8,8.23,4.37,8.21,9.34,0,6.52-5.87,11.31-13.88,11.31S2014.58,2017.07,2014.33,2010.67Z"/><path d="M80.39,1842.5h28.37v6.63H88.29V1861h19v6.63h-19v11.9h20.64v6.63H80.39Z"/><path d="M124.22,1886.13H116.5V1842.5h7.72Z"/><path d="M130.74,1870c0-10.1,6.11-17,15.48-17,8.06,0,15,5,15,16.53v2.37H138.39c.06,5.6,3.36,8.88,8.35,8.88,3.32,0,5.87-1.45,6.92-4.22l7.2.81c-1.36,5.69-6.61,9.42-14.23,9.42C136.77,1886.77,130.74,1880.23,130.74,1870Zm23-3.28c0-4.45-3-7.69-7.46-7.69a7.86,7.86,0,0,0-7.92,7.69Z"/><path d="M184.94,1886.13h-8.52l-11.65-32.72H173l7.52,24.3h.34l7.54-24.3h8.2Z"/><path d="M200.05,1877c0-7.37,6.07-9.27,12.42-10,5.77-.62,8.09-.72,8.09-2.94v-.13c0-3.21-2-5-5.54-5-3.77,0-5.94,1.92-6.71,4.16l-7.19-1c1.7-6,7-9,13.86-9,6.24,0,13.29,2.6,13.29,11.25v21.9h-7.41v-4.5h-.25c-1.41,2.75-4.48,5.16-9.61,5.16C204.76,1886.79,200.05,1883.38,200.05,1877Zm20.53-2.56v-3.85c-1,.81-5,1.32-7.07,1.59-3.45.49-6,1.73-6,4.69s2.3,4.3,5.52,4.3C217.64,1881.12,220.58,1878,220.58,1874.39Z"/><path d="M252.4,1859.37h-6.46v16.92c0,3.11,1.56,3.79,3.5,3.79a9.35,9.35,0,0,0,2.25-.3l1.3,6a15.54,15.54,0,0,1-4.53.77c-5.8.17-10.27-2.86-10.23-9v-18.2h-4.64v-6h4.64v-7.84h7.71v7.84h6.46Z"/><path d="M258.26,1844.59a4.47,4.47,0,1,1,4.47,4.18A4.33,4.33,0,0,1,258.26,1844.59Zm.6,8.82h7.71v32.72h-7.71Z"/><path d="M273.09,1869.9c0-10.14,6.09-16.92,15.68-16.92s15.67,6.78,15.67,16.92-6.09,16.87-15.67,16.87S273.09,1880,273.09,1869.9Zm23.54,0c0-6-2.6-10.78-7.82-10.78s-7.9,4.79-7.9,10.78,2.6,10.71,7.9,10.71S296.63,1875.86,296.63,1869.88Z"/><path d="M318.68,1886.13H311v-32.72h7.37V1859h.39c1.49-3.64,4.85-6,9.75-6,6.75,0,11.23,4.48,11.21,12.32v20.83H332v-19.64c0-4.37-2.39-7-6.37-7s-6.93,2.73-6.93,7.46Z"/><path d="M366.39,1862.83c-.6-2.16-2.47-4.09-6-4.09-3.22,0-5.67,1.53-5.65,3.74,0,1.9,1.3,3,4.63,3.8l5.58,1.19c6.17,1.34,9.18,4.2,9.2,8.86,0,6.2-5.79,10.44-14,10.44s-13.08-3.56-14-9.57l7.52-.72c.66,2.94,3,4.47,6.49,4.47s6.1-1.68,6.1-3.92c0-1.85-1.41-3.06-4.41-3.72l-5.58-1.18c-6.29-1.3-9.23-4.45-9.21-9.22,0-6.05,5.35-9.93,13.23-9.93,7.67,0,12.1,3.54,13.17,9.08Z"/><path d="M421.42,1871.13h-30v-6.34h30Z"/><path d="M438.88,1870c0-10.1,6.11-17,15.48-17,8.05,0,15,5,15,16.53v2.37h-22.8c.07,5.6,3.37,8.88,8.35,8.88,3.33,0,5.88-1.45,6.93-4.22l7.2.81c-1.37,5.69-6.61,9.42-14.23,9.42C444.9,1886.77,438.88,1880.23,438.88,1870Zm23-3.28c0-4.45-3-7.69-7.45-7.69a7.88,7.88,0,0,0-7.93,7.69Z"/><path d="M488.11,1865.49l6.71-12.08H503l-9.86,16.36,10,16.36H495l-6.93-11.78-6.86,11.78h-8.18l10-16.36-9.71-16.36h8.18Z"/><path d="M508.36,1844.59a4.47,4.47,0,1,1,4.47,4.18A4.33,4.33,0,0,1,508.36,1844.59Zm.59,8.82h7.71v32.72H509Z"/><path d="M543.42,1862.83c-.59-2.16-2.47-4.09-6-4.09-3.21,0-5.66,1.53-5.64,3.74,0,1.9,1.3,3,4.62,3.8l5.58,1.19c6.18,1.34,9.18,4.2,9.2,8.86,0,6.2-5.79,10.44-14,10.44-8,0-13.08-3.56-14-9.57l7.52-.72c.66,2.94,3,4.47,6.5,4.47s6.09-1.68,6.09-3.92c0-1.85-1.4-3.06-4.41-3.72l-5.58-1.18c-6.28-1.3-9.22-4.45-9.2-9.22,0-6.05,5.35-9.93,13.23-9.93,7.67,0,12.1,3.54,13.16,9.08Z"/><path d="M573.87,1859.37h-6.45v16.92c0,3.11,1.55,3.79,3.49,3.79a9.45,9.45,0,0,0,2.26-.3l1.3,6a15.62,15.62,0,0,1-4.54.77c-5.79.17-10.27-2.86-10.22-9v-18.2h-4.65v-6h4.65v-7.84h7.71v7.84h6.45Z"/><path d="M579.73,1844.59a4.47,4.47,0,1,1,4.48,4.18A4.34,4.34,0,0,1,579.73,1844.59Zm.6,8.82H588v32.72h-7.71Z"/><path d="M603.68,1886.13H596v-32.72h7.37V1859h.38c1.49-3.64,4.86-6,9.76-6,6.75,0,11.23,4.48,11.2,12.32v20.83H617v-19.64c0-4.37-2.38-7-6.37-7s-6.92,2.73-6.92,7.46Z"/><path d="M632.34,1890.82l6.95-1.69c.93,1.79,3,4,7.62,4,4.39,0,7.58-2,7.58-6.67v-6.2h-.38c-1.19,2.41-3.81,5.41-9.41,5.41-7.54,0-13.49-5.33-13.49-16s5.95-16.68,13.51-16.68a9.78,9.78,0,0,1,9.39,5.84h.43v-5.41h7.6v33.25c0,8.25-6.52,12.29-15.36,12.29C638.45,1899,633.75,1895.27,632.34,1890.82Zm22.2-21.2c0-6.2-2.73-10.31-7.69-10.31-5.14,0-7.78,4.37-7.78,10.31s2.69,10,7.78,10C651.77,1879.61,654.54,1875.86,654.54,1869.62Z"/><path d="M1808.68,1883.77h-6v-31.29h-.33c-.65,1.15-3.74,2.92-8.19,2.92v-4.87a9.85,9.85,0,0,0,8.94-6h5.53Z"/><path d="M1818.57,1864.14c0-12.79,5.39-20.19,14.4-20.19s14.39,7.42,14.39,20.19-5.32,20.28-14.39,20.28S1818.57,1877,1818.57,1864.14Zm22.9,0c0-9.78-3.22-15.17-8.5-15.17s-8.5,5.39-8.51,15.17,3.2,15.16,8.51,15.16S1841.47,1874,1841.47,1864.14Z"/><path d="M1868,1883.77h-6v-31.29h-.33c-.65,1.15-3.74,2.92-8.19,2.92v-4.87a9.85,9.85,0,0,0,8.94-6H1868Z"/><path d="M1896,1866.62h-17.41v-5H1896Z"/><path d="M1904.15,1844.48h24.63v5.11h-18.7v12h17.41v5.09h-17.41v12H1929v5.11h-24.86Z"/><path d="M1953.61,1866.62h-17.42v-5h17.42Z"/><path d="M1960.45,1864.14c0-12.79,5.39-20.19,14.4-20.19s14.39,7.42,14.39,20.19-5.31,20.28-14.39,20.28S1960.45,1877,1960.45,1864.14Zm22.9,0c0-9.78-3.22-15.17-8.5-15.17s-8.49,5.39-8.51,15.17,3.2,15.16,8.51,15.16S1983.35,1874,1983.35,1864.14Z"/><path d="M1995.87,1873.52h6c.23,3.49,3.55,5.68,7.81,5.68,4.62,0,7.94-2.59,7.94-6.41s-3.15-6.71-8.59-6.71h-3.32v-4.83h3.32c4.35,0,7.4-2.5,7.38-6.29,0-3.63-2.61-6.06-6.62-6.06-3.85,0-7.25,2.18-7.38,5.79h-5.74c.19-6.39,6-10.74,13.2-10.74,7.56,0,12.29,4.93,12.27,10.7a8.59,8.59,0,0,1-6.75,8.69v.31c5.22.8,8.23,4.37,8.21,9.34,0,6.52-5.87,11.31-13.88,11.31S1996.12,1879.93,1995.87,1873.52Z"/><path d="M2338.89,1836.84h8.55c5.58,0,8.31,3.35,8.31,7.77s-2.75,7.79-8.32,7.79h-4.92v8.44h-3.62Zm8.21,12.49c3.54,0,5-2,5-4.72s-1.47-4.66-5.06-4.66h-4.54v9.38Z"/><path d="M2359.7,1842.84h3.39v2.86h.18a4.67,4.67,0,0,1,4.57-3.13,4.15,4.15,0,0,1,2.36.66l-1.13,2.93a3.57,3.57,0,0,0-1.62-.35,4,4,0,0,0-4.25,4v11h-3.5Z"/><path d="M2371.38,1851.92c0-5.6,3.32-9.31,8.39-9.31s8.39,3.71,8.39,9.31-3.31,9.29-8.39,9.29S2371.38,1857.49,2371.38,1851.92Zm13.24,0c0-3.44-1.54-6.37-4.83-6.37s-4.87,2.93-4.87,6.37,1.55,6.35,4.87,6.35S2384.62,1855.37,2384.62,1851.91Z"/><path d="M2392.07,1842.84h3.42v2.92h.29a5.41,5.41,0,0,1,5.17-3.15c4.35,0,7.56,3.43,7.56,9.27s-3.17,9.31-7.53,9.31a5.48,5.48,0,0,1-5.2-3.15h-.21v9.55h-3.5Zm8.13,15.37c3.13,0,4.77-2.76,4.77-6.37s-1.59-6.26-4.77-6.26-4.7,2.5-4.7,6.26S2397.19,1858.21,2400.2,1858.21Z"/><path d="M2411.62,1852c0-5.53,3.31-9.35,8.33-9.35,4.07,0,8,2.54,8,9v1.25h-12.79c.09,3.47,2.11,5.41,5.11,5.41a4.08,4.08,0,0,0,4.15-2.57l3.31.6c-.8,2.93-3.57,4.87-7.5,4.87C2414.88,1861.21,2411.62,1857.55,2411.62,1852Zm12.86-1.69a4.45,4.45,0,0,0-4.51-4.77,4.84,4.84,0,0,0-4.84,4.77Z"/><path d="M2431.82,1842.84h3.38v2.86h.19a4.69,4.69,0,0,1,4.57-3.13c.45,0,1.14,0,1.49.08V1846a7.69,7.69,0,0,0-1.83-.22,4,4,0,0,0-4.3,4.06v11h-3.5Z"/><path d="M2454,1845.65h-3.69v9.91c0,2,1,2.4,2.16,2.4a6.31,6.31,0,0,0,1.23-.15l.63,2.89a7,7,0,0,1-2.27.38c-2.77.05-5.26-1.53-5.25-4.8v-10.63h-2.64v-2.81h2.64v-4.31h3.5v4.31H2454Z"/><path d="M2457.63,1867.43l.85-2.91c1.93.52,3.18.32,4.06-2l.52-1.41-6.59-18.24h3.75l4.56,14h.19l4.56-14h3.76l-7.5,20.63c-1,2.8-2.91,4.37-5.81,4.37A6.32,6.32,0,0,1,2457.63,1867.43Z"/><path d="M2484.48,1855.76c0-4.09,3.49-5,6.9-5.38,3.24-.38,4.55-.35,4.55-1.63v-.08c0-2-1.16-3.23-3.42-3.23a4.21,4.21,0,0,0-4.19,2.51l-3.29-.75c1.17-3.28,4.17-4.59,7.43-4.59,2.86,0,7,1,7,6.28v11.95H2496v-2.46h-.14a5.62,5.62,0,0,1-5.32,2.86C2487.14,1861.24,2484.48,1859.29,2484.48,1855.76Zm11.46-1.41V1852c-.5.5-3.2.81-4.33,1-2,.27-3.7.94-3.7,2.81s1.43,2.63,3.41,2.63C2494.24,1858.43,2495.94,1856.48,2495.94,1854.35Z"/><path d="M2503.32,1851.88c0-5.84,3.2-9.27,7.55-9.27a5.43,5.43,0,0,1,5.18,3.15h.21v-8.92h3.51v24h-3.43V1858h-.29a5.48,5.48,0,0,1-5.2,3.15C2506.48,1861.19,2503.32,1857.7,2503.32,1851.88Zm13,0c0-3.76-1.64-6.26-4.7-6.26s-4.76,2.69-4.76,6.26,1.63,6.37,4.76,6.37S2516.32,1855.63,2516.32,1851.84Z"/><path d="M2524,1851.88c0-5.84,3.2-9.27,7.55-9.27a5.43,5.43,0,0,1,5.18,3.15h.21v-8.92h3.5v24H2537V1858h-.29a5.48,5.48,0,0,1-5.2,3.15C2527.12,1861.19,2524,1857.7,2524,1851.88Zm13,0c0-3.76-1.64-6.26-4.7-6.26s-4.76,2.69-4.76,6.26,1.63,6.37,4.76,6.37S2537,1855.63,2537,1851.84Z"/><path d="M2545.41,1842.84h3.38v2.86h.19a4.67,4.67,0,0,1,4.57-3.13,4.15,4.15,0,0,1,2.36.66l-1.13,2.93a3.58,3.58,0,0,0-1.63-.35,4,4,0,0,0-4.24,4v11h-3.5Z"/><path d="M2557.09,1852c0-5.53,3.3-9.35,8.32-9.35,4.08,0,8,2.54,8,9v1.25h-12.8c.1,3.47,2.11,5.41,5.11,5.41a4.08,4.08,0,0,0,4.15-2.57l3.32.6c-.8,2.93-3.58,4.87-7.5,4.87C2560.35,1861.21,2557.09,1857.55,2557.09,1852Zm12.86-1.69a4.46,4.46,0,0,0-4.52-4.77,4.84,4.84,0,0,0-4.84,4.77Z"/><path d="M2587.59,1847.8a3.46,3.46,0,0,0-3.59-2.42c-2,0-3.5,1-3.48,2.37,0,1.22.84,1.89,2.82,2.36l2.86.65c3.3.77,4.92,2.34,4.92,4.88,0,3.26-3,5.57-7.36,5.57-4,0-6.69-1.8-7.28-5l3.39-.51c.42,1.77,1.77,2.67,3.87,2.67,2.3,0,3.78-1.09,3.78-2.48,0-1.13-.81-1.9-2.54-2.29l-3.05-.67c-3.37-.75-4.92-2.45-4.92-5,0-3.19,2.88-5.33,6.95-5.33,3.89,0,6.08,1.83,6.81,4.63Z"/><path d="M2605.28,1847.8a3.48,3.48,0,0,0-3.6-2.42c-2,0-3.49,1-3.48,2.37,0,1.22.84,1.89,2.82,2.36l2.86.65c3.31.77,4.92,2.34,4.92,4.88,0,3.26-3,5.57-7.36,5.57-4,0-6.69-1.8-7.27-5l3.38-.51c.43,1.77,1.77,2.67,3.87,2.67,2.3,0,3.79-1.09,3.79-2.48,0-1.13-.81-1.9-2.55-2.29l-3-.67c-3.38-.75-4.93-2.45-4.93-5,0-3.19,2.89-5.33,6.95-5.33,3.89,0,6.09,1.83,6.81,4.63Z"/><rect x="2313.46" y="1707.8" width="20.93" height="8.49"/><rect x="2333.83" y="1716.28" width="104.66" height="8.49"/><rect x="2437.55" y="1707.8" width="104.66" height="8.49"/><rect x="2645.55" y="1707.8" width="104.66" height="8.49"/><rect x="2541.27" y="1715.34" width="104.66" height="8.49"/><rect x="2292.54" y="1716.14" width="20.93" height="8.49"/><rect x="2270.85" y="1707.66" width="20.93" height="8.49"/><rect x="2250.58" y="1715.67" width="20.93" height="8.49"/><rect x="2228.89" y="1707.19" width="20.93" height="8.49"/><path d="M2219.93,1680.36c0-8.09,3.41-12.77,9.11-12.77s9.1,4.69,9.1,12.77-3.36,12.82-9.1,12.82S2219.93,1688.49,2219.93,1680.36Zm14.48,0c0-6.19-2-9.6-5.37-9.6s-5.38,3.41-5.39,9.6,2,9.58,5.39,9.58S2234.41,1686.57,2234.41,1680.36Z"/><path d="M2338.73,1694H2335v-19.78h-.21c-.41.72-2.36,1.84-5.18,1.84V1673a6.25,6.25,0,0,0,5.66-3.82h3.49Z"/><path d="M2426,1692.25l8.41-8.71c2.67-2.83,4-4.41,4-6.6,0-2.48-1.92-4-4.44-4a4.12,4.12,0,0,0-4.39,4.42H2426c0-4.54,3.4-7.55,8-7.55s7.94,3.06,7.94,7c0,2.78-1.3,5-5.85,9.57l-4.94,5.17v.18h11.19V1695H2426Z"/><path d="M2518.35,1689.43h3.81c.14,2.21,2.24,3.59,4.93,3.59,2.93,0,5-1.64,5-4s-2-4.25-5.44-4.25h-2.1v-3h2.1c2.76,0,4.69-1.58,4.67-4s-1.65-3.84-4.18-3.84-4.59,1.39-4.67,3.67h-3.63c.12-4,3.79-6.79,8.35-6.79,4.78,0,7.77,3.11,7.76,6.76a5.44,5.44,0,0,1-4.27,5.5v.19a5.67,5.67,0,0,1,5.19,5.91c0,4.13-3.71,7.16-8.78,7.16S2518.51,1693.48,2518.35,1689.43Z"/><path d="M2629.37,1687.55l10.73-17h4.63v16.82H2648v3.17h-3.28v4.86h-3.58v-4.86h-11.78Zm11.8-12.49H2641l-7.68,12.15v.2h7.87Z"/><path d="M2741,1689h3.64a4.25,4.25,0,0,0,4.5,3.66,4.88,4.88,0,0,0,4.93-5.14,5,5,0,0,0-5.09-5.27,6.6,6.6,0,0,0-4.11,1.41l-3.43-.51,1.39-12.52h13.66v3.22H2745.9l-.79,7h.15a6.67,6.67,0,0,1,4.52-1.65c4.53,0,7.88,3.49,7.86,8.3a8.15,8.15,0,0,1-8.55,8.37C2744.53,1695.78,2741.1,1692.91,2741,1689Z"/><path d="M326.87,1356.7h27.95v6.62H334.77v11.84H352.9v6.63H334.77v18.53h-7.9Z"/><path d="M361.19,1367.6h7.48v5.46H369a8.5,8.5,0,0,1,12.46-4.73l-2.38,6.39a7.14,7.14,0,0,0-10.18,6.37v19.23h-7.72Z"/><path d="M383.25,1384.09c0-10.14,6.09-16.91,15.68-16.91s15.67,6.77,15.67,16.91S408.51,1401,398.93,1401,383.25,1394.21,383.25,1384.09Zm23.54,0c0-6-2.6-10.78-7.82-10.78s-7.9,4.79-7.9,10.78,2.59,10.71,7.9,10.71S406.79,1390.05,406.79,1384.07Z"/><path d="M428.84,1400.32h-7.71V1367.6h7.37v5.56h.39c1.49-3.64,4.85-6,9.75-6,6.75,0,11.23,4.47,11.21,12.31v20.83h-7.72v-19.64c0-4.37-2.38-7-6.36-7s-6.93,2.73-6.93,7.46Z"/><path d="M474.05,1373.57H467.6v16.91c0,3.11,1.55,3.79,3.49,3.79a9.45,9.45,0,0,0,2.26-.3l1.3,6a15.21,15.21,0,0,1-4.54.77c-5.79.17-10.26-2.86-10.22-9v-18.19h-4.65v-6h4.65v-7.84h7.71v7.84h6.45Z"/><path d="M494,1384.15c0-10.09,6.11-17,15.49-17,8,0,15,5,15,16.53v2.36H501.65c.06,5.6,3.36,8.88,8.35,8.88,3.32,0,5.88-1.45,6.92-4.21l7.2.8c-1.36,5.69-6.6,9.42-14.23,9.42C500,1401,494,1394.42,494,1384.15Zm23-3.28c0-4.45-3-7.69-7.46-7.69a7.86,7.86,0,0,0-7.92,7.69Z"/><path d="M538.68,1400.32H531V1356.7h7.71Z"/><path d="M545.2,1384.15c0-10.09,6.11-17,15.49-17,8,0,14.95,5,14.95,16.53v2.36H552.85c.06,5.6,3.36,8.88,8.35,8.88,3.32,0,5.88-1.45,6.92-4.21l7.2.8c-1.36,5.69-6.6,9.42-14.23,9.42C551.23,1401,545.2,1394.42,545.2,1384.15Zm23-3.28c0-4.45-3-7.69-7.46-7.69a7.86,7.86,0,0,0-7.92,7.69Z"/><path d="M599.4,1400.32h-8.52l-11.65-32.72h8.22l7.52,24.31h.34l7.54-24.31h8.2Z"/><path d="M614.51,1391.14c0-7.37,6.07-9.27,12.42-10,5.77-.61,8.1-.72,8.1-2.94v-.13c0-3.21-2-5-5.54-5-3.77,0-6,1.91-6.71,4.15l-7.2-1c1.7-6,7-9,13.86-9,6.25,0,13.3,2.6,13.3,11.24v21.9h-7.42v-4.49h-.25c-1.41,2.74-4.47,5.15-9.61,5.15C619.22,1401,614.51,1397.57,614.51,1391.14Zm20.54-2.56v-3.85c-1,.81-5,1.32-7.07,1.6-3.46.49-6,1.72-6,4.68s2.3,4.31,5.51,4.31C632.11,1395.32,635.05,1392.23,635.05,1388.58Z"/><path d="M666.86,1373.57H660.4v16.91c0,3.11,1.56,3.79,3.5,3.79a9.45,9.45,0,0,0,2.26-.3l1.3,6a15.35,15.35,0,0,1-4.54.77c-5.8.17-10.27-2.86-10.23-9v-18.19h-4.64v-6h4.64v-7.84h7.71v7.84h6.46Z"/><path d="M672.72,1358.78a4.47,4.47,0,1,1,4.48,4.18A4.34,4.34,0,0,1,672.72,1358.78Zm.6,8.82H681v32.72h-7.71Z"/><path d="M687.55,1384.09c0-10.14,6.1-16.91,15.68-16.91s15.68,6.77,15.68,16.91S712.82,1401,703.23,1401,687.55,1394.21,687.55,1384.09Zm23.54,0c0-6-2.6-10.78-7.82-10.78s-7.9,4.79-7.9,10.78,2.6,10.71,7.9,10.71S711.09,1390.05,711.09,1384.07Z"/><path d="M733.15,1400.32h-7.71V1367.6h7.37v5.56h.38c1.49-3.64,4.86-6,9.76-6,6.75,0,11.22,4.47,11.2,12.31v20.83h-7.71v-19.64c0-4.37-2.39-7-6.37-7s-6.92,2.73-6.92,7.46Z"/><path d="M1261.61,1343.7H1278c10,0,15.38,5.62,15.38,14,0,5.92-2.71,10.31-7.84,12.37l9.43,17.3h-8.81l-8.57-16h-8v16h-7.9Zm15.19,21.08c5.85,0,8.49-2.49,8.49-7.13s-2.64-7.35-8.54-7.35h-7.24v14.48Z"/><path d="M1298.43,1371.15c0-10.09,6.11-17,15.48-17,8,0,15,5,15,16.53v2.36h-22.8c.07,5.6,3.37,8.88,8.35,8.88,3.33,0,5.88-1.45,6.93-4.22l7.2.81c-1.37,5.69-6.61,9.42-14.23,9.42C1304.46,1388,1298.43,1381.42,1298.43,1371.15Zm23-3.28c0-4.45-3-7.69-7.45-7.69a7.86,7.86,0,0,0-7.92,7.69Z"/><path d="M1333.86,1378.14c0-7.37,6.07-9.27,12.42-10,5.77-.62,8.09-.72,8.09-2.94v-.13c0-3.21-2-5-5.54-5-3.77,0-5.94,1.91-6.71,4.15l-7.19-1c1.7-6,7-9,13.86-9,6.24,0,13.29,2.59,13.29,11.24v21.9h-7.41v-4.49h-.25c-1.41,2.74-4.48,5.15-9.61,5.15C1338.57,1388,1333.86,1384.57,1333.86,1378.14Zm20.53-2.56v-3.85c-1,.81-5,1.32-7.07,1.6-3.45.49-6,1.72-6,4.68s2.3,4.3,5.52,4.3C1351.46,1382.31,1354.39,1379.23,1354.39,1375.58Z"/><path d="M1369.87,1354.6h7.47v5.46h.35a8.5,8.5,0,0,1,12.46-4.73l-2.39,6.39a7.12,7.12,0,0,0-10.18,6.37v19.23h-7.71Z"/><path d="M1408.18,1371.15c0-10.09,6.11-17,15.48-17,8.06,0,15,5,15,16.53v2.36h-22.79c.06,5.6,3.36,8.88,8.34,8.88,3.33,0,5.88-1.45,6.93-4.22l7.2.81c-1.37,5.69-6.61,9.42-14.23,9.42C1414.21,1388,1408.18,1381.42,1408.18,1371.15Zm23-3.28c0-4.45-3-7.69-7.46-7.69a7.86,7.86,0,0,0-7.92,7.69Z"/><path d="M1452.86,1387.32h-7.72V1343.7h7.72Z"/><path d="M1459.38,1371.15c0-10.09,6.11-17,15.48-17,8.06,0,15,5,15,16.53v2.36H1467c.06,5.6,3.36,8.88,8.35,8.88,3.32,0,5.87-1.45,6.92-4.22l7.2.81c-1.37,5.69-6.61,9.42-14.23,9.42C1465.41,1388,1459.38,1381.42,1459.38,1371.15Zm23-3.28c0-4.45-3-7.69-7.46-7.69a7.86,7.86,0,0,0-7.92,7.69Z"/><path d="M1513.58,1387.32h-8.52l-11.65-32.72h8.22l7.52,24.31h.34l7.54-24.31h8.2Z"/><path d="M1528.69,1378.14c0-7.37,6.07-9.27,12.42-10,5.77-.62,8.09-.72,8.09-2.94v-.13c0-3.21-2-5-5.54-5-3.77,0-5.94,1.91-6.71,4.15l-7.2-1c1.71-6,7-9,13.87-9,6.24,0,13.29,2.59,13.29,11.24v21.9h-7.41v-4.49h-.25c-1.41,2.74-4.48,5.15-9.61,5.15C1533.4,1388,1528.69,1384.57,1528.69,1378.14Zm20.53-2.56v-3.85c-1,.81-5,1.32-7.07,1.6-3.45.49-6,1.72-6,4.68s2.3,4.3,5.52,4.3C1546.28,1382.31,1549.22,1379.23,1549.22,1375.58Z"/><path d="M1581,1360.57h-6.46v16.91c0,3.11,1.56,3.79,3.5,3.79a9.35,9.35,0,0,0,2.25-.3l1.3,6a15.54,15.54,0,0,1-4.53.77c-5.8.17-10.27-2.86-10.23-9v-18.19h-4.64v-6h4.64v-7.84h7.71v7.84H1581Z"/><path d="M1586.9,1345.78a4.47,4.47,0,1,1,4.47,4.18A4.33,4.33,0,0,1,1586.9,1345.78Zm.6,8.82h7.71v32.72h-7.71Z"/><path d="M1601.73,1371.09c0-10.14,6.09-16.91,15.68-16.91s15.68,6.77,15.68,16.91S1627,1388,1617.41,1388,1601.73,1381.21,1601.73,1371.09Zm23.54,0c0-6-2.6-10.78-7.82-10.78s-7.9,4.79-7.9,10.78,2.6,10.71,7.9,10.71S1625.27,1377.05,1625.27,1371.07Z"/><path d="M1647.32,1387.32h-7.71V1354.6H1647v5.56h.39c1.49-3.64,4.85-6,9.75-6,6.76,0,11.23,4.47,11.21,12.31v20.83h-7.71v-19.64c0-4.37-2.39-7-6.37-7s-6.93,2.73-6.93,7.46Z"/><line class="b" x1="888.88" y1="1237.9" x2="888.88" y2="1150.75"/><line class="b" x1="344.21" y1="1237.9" x2="344.21" y2="1150.75"/><line class="b" x1="521.85" y1="1150.75" x2="521.85" y2="1237.9"/><line class="b" x1="424.59" y1="1150.75" x2="424.59" y2="1237.9"/><line class="b" x1="888.88" y1="285.51" x2="888.88" y2="420.9"/><line class="b" x1="830.52" y1="381.99" x2="830.52" y2="420.9"/><line class="b" x1="888.88" y1="420.9" x2="830.52" y2="420.9"/><line class="b" x1="344.21" y1="701" x2="888.88" y2="701"/><line class="b" x1="888.88" y1="701" x2="888.88" y2="708.78"/><line class="b" x1="344.21" y1="708.78" x2="888.88" y2="708.78"/><line class="b" x1="344.21" y1="701" x2="344.21" y2="381.99"/><line class="b" x1="344.21" y1="381.99" x2="830.52" y2="381.99"/><line class="b" x1="344.21" y1="1261.24" x2="344.21" y2="1237.9"/><line class="b" x1="344.21" y1="1150.75" x2="344.21" y2="708.78"/><line class="b" x1="814.42" y1="909.03" x2="717.15" y2="909.03"/><line class="c" x1="814.42" y1="735.51" x2="814.42" y2="756.52"/><line class="c" x1="717.15" y1="756.52" x2="717.15" y2="735.51"/><line class="c" x1="717.15" y1="735.51" x2="814.42" y2="735.51"/><line class="b" x1="717.15" y1="756.52" x2="814.42" y2="756.52"/><line class="b" x1="717.15" y1="909.03" x2="717.15" y2="832.78"/><line class="b" x1="814.42" y1="756.52" x2="814.42" y2="832.78"/><line class="b" x1="814.42" y1="832.78" x2="814.42" y2="909.03"/><line class="b" x1="717.15" y1="832.78" x2="717.15" y2="756.52"/><line class="c" x1="814.42" y1="832.78" x2="717.15" y2="832.78"/><line class="c" x1="721.04" y1="836.67" x2="810.53" y2="836.67"/><line class="c" x1="810.53" y1="836.67" x2="810.53" y2="905.14"/><line class="c" x1="810.53" y1="905.14" x2="721.04" y2="905.14"/><line class="c" x1="721.04" y1="905.14" x2="721.04" y2="836.67"/><line class="c" x1="810.53" y1="828.88" x2="721.04" y2="828.88"/><line class="c" x1="721.04" y1="828.88" x2="721.04" y2="760.41"/><line class="c" x1="721.04" y1="760.41" x2="810.53" y2="760.41"/><line class="c" x1="810.53" y1="760.41" x2="810.53" y2="828.88"/><line class="c" x1="521.85" y1="735.51" x2="521.85" y2="756.52"/><line class="b" x1="424.59" y1="832.78" x2="424.59" y2="756.52"/><line class="b" x1="424.59" y1="909.03" x2="424.59" y2="832.78"/><line class="b" x1="424.59" y1="756.52" x2="521.85" y2="756.52"/><line class="c" x1="424.59" y1="756.52" x2="424.59" y2="735.51"/><line class="c" x1="424.59" y1="735.51" x2="521.85" y2="735.51"/><line class="b" x1="521.85" y1="909.03" x2="424.59" y2="909.03"/><line class="c" x1="428.48" y1="828.88" x2="428.48" y2="760.41"/><line class="c" x1="517.96" y1="828.88" x2="428.48" y2="828.88"/><line class="c" x1="517.96" y1="760.41" x2="517.96" y2="828.88"/><line class="c" x1="428.48" y1="760.41" x2="517.96" y2="760.41"/><line class="b" x1="521.85" y1="756.52" x2="521.85" y2="832.78"/><line class="c" x1="521.85" y1="832.78" x2="424.59" y2="832.78"/><line class="c" x1="517.96" y1="905.14" x2="428.48" y2="905.14"/><line class="c" x1="428.48" y1="905.14" x2="428.48" y2="836.67"/><line class="c" x1="428.48" y1="836.67" x2="517.96" y2="836.67"/><line class="c" x1="517.96" y1="836.67" x2="517.96" y2="905.14"/><line class="b" x1="521.85" y1="832.78" x2="521.85" y2="909.03"/><line class="b" x1="814.42" y1="989.95" x2="814.42" y2="1066.2"/><line class="b" x1="814.42" y1="1066.2" x2="814.42" y2="1163.46"/><line class="b" x1="717.15" y1="1163.46" x2="717.15" y2="1066.2"/><line class="b" x1="717.15" y1="989.95" x2="814.42" y2="989.95"/><line class="b" x1="717.15" y1="1066.2" x2="717.15" y2="989.95"/><line class="c" x1="814.42" y1="1066.2" x2="717.15" y2="1066.2"/><line class="c" x1="721.04" y1="993.84" x2="810.53" y2="993.84"/><line class="c" x1="810.53" y1="993.84" x2="810.53" y2="1062.31"/><line class="c" x1="810.53" y1="1062.31" x2="721.04" y2="1062.31"/><line class="c" x1="721.04" y1="1062.31" x2="721.04" y2="993.84"/><line class="c" x1="814.42" y1="968.94" x2="814.42" y2="989.95"/><line class="c" x1="717.15" y1="968.94" x2="814.42" y2="968.94"/><line class="c" x1="717.15" y1="989.95" x2="717.15" y2="968.94"/><line class="b" x1="814.42" y1="1163.46" x2="717.15" y2="1163.46"/><line class="c" x1="721.04" y1="1159.57" x2="721.04" y2="1070.09"/><line class="c" x1="810.53" y1="1159.57" x2="721.04" y2="1159.57"/><line class="c" x1="810.53" y1="1070.09" x2="810.53" y2="1159.57"/><line class="c" x1="721.04" y1="1070.09" x2="810.53" y2="1070.09"/><line class="b" x1="1421.42" y1="989.95" x2="1421.42" y2="1066.2"/><line class="b" x1="1421.42" y1="1066.2" x2="1421.42" y2="1163.46"/><line class="b" x1="1324.15" y1="1163.46" x2="1324.15" y2="1066.2"/><line class="b" x1="1324.15" y1="989.95" x2="1421.42" y2="989.95"/><line class="b" x1="1324.15" y1="1066.2" x2="1324.15" y2="989.95"/><line class="c" x1="1421.42" y1="1066.2" x2="1324.15" y2="1066.2"/><line class="c" x1="1328.04" y1="993.84" x2="1417.53" y2="993.84"/><line class="c" x1="1417.53" y1="993.84" x2="1417.53" y2="1062.31"/><line class="c" x1="1417.53" y1="1062.31" x2="1328.04" y2="1062.31"/><line class="c" x1="1328.04" y1="1062.31" x2="1328.04" y2="993.84"/><line class="c" x1="1421.42" y1="968.94" x2="1421.42" y2="989.95"/><line class="c" x1="1324.15" y1="968.94" x2="1421.42" y2="968.94"/><line class="c" x1="1324.15" y1="989.95" x2="1324.15" y2="968.94"/><line class="b" x1="1421.42" y1="1163.46" x2="1324.15" y2="1163.46"/><line class="c" x1="1328.04" y1="1159.57" x2="1328.04" y2="1070.09"/><line class="c" x1="1417.53" y1="1159.57" x2="1328.04" y2="1159.57"/><line class="c" x1="1417.53" y1="1070.09" x2="1417.53" y2="1159.57"/><line class="c" x1="1328.04" y1="1070.09" x2="1417.53" y2="1070.09"/><line class="b" x1="1712.42" y1="989.95" x2="1712.42" y2="1066.2"/><line class="b" x1="1712.42" y1="1066.2" x2="1712.42" y2="1231.46"/><line class="b" x1="1615.15" y1="1231.46" x2="1615.15" y2="1066.2"/><line class="b" x1="1615.15" y1="989.95" x2="1712.42" y2="989.95"/><line class="b" x1="1615.15" y1="1066.2" x2="1615.15" y2="989.95"/><line class="c" x1="1712.42" y1="1066.2" x2="1615.15" y2="1066.2"/><line class="c" x1="1619.04" y1="993.84" x2="1708.53" y2="993.84"/><line class="c" x1="1708.53" y1="993.84" x2="1708.53" y2="1062.31"/><line class="c" x1="1708.53" y1="1062.31" x2="1619.04" y2="1062.31"/><line class="c" x1="1619.04" y1="1062.31" x2="1619.04" y2="993.84"/><line class="c" x1="1712.42" y1="968.94" x2="1712.42" y2="989.95"/><line class="c" x1="1615.15" y1="968.94" x2="1712.42" y2="968.94"/><line class="c" x1="1615.15" y1="989.95" x2="1615.15" y2="968.94"/><line class="b" x1="1712.42" y1="1231.46" x2="1615.15" y2="1231.46"/><line class="c" x1="1619.04" y1="1227.57" x2="1619.04" y2="1070.09"/><line class="c" x1="1708.53" y1="1227.57" x2="1619.04" y2="1227.57"/><line class="c" x1="1708.53" y1="1070.09" x2="1708.53" y2="1227.57"/><line class="c" x1="1619.04" y1="1070.09" x2="1708.53" y2="1070.09"/><line class="c" x1="517.96" y1="993.84" x2="517.96" y2="1062.31"/><line class="b" x1="424.59" y1="989.95" x2="521.85" y2="989.95"/><line class="c" x1="521.85" y1="968.94" x2="521.85" y2="989.95"/><line class="c" x1="424.59" y1="968.94" x2="521.85" y2="968.94"/><line class="c" x1="424.59" y1="989.95" x2="424.59" y2="968.94"/><line class="b" x1="521.85" y1="989.95" x2="521.85" y2="1066.2"/><line class="c" x1="521.85" y1="1066.2" x2="424.59" y2="1066.2"/><line class="b" x1="424.59" y1="1066.2" x2="424.59" y2="989.95"/><line class="c" x1="428.48" y1="993.84" x2="517.96" y2="993.84"/><line class="c" x1="428.48" y1="1062.31" x2="428.48" y2="993.84"/><line class="c" x1="517.96" y1="1062.31" x2="428.48" y2="1062.31"/><line class="c" x1="428.48" y1="1070.09" x2="517.96" y2="1070.09"/><line class="b" x1="521.85" y1="1261.24" x2="517.96" y2="1261.24"/><line class="b" x1="428.48" y1="1261.24" x2="424.59" y2="1261.24"/><polyline class="b" points="888.88 285.51 830.52 285.51 830.52 381.99"/><line class="b" x1="888.88" y1="1261.24" x2="888.88" y2="1237.9"/><line class="b" x1="424.59" y1="1261.24" x2="424.59" y2="1237.9"/><line class="b" x1="521.85" y1="1237.9" x2="521.85" y2="1261.24"/><line class="c" x1="517.96" y1="1070.09" x2="517.96" y2="1261.5"/><line class="c" x1="428.48" y1="1259.9" x2="428.48" y2="1070.09"/><line class="b" x1="424.59" y1="1150.75" x2="424.59" y2="1066.2"/><line class="b" x1="521.85" y1="1066.2" x2="521.85" y2="1150.75"/><line class="b" x1="521.85" y1="1173.9" x2="888.88" y2="1173.9"/><line class="b" x1="424.59" y1="1173.9" x2="344.21" y2="1173.9"/><line class="b" x1="888.88" y1="420.9" x2="888.88" y2="701"/><line class="b" x1="424.59" y1="1261.24" x2="344.21" y2="1261.24"/><line class="b" x1="344.21" y1="708.78" x2="344.21" y2="701"/><line class="b" x1="517.96" y1="1261.24" x2="428.48" y2="1261.24"/><line class="b" x1="521.85" y1="1261.24" x2="888.88" y2="1261.24"/><line class="b" x1="888.88" y1="1150.75" x2="888.88" y2="708.78"/><line class="b" x1="1794.42" y1="1234.15" x2="1794.42" y2="1210.81"/><line class="b" x1="1249.75" y1="1210.81" x2="1249.75" y2="1234.15"/><line class="b" x1="1794.42" y1="697.25" x2="1794.42" y2="378.25"/><line class="b" x1="1794.42" y1="378.25" x2="1308.11" y2="378.25"/><line class="b" x1="1249.75" y1="417.15" x2="1308.11" y2="417.15"/><line class="b" x1="1794.42" y1="697.25" x2="1794.42" y2="705.03"/><line class="b" x1="1794.42" y1="697.25" x2="1249.75" y2="697.25"/><line class="c" x1="1324.21" y1="731.77" x2="1324.21" y2="752.77"/><line class="c" x1="1421.47" y1="752.77" x2="1421.47" y2="731.77"/><line class="c" x1="1421.47" y1="731.77" x2="1324.21" y2="731.77"/><line class="b" x1="1421.47" y1="752.77" x2="1324.21" y2="752.77"/><line class="c" x1="1324.21" y1="829.03" x2="1421.47" y2="829.03"/><line class="c" x1="1417.58" y1="832.92" x2="1328.1" y2="832.92"/><line class="c" x1="1328.1" y1="832.92" x2="1328.1" y2="901.39"/><line class="c" x1="1328.1" y1="901.39" x2="1417.58" y2="901.39"/><line class="c" x1="1417.58" y1="901.39" x2="1417.58" y2="832.92"/><line class="c" x1="1328.1" y1="825.14" x2="1417.58" y2="825.14"/><line class="c" x1="1417.58" y1="825.14" x2="1417.58" y2="756.66"/><line class="c" x1="1417.58" y1="756.66" x2="1328.1" y2="756.66"/><line class="c" x1="1328.1" y1="756.66" x2="1328.1" y2="825.14"/><line class="c" x1="1616.78" y1="731.77" x2="1616.78" y2="752.77"/><line class="b" x1="1714.04" y1="752.77" x2="1616.78" y2="752.77"/><line class="c" x1="1714.04" y1="752.77" x2="1714.04" y2="731.77"/><line class="c" x1="1714.04" y1="731.77" x2="1616.78" y2="731.77"/><line class="c" x1="1710.15" y1="825.14" x2="1710.15" y2="756.66"/><line class="c" x1="1620.67" y1="825.14" x2="1710.15" y2="825.14"/><line class="c" x1="1620.67" y1="756.66" x2="1620.67" y2="825.14"/><line class="c" x1="1710.15" y1="756.66" x2="1620.67" y2="756.66"/><line class="c" x1="1616.78" y1="829.03" x2="1714.04" y2="829.03"/><line class="c" x1="1620.67" y1="901.39" x2="1710.15" y2="901.39"/><line class="c" x1="1710.15" y1="901.39" x2="1710.15" y2="832.92"/><line class="c" x1="1710.15" y1="832.92" x2="1620.67" y2="832.92"/><line class="c" x1="1620.67" y1="832.92" x2="1620.67" y2="901.39"/><line class="b" x1="1249.75" y1="1257.49" x2="1249.75" y2="1234.15"/><line class="b" x1="1249.75" y1="954.04" x2="1249.75" y2="705.03"/><line class="b" x1="1324.21" y1="905.28" x2="1421.47" y2="905.28"/><line class="b" x1="1616.78" y1="905.28" x2="1714.04" y2="905.28"/><line class="b" x1="1794.42" y1="705.03" x2="1249.75" y2="705.03"/><line class="b" x1="1638.8" y1="1257.49" x2="1662.14" y2="1257.49"/><line class="b" x1="1794.42" y1="1257.49" x2="1794.42" y2="1234.15"/><line class="b" x1="1308.11" y1="281.76" x2="1308.11" y2="378.25"/><line class="b" x1="1308.11" y1="378.25" x2="1308.11" y2="417.15"/><line class="b" x1="1324.21" y1="752.77" x2="1324.21" y2="829.03"/><line class="b" x1="1324.21" y1="829.03" x2="1324.21" y2="905.28"/><line class="b" x1="1421.47" y1="905.28" x2="1421.47" y2="829.03"/><line class="b" x1="1421.47" y1="829.03" x2="1421.47" y2="752.77"/><line class="b" x1="1714.04" y1="905.28" x2="1714.04" y2="829.03"/><line class="b" x1="1714.04" y1="829.03" x2="1714.04" y2="752.77"/><line class="b" x1="1616.78" y1="752.77" x2="1616.78" y2="829.03"/><line class="b" x1="1616.78" y1="829.03" x2="1616.78" y2="905.28"/><line class="b" x1="1794.42" y1="954.04" x2="1794.42" y2="705.03"/><line class="b" x1="1324.21" y1="1257.49" x2="1249.75" y2="1257.49"/><line class="b" x1="1714.04" y1="1257.49" x2="1794.42" y2="1257.49"/><line class="b" x1="1638.8" y1="1257.49" x2="1324.21" y2="1257.49"/><line class="b" x1="1714.04" y1="1257.49" x2="1662.14" y2="1257.49"/><line class="b" x1="1249.75" y1="705.03" x2="1249.75" y2="697.25"/><polyline class="b" points="1249.75 417.15 1249.75 281.76 1308.11 281.76"/><line class="b" x1="1249.75" y1="417.15" x2="1249.75" y2="697.25"/><line class="b" x1="1794.42" y1="954.04" x2="1794.42" y2="1210.81"/><line class="b" x1="1249.75" y1="1210.81" x2="1249.75" y2="954.04"/><path d="M2426.93,104.07l13,31.61h.51l13-31.61H2463v43.62h-7.58v-30H2455L2443,147.57h-5.67l-12.06-29.91h-.4v30h-7.58V104.07Z"/><path d="M2470.57,138.51c0-7.37,6.07-9.26,12.41-9.95,5.78-.61,8.1-.72,8.1-2.94v-.12c0-3.22-2-5-5.54-5-3.77,0-5.94,1.92-6.71,4.15l-7.2-1c1.71-6,7-9,13.87-9,6.24,0,13.29,2.6,13.29,11.25v21.89h-7.41V143.2h-.26c-1.4,2.75-4.47,5.15-9.6,5.15C2475.27,148.35,2470.57,145,2470.57,138.51ZM2491.1,136V132.1c-1,.81-5,1.32-7.07,1.6-3.45.49-6,1.72-6,4.68s2.3,4.31,5.52,4.31C2488.16,142.69,2491.1,139.6,2491.1,136Z"/><path d="M2522.91,120.94h-6.45v16.91c0,3.11,1.55,3.79,3.49,3.79a10.12,10.12,0,0,0,2.26-.29l1.3,6a15.21,15.21,0,0,1-4.54.77c-5.79.17-10.27-2.85-10.22-9V120.94h-4.65v-6h4.65v-7.83h7.71V115h6.45Z"/><path d="M2527.63,131.53c0-10.1,6.11-17,15.48-17,8,0,15,5,15,16.53v2.36h-22.8c.07,5.6,3.37,8.89,8.35,8.89,3.33,0,5.88-1.45,6.93-4.22l7.2.81c-1.37,5.68-6.61,9.41-14.23,9.41C2533.65,148.33,2527.63,141.79,2527.63,131.53Zm23-3.28c0-4.46-3-7.69-7.45-7.69a7.87,7.87,0,0,0-7.93,7.69Z"/><path d="M2564.59,115h7.48v5.46h.34a8.16,8.16,0,0,1,8.07-5.92,18.15,18.15,0,0,1,2.77.21v7.09a15,15,0,0,0-3.58-.44c-4.24,0-7.37,2.93-7.37,7.09v19.23h-7.71Z"/><path d="M2587.8,106.16a4.47,4.47,0,1,1,4.47,4.17A4.33,4.33,0,0,1,2587.8,106.16Zm.59,8.81h7.71v32.72h-7.71Z"/><path d="M2602.5,138.51c0-7.37,6.07-9.26,12.42-9.95,5.77-.61,8.09-.72,8.09-2.94v-.12c0-3.22-2-5-5.54-5-3.77,0-5.94,1.92-6.71,4.15l-7.2-1c1.71-6,7-9,13.87-9,6.24,0,13.29,2.6,13.29,11.25v21.89h-7.41V143.2h-.26c-1.4,2.75-4.47,5.15-9.6,5.15C2607.2,148.35,2602.5,145,2602.5,138.51ZM2623,136V132.1c-1,.81-5.05,1.32-7.07,1.6-3.45.49-6,1.72-6,4.68s2.3,4.31,5.52,4.31C2620.09,142.69,2623,139.6,2623,136Z"/><path d="M2646.22,147.69h-7.71V104.07h7.71Z"/><path d="M2673,124.39c-.59-2.15-2.47-4.09-6-4.09-3.22,0-5.67,1.53-5.65,3.75,0,1.89,1.3,3,4.62,3.79l5.58,1.19c6.18,1.35,9.19,4.2,9.21,8.86,0,6.2-5.8,10.44-14,10.44s-13.08-3.55-14-9.56l7.51-.73c.67,2.94,3,4.48,6.5,4.48s6.09-1.69,6.09-3.92c0-1.86-1.4-3.07-4.41-3.73l-5.58-1.17c-6.28-1.3-9.22-4.45-9.2-9.23,0-6,5.35-9.92,13.23-9.92,7.67,0,12.1,3.53,13.16,9.07Z"/><rect class="d" x="2414" y="203" width="196" height="17"/><rect class="d" x="2414" y="238" width="196" height="17"/><rect class="d" x="2414" y="273" width="196" height="17"/></svg>