<svg xmlns="http://www.w3.org/2000/svg" viewBox="0 0 2900 2100"><defs><style>.a,.b,.c,.d,.e{fill:none;stroke:#000;}.a,.d,.e{stroke-miterlimit:10;}.a{stroke-width:3px;}.b,.c{stroke-linecap:round;stroke-linejoin:round;}.b,.d,.e{stroke-width:2px;}.e{stroke-dasharray:19.44 5.83;}</style></defs><polygon class="a" points="2870.5 2071.5 37.5 2061.5 37.5 32.5 2870.5 30.5 2870.5 2071.5"/><line class="a" x1="38" y1="1800.5" x2="2863.5" y2="1800.5"/><line class="a" x1="2304.5" y1="1797.5" x2="2304.5" y2="2068.5"/><line class="a" x1="1751.5" y1="1798" x2="1751.5" y2="2069"/><line class="a" x1="1752" y1="1927.5" x2="2304" y2="1927.5"/><path d="M1815.9,2020.91h-6v-31.29h-.32c-.66,1.16-3.74,2.92-8.19,2.92v-4.87a9.85,9.85,0,0,0,8.93-6h5.53Z"/><path d="M1826.54,1992.52a3.84,3.84,0,1,1,3.83,3.84A3.84,3.84,0,0,1,1826.54,1992.52Zm0,19.68a3.84,3.84,0,1,1,3.83,3.84A3.84,3.84,0,0,1,1826.54,2012.2Z"/><path d="M1841.9,2010.67h5.75c.31,3.37,3.32,5.79,7.12,5.79,4.51,0,7.78-3.42,7.78-8.13a8,8,0,0,0-8-8.33,10.4,10.4,0,0,0-6.5,2.23l-5.43-.81,2.2-19.79h21.6v5.08h-16.67l-1.24,11h.23a10.56,10.56,0,0,1,7.15-2.61c7.15,0,12.45,5.52,12.43,13.12s-5.62,13.23-13.52,13.23C1847.56,2021.44,1842.13,2016.92,1841.9,2010.67Z"/><path d="M1874.55,2001.29c0-12.8,5.39-20.2,14.41-20.2s14.38,7.42,14.38,20.2-5.31,20.27-14.38,20.27S1874.55,2014.14,1874.55,2001.29Zm22.91,0c0-9.79-3.23-15.18-8.5-15.18s-8.5,5.39-8.52,15.18,3.21,15.15,8.52,15.15S1897.46,2011.11,1897.46,2001.29Z"/><path d="M1970.31,1998.6c0,8.09-1.55,16.15-9.74,16.3-3.28.12-6.62-1.24-7.08-4.33h-.23c-.9,2.26-3.74,4.3-8.11,4.1-6.47-.25-10.5-5.52-10.5-13.4,0-7.56,4.76-12.15,10.3-12.8,4-.48,7.35,1,7.93,2.73h.24v-2.15h4.72v17.8c0,2,1.1,3.62,3.07,3.62,3.49,0,4.57-3.74,4.55-12.06,0-9.74-6.68-17-17.9-17-12.27,0-19.12,7.89-19.12,20.09,0,12.73,6.92,19.85,19.83,19.85a33.45,33.45,0,0,0,10.34-2l1.34,4.2a33.12,33.12,0,0,1-11.93,2.32c-15.86,0-24.66-8.88-24.68-24.43,0-15.12,9.05-24.5,24.41-24.5C1962.41,1977,1970.31,1987.05,1970.31,1998.6Zm-30.8,2.44c0,4.64,1.74,8.93,6.75,8.93s6.92-3,6.9-9c0-5.83-2.13-7.9-6.83-7.9C1942,1993.12,1939.53,1996.62,1939.51,2001Z"/><path d="M1974.29,2020.91l14.13-39.28h6.85l14.14,39.28h-6.29l-3.59-10.4h-15.34l-3.61,10.4Zm23.51-15.39-5.79-16.76h-.31l-5.79,16.76Z"/><path d="M2014.33,2010.67h6c.23,3.49,3.55,5.67,7.81,5.67,4.62,0,7.94-2.59,7.94-6.4s-3.15-6.72-8.59-6.72h-3.32v-4.83h3.32c4.35,0,7.4-2.49,7.38-6.29,0-3.63-2.61-6.06-6.62-6.06-3.85,0-7.25,2.18-7.38,5.79h-5.74c.2-6.39,6-10.74,13.2-10.74,7.56,0,12.29,4.93,12.27,10.7a8.58,8.58,0,0,1-6.75,8.69v.31c5.22.8,8.23,4.37,8.21,9.34,0,6.52-5.87,11.31-13.88,11.31S2014.58,2017.07,2014.33,2010.67Z"/><path d="M95.88,1848.6c-4.95,0-7.89,2.4-7.91,5.68,0,3.65,3.84,5.16,7.42,6l4.09,1c6.56,1.56,12.8,5,12.82,12.57s-6.09,12.91-16.55,12.91c-10.16,0-16.62-4.88-16.94-13.55h7.78c.32,4.58,4.15,6.8,9.09,6.8,5.16,0,8.7-2.5,8.72-6.22,0-3.39-3.13-4.86-7.84-6l-5-1.28C84.42,1864.64,80,1861,80,1854.77c0-7.71,6.86-12.86,16-12.86s15.57,5.22,15.72,12.59h-7.6C103.69,1850.79,100.58,1848.6,95.88,1848.6Z"/><path d="M117.59,1870c0-10.1,6.12-17,15.49-17,8,0,14.95,5,14.95,16.53v2.37H125.24c.06,5.6,3.36,8.88,8.35,8.88,3.32,0,5.88-1.45,6.92-4.22l7.2.81c-1.36,5.69-6.6,9.42-14.23,9.42C123.62,1886.77,117.59,1880.23,117.59,1870Zm23-3.28c0-4.45-3-7.69-7.46-7.69a7.87,7.87,0,0,0-7.92,7.69Z"/><path d="M153.15,1869.9c0-10,6-16.92,15.64-16.92,8,0,13.52,4.67,14.06,11.76h-7.37a6.42,6.42,0,0,0-6.58-5.54c-4.76,0-7.93,4-7.93,10.57s3.11,10.71,7.93,10.71a6.38,6.38,0,0,0,6.58-5.53h7.37c-.56,6.94-5.8,11.82-14,11.82C159.05,1886.77,153.15,1879.8,153.15,1869.9Z"/><path d="M205.54,1859.37h-6.45v16.92c0,3.11,1.55,3.79,3.49,3.79a9.45,9.45,0,0,0,2.26-.3l1.3,6a15.62,15.62,0,0,1-4.54.77c-5.79.17-10.27-2.86-10.22-9v-18.2h-4.65v-6h4.65v-7.84h7.71v7.84h6.45Z"/><path d="M211.41,1844.59a4.47,4.47,0,1,1,4.47,4.18A4.33,4.33,0,0,1,211.41,1844.59Zm.59,8.82h7.71v32.72H212Z"/><path d="M226.24,1869.9c0-10.14,6.09-16.92,15.67-16.92s15.68,6.78,15.68,16.92-6.09,16.87-15.68,16.87S226.24,1880,226.24,1869.9Zm23.53,0c0-6-2.6-10.78-7.81-10.78s-7.91,4.79-7.91,10.78,2.6,10.71,7.91,10.71S249.77,1875.86,249.77,1869.88Z"/><path d="M271.83,1886.13h-7.71v-32.72h7.37V1859h.38c1.49-3.64,4.86-6,9.76-6,6.75,0,11.22,4.48,11.2,12.32v20.83h-7.71v-19.64c0-4.37-2.38-7-6.37-7s-6.92,2.73-6.92,7.46Z"/><path d="M341.63,1871.13h-30v-6.34h30Z"/><path d="M360.49,1853.41h7.58v5.41h.45a9.71,9.71,0,0,1,9.35-5.84c7.56,0,13.51,5.93,13.51,16.83s-5.78,16.89-13.49,16.89a9.85,9.85,0,0,1-9.37-5.73h-.32v17.43h-7.71Zm15.25,27c5.09,0,7.77-4.48,7.77-10.61s-2.64-10.46-7.77-10.46c-5,0-7.69,4.11-7.69,10.46S370.82,1880.38,375.74,1880.38Z"/><path d="M398,1853.41h7.47v5.45h.34a8.53,8.53,0,0,1,12.47-4.73l-2.39,6.39a7.05,7.05,0,0,0-3.05-.68,6.9,6.9,0,0,0-7.13,7.05v19.24H398Z"/><path d="M420,1869.9c0-10.14,6.09-16.92,15.68-16.92s15.68,6.78,15.68,16.92-6.1,16.87-15.68,16.87S420,1880,420,1869.9Zm23.54,0c0-6-2.6-10.78-7.82-10.78s-7.9,4.79-7.9,10.78,2.6,10.71,7.9,10.71S443.56,1875.86,443.56,1869.88Z"/><path d="M457.9,1853.41h7.59v5.41h.44a9.73,9.73,0,0,1,9.36-5.84c7.56,0,13.5,5.93,13.5,16.83s-5.77,16.89-13.48,16.89a9.87,9.87,0,0,1-9.38-5.73h-.32v17.43H457.9Zm15.26,27c5.09,0,7.77-4.48,7.77-10.61s-2.64-10.46-7.77-10.46c-5,0-7.69,4.11-7.69,10.46S468.23,1880.38,473.16,1880.38Z"/><path d="M494,1869.9c0-10.14,6.09-16.92,15.67-16.92s15.68,6.78,15.68,16.92-6.09,16.87-15.68,16.87S494,1880,494,1869.9Zm23.53,0c0-6-2.59-10.78-7.81-10.78s-7.91,4.79-7.91,10.78,2.6,10.71,7.91,10.71S517.51,1875.86,517.51,1869.88Z"/><path d="M550.69,1862.83c-.6-2.16-2.47-4.09-6-4.09-3.21,0-5.66,1.53-5.64,3.74,0,1.9,1.3,3,4.62,3.8l5.58,1.19c6.18,1.34,9.18,4.2,9.2,8.86,0,6.2-5.79,10.44-14,10.44s-13.08-3.56-14-9.57l7.52-.72c.66,2.94,3,4.47,6.5,4.47s6.09-1.68,6.09-3.92c0-1.85-1.41-3.06-4.41-3.72l-5.58-1.18c-6.28-1.3-9.22-4.45-9.2-9.22,0-6.05,5.34-9.93,13.22-9.93,7.67,0,12.1,3.54,13.17,9.08Z"/><path d="M563.39,1870c0-10.1,6.12-17,15.49-17,8,0,15,5,15,16.53v2.37H571c.07,5.6,3.37,8.88,8.35,8.88,3.32,0,5.88-1.45,6.92-4.22l7.2.81c-1.36,5.69-6.6,9.42-14.22,9.42C569.42,1886.77,563.39,1880.23,563.39,1870Zm23.05-3.28c0-4.45-3-7.69-7.45-7.69a7.88,7.88,0,0,0-7.93,7.69Z"/><path d="M599,1869.81c0-10.9,5.94-16.83,13.5-16.83a9.73,9.73,0,0,1,9.36,5.84h.31V1842.5h7.74v43.63h-7.59V1881h-.46a9.87,9.87,0,0,1-9.38,5.73C604.79,1886.7,599,1880.59,599,1869.81Zm23.32,0c0-6.35-2.72-10.46-7.69-10.46-5.13,0-7.77,4.37-7.77,10.46s2.68,10.61,7.77,10.61C619.57,1880.38,622.34,1876.12,622.34,1869.77Z"/><path d="M1808.68,1883.77h-6v-31.29h-.33c-.65,1.15-3.74,2.92-8.19,2.92v-4.87a9.85,9.85,0,0,0,8.94-6h5.53Z"/><path d="M1818.57,1864.14c0-12.79,5.39-20.19,14.4-20.19s14.39,7.42,14.39,20.19-5.32,20.28-14.39,20.28S1818.57,1877,1818.57,1864.14Zm22.9,0c0-9.78-3.22-15.17-8.5-15.17s-8.5,5.39-8.51,15.17,3.2,15.16,8.51,15.16S1841.47,1874,1841.47,1864.14Z"/><path d="M1868,1883.77h-6v-31.29h-.33c-.65,1.15-3.74,2.92-8.18,2.92v-4.87a9.84,9.84,0,0,0,8.93-6H1868Z"/><path d="M1896,1866.62h-17.41v-5H1896Z"/><path d="M1904.15,1844.48h14c9.13,0,13.6,5.49,13.6,12.72s-4.51,12.76-13.62,12.76h-8.05v13.81h-5.93Zm13.44,20.45c5.8,0,8.2-3.28,8.2-7.73s-2.4-7.63-8.27-7.63h-7.44v15.36Z"/><path d="M1953.61,1866.62h-17.42v-5h17.42Z"/><path d="M1960.45,1864.14c0-12.79,5.39-20.19,14.41-20.19s14.38,7.42,14.38,20.19-5.31,20.28-14.38,20.28S1960.45,1877,1960.45,1864.14Zm22.9,0c0-9.78-3.22-15.17-8.49-15.17s-8.5,5.39-8.52,15.17,3.2,15.16,8.52,15.16S1983.35,1874,1983.35,1864.14Z"/><path d="M1995.24,1871.3l17-26.82h7.31v26.59h5.2v5h-5.2v7.68h-5.66v-7.68h-18.62Zm18.66-19.76h-.31l-12.14,19.22v.31h12.45Z"/><path d="M2338.89,1836.84h8.55c5.58,0,8.31,3.35,8.31,7.77s-2.75,7.79-8.32,7.79h-4.92v8.44h-3.62Zm8.21,12.49c3.54,0,5-2,5-4.72s-1.47-4.66-5.06-4.66h-4.54v9.38Z"/><path d="M2359.7,1842.84h3.39v2.86h.18a4.67,4.67,0,0,1,4.57-3.13,4.15,4.15,0,0,1,2.36.66l-1.13,2.93a3.57,3.57,0,0,0-1.62-.35,4,4,0,0,0-4.25,4v11h-3.5Z"/><path d="M2371.38,1851.92c0-5.6,3.32-9.31,8.39-9.31s8.39,3.71,8.39,9.31-3.31,9.29-8.39,9.29S2371.38,1857.49,2371.38,1851.92Zm13.24,0c0-3.44-1.54-6.37-4.83-6.37s-4.87,2.93-4.87,6.37,1.55,6.35,4.87,6.35S2384.62,1855.37,2384.62,1851.91Z"/><path d="M2392.07,1842.84h3.42v2.92h.29a5.41,5.41,0,0,1,5.17-3.15c4.35,0,7.56,3.43,7.56,9.27s-3.17,9.31-7.53,9.31a5.48,5.48,0,0,1-5.2-3.15h-.21v9.55h-3.5Zm8.13,15.37c3.13,0,4.77-2.76,4.77-6.37s-1.59-6.26-4.77-6.26-4.7,2.5-4.7,6.26S2397.19,1858.21,2400.2,1858.21Z"/><path d="M2411.62,1852c0-5.53,3.31-9.35,8.33-9.35,4.07,0,8,2.54,8,9v1.25h-12.79c.09,3.47,2.11,5.41,5.11,5.41a4.08,4.08,0,0,0,4.15-2.57l3.31.6c-.8,2.93-3.57,4.87-7.5,4.87C2414.88,1861.21,2411.62,1857.55,2411.62,1852Zm12.86-1.69a4.45,4.45,0,0,0-4.51-4.77,4.84,4.84,0,0,0-4.84,4.77Z"/><path d="M2431.82,1842.84h3.38v2.86h.19a4.69,4.69,0,0,1,4.57-3.13c.45,0,1.14,0,1.49.08V1846a7.69,7.69,0,0,0-1.83-.22,4,4,0,0,0-4.3,4.06v11h-3.5Z"/><path d="M2454,1845.65h-3.69v9.91c0,2,1,2.4,2.16,2.4a6.31,6.31,0,0,0,1.23-.15l.63,2.89a7,7,0,0,1-2.27.38c-2.77.05-5.26-1.53-5.25-4.8v-10.63h-2.64v-2.81h2.64v-4.31h3.5v4.31H2454Z"/><path d="M2457.63,1867.43l.85-2.91c1.93.52,3.18.32,4.06-2l.52-1.41-6.59-18.24h3.75l4.56,14h.19l4.56-14h3.76l-7.5,20.63c-1,2.8-2.91,4.37-5.81,4.37A6.32,6.32,0,0,1,2457.63,1867.43Z"/><path d="M2484.48,1855.76c0-4.09,3.49-5,6.9-5.38,3.24-.38,4.55-.35,4.55-1.63v-.08c0-2-1.16-3.23-3.42-3.23a4.21,4.21,0,0,0-4.19,2.51l-3.29-.75c1.17-3.28,4.17-4.59,7.43-4.59,2.86,0,7,1,7,6.28v11.95H2496v-2.46h-.14a5.62,5.62,0,0,1-5.32,2.86C2487.14,1861.24,2484.48,1859.29,2484.48,1855.76Zm11.46-1.41V1852c-.5.5-3.2.81-4.33,1-2,.27-3.7.94-3.7,2.81s1.43,2.63,3.41,2.63C2494.24,1858.43,2495.94,1856.48,2495.94,1854.35Z"/><path d="M2503.32,1851.88c0-5.84,3.2-9.27,7.55-9.27a5.43,5.43,0,0,1,5.18,3.15h.21v-8.92h3.51v24h-3.43V1858h-.29a5.48,5.48,0,0,1-5.2,3.15C2506.48,1861.19,2503.32,1857.7,2503.32,1851.88Zm13,0c0-3.76-1.64-6.26-4.7-6.26s-4.76,2.69-4.76,6.26,1.63,6.37,4.76,6.37S2516.32,1855.63,2516.32,1851.84Z"/><path d="M2524,1851.88c0-5.84,3.2-9.27,7.55-9.27a5.43,5.43,0,0,1,5.18,3.15h.21v-8.92h3.5v24H2537V1858h-.29a5.48,5.48,0,0,1-5.2,3.15C2527.12,1861.19,2524,1857.7,2524,1851.88Zm13,0c0-3.76-1.64-6.26-4.7-6.26s-4.76,2.69-4.76,6.26,1.63,6.37,4.76,6.37S2537,1855.63,2537,1851.84Z"/><path d="M2545.41,1842.84h3.38v2.86h.19a4.67,4.67,0,0,1,4.57-3.13,4.15,4.15,0,0,1,2.36.66l-1.13,2.93a3.58,3.58,0,0,0-1.63-.35,4,4,0,0,0-4.24,4v11h-3.5Z"/><path d="M2557.09,1852c0-5.53,3.3-9.35,8.32-9.35,4.08,0,8,2.54,8,9v1.25h-12.8c.1,3.47,2.11,5.41,5.11,5.41a4.08,4.08,0,0,0,4.15-2.57l3.32.6c-.8,2.93-3.58,4.87-7.5,4.87C2560.35,1861.21,2557.09,1857.55,2557.09,1852Zm12.86-1.69a4.46,4.46,0,0,0-4.52-4.77,4.84,4.84,0,0,0-4.84,4.77Z"/><path d="M2587.59,1847.8a3.46,3.46,0,0,0-3.59-2.42c-2,0-3.5,1-3.48,2.37,0,1.22.84,1.89,2.82,2.36l2.86.65c3.3.77,4.92,2.34,4.92,4.88,0,3.26-3,5.57-7.36,5.57-4,0-6.69-1.8-7.28-5l3.39-.51c.42,1.77,1.77,2.67,3.87,2.67,2.3,0,3.78-1.09,3.78-2.48,0-1.13-.81-1.9-2.54-2.29l-3.05-.67c-3.37-.75-4.92-2.45-4.92-5,0-3.19,2.88-5.33,6.95-5.33,3.89,0,6.08,1.83,6.81,4.63Z"/><path d="M2605.28,1847.8a3.48,3.48,0,0,0-3.6-2.42c-2,0-3.49,1-3.48,2.37,0,1.22.84,1.89,2.82,2.36l2.86.65c3.31.77,4.92,2.34,4.92,4.88,0,3.26-3,5.57-7.36,5.57-4,0-6.69-1.8-7.27-5l3.38-.51c.43,1.77,1.77,2.67,3.87,2.67,2.3,0,3.79-1.09,3.79-2.48,0-1.13-.81-1.9-2.55-2.29l-3-.67c-3.38-.75-4.93-2.45-4.93-5,0-3.19,2.89-5.33,6.95-5.33,3.89,0,6.09,1.83,6.81,4.63Z"/><rect x="2307.05" y="1723.44" width="20.93" height="8.49"/><rect x="2327.41" y="1731.92" width="104.66" height="8.49"/><rect x="2431.13" y="1723.44" width="104.66" height="8.49"/><rect x="2639.13" y="1723.44" width="104.66" height="8.49"/><rect x="2534.85" y="1730.98" width="104.66" height="8.49"/><rect x="2286.12" y="1731.79" width="20.93" height="8.49"/><rect x="2264.43" y="1723.3" width="20.93" height="8.49"/><rect x="2244.16" y="1731.31" width="20.93" height="8.49"/><rect x="2222.47" y="1722.83" width="20.93" height="8.49"/><path d="M2213.51,1696c0-8.09,3.41-12.77,9.11-12.77s9.1,4.69,9.1,12.77-3.36,12.82-9.1,12.82S2213.51,1704.13,2213.51,1696Zm14.49,0c0-6.19-2-9.6-5.38-9.6s-5.37,3.41-5.38,9.6,2,9.58,5.38,9.58S2228,1702.21,2228,1696Z"/><path d="M2332.31,1709.66h-3.76v-19.78h-.2c-.42.73-2.37,1.84-5.18,1.84v-3.08a6.23,6.23,0,0,0,5.65-3.82h3.49Z"/><path d="M2419.63,1707.89l8.4-8.71c2.67-2.83,4-4.4,4-6.6,0-2.48-1.91-4-4.44-4a4.12,4.12,0,0,0-4.39,4.42h-3.58c0-4.54,3.4-7.55,8.05-7.55s7.93,3.06,7.93,7c0,2.78-1.3,5-5.85,9.57l-4.94,5.17v.18H2436v3.22h-16.35Z"/><path d="M2511.93,1705.07h3.81c.15,2.21,2.24,3.59,4.94,3.59,2.92,0,5-1.64,5-4.05s-2-4.24-5.43-4.24h-2.1v-3.06h2.1c2.75,0,4.68-1.58,4.67-4s-1.65-3.83-4.19-3.83-4.58,1.38-4.67,3.66h-3.63c.12-4,3.79-6.79,8.35-6.79,4.78,0,7.78,3.11,7.76,6.76a5.43,5.43,0,0,1-4.27,5.5v.19a5.67,5.67,0,0,1,5.19,5.91c0,4.13-3.71,7.16-8.78,7.16S2512.09,1709.12,2511.93,1705.07Z"/><path d="M2623,1703.19l10.74-17h4.62v16.82h3.29v3.18h-3.29v4.85h-3.58v-4.85H2623Zm11.8-12.49h-.19l-7.68,12.15v.2h7.87Z"/><path d="M2734.53,1704.6h3.64a4.25,4.25,0,0,0,4.5,3.66,4.88,4.88,0,0,0,4.93-5.14,5,5,0,0,0-5.08-5.26,6.68,6.68,0,0,0-4.12,1.4l-3.43-.51,1.4-12.52H2750v3.22h-10.55l-.78,7h.14a6.68,6.68,0,0,1,4.53-1.65c4.52,0,7.87,3.49,7.86,8.3a8.17,8.17,0,0,1-8.56,8.37C2738.11,1711.42,2734.68,1708.55,2734.53,1704.6Z"/><line class="b" x1="1663.49" y1="408.52" x2="1663.49" y2="543.8"/><line class="b" x1="1721.8" y1="408.52" x2="1663.49" y2="408.52"/><line class="b" x1="1022.06" y1="1111.36" x2="1022.06" y2="1220.21"/><line class="b" x1="2367.11" y1="1273.08" x2="2188.29" y2="1273.08"/><line class="b" x1="2367.11" y1="1360.16" x2="2386.54" y2="1360.16"/><line class="b" x1="1780.11" y1="408.52" x2="1780.11" y2="543.8"/><line class="b" x1="1721.8" y1="408.52" x2="1780.11" y2="408.52"/><line class="b" x1="2165" y1="1334" x2="1255.63" y2="1333"/><polyline class="b" points="1304 1358 1304 1383.48 1255.31 1383.48"/><line class="b" x1="1197.98" y1="1088.04" x2="1197.98" y2="1080.26"/><line class="b" x1="1083.42" y1="1088.04" x2="1083.42" y2="1080.26"/><line class="b" x1="179.29" y1="1220.21" x2="1022.06" y2="1220.21"/><line class="b" x1="665.2" y1="1360.16" x2="179.29" y2="1360.16"/><line class="b" x1="1255.31" y1="1080.26" x2="1197.98" y2="1080.26"/><line class="c" x1="1256" y1="1333" x2="1256" y2="1135"/><line class="c" x1="1278.5" y1="1333.5" x2="1278.5" y2="1135.5"/><line class="b" x1="1022.06" y1="1220.21" x2="1022.06" y2="1332.83"/><line class="b" x1="1083.42" y1="1080.26" x2="1037.61" y2="1080.26"/><line class="b" x1="1255.31" y1="1383.48" x2="1255.31" y2="1360.16"/><line class="b" x1="1083.42" y1="1080.26" x2="1197.98" y2="1080.26"/><line class="b" x1="179.29" y1="1360.16" x2="665.2" y2="1360.16"/><line class="b" x1="179.29" y1="1360.16" x2="665.2" y2="1360.16"/><line class="b" x1="1243.66" y1="823.68" x2="1243.66" y2="831.46"/><line class="b" x1="1243.66" y1="831.46" x2="1255.31" y2="831.46"/><polyline class="b" points="1255.31 879.16 1255.31 1031.55 1255.31 1135 1279 1135 1279 1127"/><line class="b" x1="2199.93" y1="823.68" x2="1780.11" y2="543.8"/><polyline class="b" points="2577 1371 2513 1371 2513 1360 2386.54 1360.16 2386.54 1273.08"/><line class="b" x1="2367.11" y1="1360.16" x2="2188.29" y2="1360.16"/><line class="b" x1="2367.11" y1="1360.16" x2="2367.11" y2="1273.08"/><line class="b" x1="2188.29" y1="1360.16" x2="2188.29" y2="1273.08"/><line class="b" x1="1022.06" y1="1332.83" x2="665.2" y2="1332.83"/><line class="b" x1="665.2" y1="1332.83" x2="665.2" y2="1360.16"/><line class="b" x1="2188.29" y1="1383.48" x2="2188.29" y2="1360.16"/><line class="b" x1="1733" y1="1126.91" x2="2164.96" y2="1126.91"/><line class="b" x1="1721.8" y1="504.93" x2="1663.49" y2="543.8"/><line class="b" x1="2134" y1="1358" x2="1303" y2="1358"/><line class="b" x1="1037.61" y1="1088.04" x2="1037.61" y2="1080.26"/><line class="b" x1="1197.98" y1="1088.04" x2="1083.42" y2="1088.04"/><line class="b" x1="1255.31" y1="1088.04" x2="1197.98" y2="1088.04"/><line class="b" x1="1083.42" y1="1088.04" x2="1037.61" y2="1088.04"/><line class="b" x1="1255.31" y1="1332.83" x2="1022" y2="1332.83"/><line class="b" x1="1278.63" y1="1103.59" x2="1278.63" y2="870.34"/><line class="b" x1="1721.8" y1="1103.59" x2="1599.06" y2="1103.59"/><line class="b" x1="1583.51" y1="1103.59" x2="1278.63" y2="1103.59"/><line class="b" x1="1799.43" y1="1103.59" x2="1799.43" y2="870.34"/><line class="b" x1="1599.06" y1="1103.59" x2="1599.06" y2="870.34"/><line class="b" x1="2367.11" y1="1273.08" x2="2386.54" y2="1273.08"/><line class="b" x1="665.2" y1="1360.16" x2="1022.06" y2="1360.16"/><line class="b" x1="2199.93" y1="823.68" x2="2199.93" y2="831.46"/><line class="b" x1="2199.93" y1="831.46" x2="2188.29" y2="831.46"/><line class="b" x1="2164.96" y1="1333" x2="2164.96" y2="1126.91"/><polyline class="b" points="2188.28 1383.48 2134 1383.48 2134 1358"/><polyline class="b" points="1279 1127 1710 1127 1710 1137 1733 1137 1733 1126.91"/><line class="b" x1="1022.06" y1="1080.26" x2="1022.06" y2="1111.36"/><line class="b" x1="1022.06" y1="1360.16" x2="1255.31" y2="1360.16"/><line class="b" x1="1037.61" y1="1080.26" x2="1022.06" y2="1080.26"/><line class="b" x1="1255.31" y1="1360.16" x2="1255.31" y2="1333"/><line class="b" x1="1045" y1="1111.36" x2="1256" y2="1111"/><line class="b" x1="1783.88" y1="870.34" x2="1783.88" y2="1103.59"/><line class="b" x1="1583.51" y1="870.34" x2="1583.51" y2="1103.59"/><line class="b" x1="1022.06" y1="1111.36" x2="1045.39" y2="1111.36"/><line class="b" x1="1721.8" y1="504.93" x2="1780.11" y2="543.8"/><line class="b" x1="1799.43" y1="1103.59" x2="2164.96" y2="1103.59"/><line class="b" x1="2164.96" y1="854.8" x2="1721.8" y2="854.8"/><line class="b" x1="1721.8" y1="854.8" x2="1278.63" y2="854.8"/><line class="b" x1="2164.96" y1="1103.59" x2="2164.96" y2="870.34"/><line class="b" x1="1721.8" y1="1103.59" x2="1783.88" y2="1103.59"/><line class="b" x1="1255.31" y1="1080.26" x2="1255.31" y2="1088.04"/><line class="b" x1="1278.63" y1="870.34" x2="1583.51" y2="870.34"/><line class="b" x1="1599.06" y1="870.34" x2="1721.8" y2="870.34"/><line class="b" x1="1721.8" y1="870.34" x2="1783.88" y2="870.34"/><line class="b" x1="1799.43" y1="870.34" x2="2164.96" y2="870.34"/><line class="b" x1="1255.31" y1="879.16" x2="1255.31" y2="831.46"/><line class="b" x1="2188.29" y1="831.46" x2="2188.29" y2="1273.08"/><line class="b" x1="1243.66" y1="823.68" x2="1663.49" y2="543.8"/><line class="c" x1="1045.39" y1="1333" x2="1045.39" y2="1110"/><line class="b" x1="2164.96" y1="828.4" x2="2164.96" y2="854.8"/><line class="b" x1="1721.8" y1="532.96" x2="2164.96" y2="828.4"/><line class="b" x1="1278.63" y1="828.4" x2="1278.63" y2="854.8"/><line class="b" x1="1721.8" y1="532.96" x2="1278.63" y2="828.4"/><line class="d" x1="2772.75" y1="118.53" x2="2661.59" y2="119.75"/><line class="d" x1="2775.86" y1="348.02" x2="2772.95" y2="118.48"/><line class="d" x1="2660.95" y1="152.87" x2="2658.19" y2="704.81"/><rect class="d" x="2661.43" y="119.8" width="73.29" height="56.24" transform="translate(0.18 -3.17) rotate(0.07)"/><line class="b" x1="2658.19" y1="704.81" x2="2773.82" y2="705.43"/><line class="b" x1="2659.72" y1="421.23" x2="2660.12" y2="347.07"/><line class="b" x1="2775.33" y1="421.85" x2="2775.73" y2="347.68"/><line class="b" x1="2762.17" y1="567.21" x2="2762.1" y2="579.33"/><line class="b" x1="2774.49" y1="579.4" x2="2762.1" y2="579.33"/><line class="b" x1="2658.95" y1="566.66" x2="2762.17" y2="567.21"/><line class="b" x1="2762.17" y1="567.21" x2="2762.23" y2="555.09"/><line class="b" x1="2774.62" y1="555.16" x2="2762.23" y2="555.09"/><line class="b" x1="2701.78" y1="523.86" x2="2701.95" y2="493.48"/><line class="b" x1="2681.4" y1="493.37" x2="2681.23" y2="523.75"/><line class="b" x1="2701.95" y1="493.48" x2="2681.4" y2="493.37"/><line class="b" x1="2681.23" y1="523.75" x2="2701.78" y2="523.86"/><line class="b" x1="2659.48" y1="467.29" x2="2659.72" y2="421.23"/><line class="b" x1="2759.7" y1="458.33" x2="2747.32" y2="458.26"/><line class="b" x1="2759.83" y1="434.52" x2="2759.7" y2="458.33"/><line class="b" x1="2747.44" y1="434.45" x2="2759.83" y2="434.52"/><line class="b" x1="2747.32" y1="458.26" x2="2747.44" y2="434.45"/><line class="b" x1="2773.82" y1="705.43" x2="2774.02" y2="666.65"/><line class="b" x1="2658.42" y1="666.03" x2="2658.21" y2="704.82"/><line class="b" x1="2771.78" y1="467.89" x2="2775.08" y2="467.91"/><line class="b" x1="2775.08" y1="467.91" x2="2775.33" y2="421.85"/><line class="b" x1="2659.38" y1="469.3" x2="2775.17" y2="469.55"/><line class="b" x1="2774.49" y1="579.4" x2="2774.02" y2="666.65"/><line class="b" x1="2658.42" y1="666.03" x2="2658.95" y2="566.66"/><line class="b" x1="2658.95" y1="566.66" x2="2659.48" y2="467.29"/><line class="b" x1="2774.62" y1="555.16" x2="2774.49" y2="579.4"/><line class="b" x1="2774.62" y1="555.16" x2="2775.08" y2="467.91"/><line class="b" x1="2659.72" y1="421.23" x2="2775.33" y2="421.85"/><line class="b" x1="2658.5" y1="664.19" x2="2774.39" y2="665.24"/><line class="d" x1="2711.05" y1="778.38" x2="2711.05" y2="234.38"/><polygon points="2712.05 234.38 2722.05 240.38 2712.05 246.38 2712.05 234.38"/><polygon points="2712.05 766.68 2722.05 772.68 2712.05 778.68 2712.05 766.68"/><path class="c" d="M1733,1333V1137"/><line class="c" x1="1710" y1="1333" x2="1710.13" y2="1137"/><path d="M1947.47,1216H1953v15.81h18.14V1216h5.5v36.37h-5.5V1236.5H1953v15.86h-5.49Z"/><line class="d" x1="2512" y1="1360" x2="2522" y2="1360"/><line class="e" x1="2527.83" y1="1360" x2="2727.08" y2="1360"/><line class="d" x1="2730" y1="1360" x2="2740" y2="1360"/><polyline class="d" points="2729.5 1374 2716.5 1361 2703.5 1374"/><line class="d" x1="2716.5" y1="1361" x2="2716.5" y2="1416"/><path d="M2555,1266.9v-36.38h12.14c10.71,0,17.13,6.82,17.13,18.14s-6.42,18.24-17.5,18.24Zm11.47-4.8c8.29,0,12.4-4.83,12.4-13.44s-4.11-13.34-12.06-13.34h-6.33v26.78Z"/><path d="M2589.37,1259.19c0-6.2,5.29-7.55,10.46-8.15,4.9-.57,6.89-.54,6.89-2.47v-.13c0-3.09-1.76-4.88-5.18-4.88-3.57,0-5.56,1.86-6.34,3.8l-5-1.14c1.77-5,6.32-7,11.26-7,4.33,0,10.58,1.58,10.58,9.52v18.12h-5.18v-3.73h-.22c-1,2-3.55,4.33-8.06,4.33C2593.4,1267.5,2589.37,1264.55,2589.37,1259.19Zm17.37-2.13v-3.52c-.76.76-4.85,1.23-6.57,1.46-3.07.41-5.6,1.42-5.6,4.26,0,2.63,2.17,4,5.17,4C2604.17,1263.24,2606.74,1260.29,2606.74,1257.06Z"/><path d="M2631.85,1243.88h-5.6v15c0,3.07,1.55,3.64,3.27,3.64a8.63,8.63,0,0,0,1.86-.23l1,4.38a10.17,10.17,0,0,1-3.44.57c-4.19.09-8-2.31-8-7.26v-16.11h-4v-4.26h4v-6.54h5.31v6.54h5.6Z"/><path d="M2655,1239.62h5.33v27.28h-5.22v-4.73h-.28a8.46,8.46,0,0,1-8.16,5.08c-5.24,0-9-3.51-9-10.28v-17.35H2643v16.71c0,3.71,2.28,6.09,5.56,6.09a6.42,6.42,0,0,0,6.41-6.84Z"/><path d="M2667.42,1239.62h5.1v4.44h.34a8.07,8.07,0,0,1,14.76,0h.28c1.32-2.92,4.27-4.8,8.19-4.8,4.94,0,8.42,3.11,8.42,9.34v18.3h-5.31v-17.8c0-3.69-2.31-5.26-5.12-5.26-3.46,0-5.47,2.38-5.47,5.67v17.39h-5.29v-18.14a4.7,4.7,0,0,0-5-4.92c-3,0-5.59,2.56-5.59,6.24v16.82h-5.32Z"/><line class="b" x1="1912" y1="1126" x2="1912" y2="1334"/><path class="b" d="M1895,1145l32.12-32.12"/><path class="b" d="M1899,1347.14l32.12-32.11"/></svg>