<?xml version="1.0" standalone="no"?>
<!DOCTYPE svg PUBLIC "-//W3C//DTD SVG 20010904//EN"
 "http://www.w3.org/TR/2001/REC-SVG-20010904/DTD/svg10.dtd">
<svg version="1.0" xmlns="http://www.w3.org/2000/svg"
 width="180.000000pt" height="180.000000pt" viewBox="0 0 180.000000 180.000000"
 preserveAspectRatio="xMidYMid meet">
<g transform="translate(0.000000,180.000000) scale(0.100000,-0.100000)"
fill="#000000" stroke="none">
<path d="M50 1750 l-50 -49 0 -801 0 -801 50 -49 49 -50 801 0 801 0 49 50 50
49 0 801 0 801 -50 49 -49 50 -801 0 -801 0 -49 -50z m890 -280 c226 -28 318
-103 328 -269 6 -112 -29 -188 -111 -244 l-37 -25 45 -22 c95 -46 139 -125
139 -250 0 -102 -23 -162 -86 -227 -89 -91 -202 -116 -513 -111 l-210 3 -3
565 c-1 311 0 571 3 578 6 15 320 17 445 2z"/>
<path d="M670 1160 l0 -162 148 4 c120 3 154 8 186 23 61 31 81 65 81 140 0
56 -3 67 -28 93 -41 42 -86 53 -244 59 l-143 6 0 -163z"/>
<path d="M670 660 l0 -182 158 4 c167 5 207 15 249 60 49 52 59 161 20 218
-44 66 -72 75 -259 78 l-168 4 0 -182z"/>
</g>
</svg>
