<svg xmlns="http://www.w3.org/2000/svg" viewBox="0 0 180 180">
  <path d="M18 0C8.059 0 0 8.059 0 18v144c0 9.941 8.059 18 18 18h144c9.941 0 18-8.059 18-18V18c0-9.941-8.059-18-18-18H18Zm30.625 31.875H83.25c15.016 0 26.328 2.18 33.969 6.531 7.64 4.351 11.469 11.867 11.469 22.532 0 4.456-.779 8.48-2.344 12.062-1.566 3.582-3.841 6.536-6.813 8.844-2.971 2.308-6.618 3.86-10.969 4.656v.781c4.511.796 8.535 2.203 12.063 4.219 3.528 2.016 6.301 4.92 8.344 8.688 2.043 3.767 3.062 8.629 3.062 14.624 0 7.111-1.693 13.169-5.062 18.157-3.37 4.987-8.172 8.775-14.407 11.375-6.234 2.6-13.613 3.906-22.156 3.906H48.625V31.875Zm19.094 15.844v32.156H86.03c8.649 0 14.626-1.407 17.969-4.219 3.343-2.812 5.031-6.9 5.031-12.312 0-5.519-1.984-9.528-5.937-11.969-3.953-2.44-10.217-3.656-18.813-3.656H67.72Zm0 47.593v36.938h20.125c8.914 0 15.204-1.707 18.812-5.156 3.608-3.449 5.406-8.142 5.406-14.032 0-3.608-.819-6.722-2.437-9.374-1.618-2.653-4.245-4.729-7.906-6.188-3.661-1.46-8.605-2.188-14.813-2.188H67.72Z"/>
</svg>
