<svg xmlns="http://www.w3.org/2000/svg" viewBox="0 0 2900 2100"><defs><style>.a,.b,.c,.d,.e,.f,.g,.h{fill:none;stroke:#000;}.a,.b,.c,.d,.e,.f,.g{stroke-miterlimit:10;}.a{stroke-width:3px;}.b,.h{stroke-width:2px;}.c{stroke-width:3.9px;}.d{stroke-width:4px;}.e{stroke-width:2.57px;}.f{stroke-width:2.16px;}.g{stroke-width:1.4px;}.h{stroke-linecap:round;stroke-linejoin:round;}</style></defs><polygon class="a" points="2870.5 2071.5 37.5 2061.5 37.5 32.5 2870.5 30.5 2870.5 2071.5"/><line class="a" x1="38" y1="1800.5" x2="2863.5" y2="1800.5"/><line class="a" x1="2304.5" y1="1797.5" x2="2304.5" y2="2068.5"/><line class="a" x1="1751.5" y1="1798" x2="1751.5" y2="2069"/><circle class="b" cx="2721.07" cy="194.57" r="58.93"/><line class="c" x1="2719.9" y1="134.08" x2="2719.9" y2="196.52"/><path d="M2728.66,120.56h-3.94L2715.34,107h-.16v13.57h-4.56V99h4l9.31,13.56h.19V99h4.54Z"/><rect x="2283.39" y="1711.16" width="30.35" height="12.3"/><rect x="2312.91" y="1723.47" width="151.73" height="12.3"/><rect x="2463.27" y="1711.16" width="151.73" height="12.3"/><rect x="2613.63" y="1722.1" width="151.73" height="12.3"/><rect x="2253.05" y="1723.27" width="30.35" height="12.3"/><rect x="2221.62" y="1710.97" width="30.35" height="12.3"/><rect x="2192.23" y="1722.58" width="30.35" height="12.3"/><rect x="2160.79" y="1710.28" width="30.35" height="12.3"/><path d="M2146.93,1670.15c0-8.1,3.41-12.78,9.11-12.78s9.1,4.7,9.1,12.78-3.36,12.82-9.1,12.82S2146.93,1678.27,2146.93,1670.15Zm14.48,0c0-6.19-2-9.6-5.37-9.6s-5.37,3.41-5.39,9.6,2,9.58,5.39,9.58S2161.41,1676.36,2161.41,1670.15Z"/><path d="M2169.51,1663.92H2173v3h.23a5.1,5.1,0,0,1,5.07-3.28,5,5,0,0,1,5,3.28h.2a5.82,5.82,0,0,1,5.59-3.28c3.37,0,5.75,2.12,5.75,6.38v12.5h-3.63V1670.4a3.25,3.25,0,0,0-3.49-3.59,3.58,3.58,0,0,0-3.74,3.87v11.88h-3.61v-12.39a3.21,3.21,0,0,0-3.41-3.36,4,4,0,0,0-3.82,4.26v11.49h-3.63Z"/><path d="M2306.34,1673.54H2310a4.25,4.25,0,0,0,4.5,3.67,4.88,4.88,0,0,0,4.93-5.15,5,5,0,0,0-5.09-5.26,6.6,6.6,0,0,0-4.11,1.41l-3.43-.51,1.39-12.52h13.66v3.21h-10.54l-.79,6.95h.15a6.72,6.72,0,0,1,4.52-1.65c4.53,0,7.87,3.5,7.86,8.3a8.16,8.16,0,0,1-8.55,8.37C2309.92,1680.36,2306.49,1677.5,2306.34,1673.54Z"/><path d="M2454.25,1681.39h-3.76V1661.6h-.2c-.42.73-2.37,1.85-5.18,1.85v-3.08a6.25,6.25,0,0,0,5.65-3.82h3.49Z"/><path d="M2460.52,1669c0-8.09,3.41-12.77,9.11-12.77s9.09,4.69,9.09,12.77-3.36,12.82-9.09,12.82S2460.52,1677.11,2460.52,1669Zm14.48,0c0-6.19-2-9.6-5.37-9.6s-5.38,3.41-5.39,9.6,2,9.58,5.39,9.58S2475,1675.19,2475,1669Z"/><path d="M2579.5,1680l8.41-8.71c2.67-2.83,4-4.4,4-6.6,0-2.47-1.92-4-4.44-4a4.12,4.12,0,0,0-4.39,4.42h-3.58c0-4.54,3.39-7.55,8-7.55s7.93,3.06,7.93,7c0,2.78-1.29,5-5.84,9.57l-4.94,5.17v.18h11.18v3.22H2579.5Z"/><path d="M2600,1670.35c0-8.09,3.41-12.78,9.11-12.78s9.1,4.7,9.1,12.78-3.36,12.82-9.1,12.82S2600,1678.47,2600,1670.35Zm14.48,0c0-6.19-2-9.6-5.37-9.6s-5.38,3.41-5.39,9.6,2,9.58,5.39,9.58S2614.48,1676.56,2614.48,1670.35Z"/><path d="M2740.9,1675.59h3.81c.15,2.21,2.25,3.6,4.94,3.6,2.92,0,5-1.64,5-4.06s-2-4.24-5.43-4.24h-2.1v-3.06h2.1c2.75,0,4.68-1.58,4.67-4s-1.65-3.83-4.19-3.83-4.58,1.38-4.67,3.66h-3.63c.12-4,3.79-6.79,8.35-6.79,4.78,0,7.78,3.12,7.76,6.77a5.41,5.41,0,0,1-4.27,5.49v.2a5.67,5.67,0,0,1,5.2,5.9c0,4.13-3.72,7.16-8.79,7.16S2741.06,1679.65,2740.9,1675.59Z"/><path d="M2762.58,1669.66c0-8.09,3.4-12.77,9.11-12.77s9.09,4.69,9.09,12.77-3.36,12.82-9.09,12.82S2762.58,1677.79,2762.58,1669.66Zm14.48,0c0-6.18-2-9.59-5.37-9.59s-5.38,3.41-5.39,9.59,2,9.59,5.39,9.59S2777.06,1675.87,2777.06,1669.66Z"/><line class="a" x1="1752" y1="1927.5" x2="2304" y2="1927.5"/><path d="M1815.9,2020.91h-6v-31.29h-.32c-.66,1.16-3.74,2.92-8.19,2.92v-4.87a9.85,9.85,0,0,0,8.93-6h5.53Z"/><path d="M1826.54,1992.52a3.84,3.84,0,1,1,3.83,3.84A3.84,3.84,0,0,1,1826.54,1992.52Zm0,19.68a3.84,3.84,0,1,1,3.83,3.84A3.84,3.84,0,0,1,1826.54,2012.2Z"/><path d="M1841.8,2016.61l13.29-13.77c4.22-4.47,6.29-7,6.29-10.43,0-3.92-3-6.37-7-6.37-4.23,0-7,2.76-6.94,7h-5.66c0-7.17,5.37-11.93,12.72-11.93s12.54,4.83,12.54,11.14c0,4.39-2,7.87-9.24,15.14l-7.81,8.17v.28h17.69v5.09H1841.8Z"/><path d="M1874.19,2001.29c0-12.8,5.39-20.2,14.4-20.2s14.39,7.42,14.39,20.2-5.31,20.27-14.39,20.27S1874.19,2014.14,1874.19,2001.29Zm22.9,0c0-9.79-3.22-15.18-8.5-15.18s-8.49,5.39-8.51,15.18,3.2,15.15,8.51,15.15S1897.09,2011.11,1897.09,2001.29Z"/><path d="M1909.07,2001.29c0-12.8,5.39-20.2,14.41-20.2s14.38,7.42,14.38,20.2-5.31,20.27-14.38,20.27S1909.07,2014.14,1909.07,2001.29Zm22.9,0c0-9.79-3.22-15.18-8.49-15.18s-8.5,5.39-8.52,15.18,3.2,15.15,8.52,15.15S1932,2011.11,1932,2001.29Z"/><path d="M2004.83,1998.6c0,8.09-1.56,16.15-9.75,16.3-3.28.12-6.61-1.24-7.07-4.33h-.23c-.91,2.26-3.74,4.3-8.12,4.1-6.46-.25-10.49-5.52-10.49-13.4,0-7.56,4.76-12.15,10.3-12.8,4-.48,7.35,1,7.92,2.73h.25v-2.15h4.72v17.8c0,2,1.09,3.62,3.07,3.62,3.49,0,4.56-3.74,4.54-12.06,0-9.74-6.67-17-17.89-17-12.28,0-19.12,7.89-19.12,20.09,0,12.73,6.92,19.85,19.83,19.85a33.45,33.45,0,0,0,10.34-2l1.34,4.2a33.12,33.12,0,0,1-11.93,2.32c-15.86,0-24.67-8.88-24.69-24.43,0-15.12,9.06-24.5,24.42-24.5C1996.93,1977,2004.83,1987.05,2004.83,1998.6ZM1974,2001c0,4.64,1.75,8.93,6.76,8.93s6.92-3,6.9-9c0-5.83-2.13-7.9-6.83-7.9C1976.52,1993.12,1974,1996.62,1974,2001Z"/><path d="M2008.81,2020.91l14.13-39.28h6.85l14.13,39.28h-6.29l-3.58-10.4H2018.7l-3.6,10.4Zm23.51-15.39-5.79-16.76h-.31l-5.79,16.76Z"/><path d="M2048.85,2010.67h6c.23,3.49,3.55,5.67,7.8,5.67,4.63,0,7.95-2.59,7.95-6.4s-3.15-6.72-8.6-6.72h-3.32v-4.83H2062c4.36,0,7.41-2.49,7.39-6.29,0-3.63-2.61-6.06-6.62-6.06-3.85,0-7.25,2.18-7.38,5.79h-5.74c.19-6.39,6-10.74,13.2-10.74,7.55,0,12.29,4.93,12.27,10.7a8.58,8.58,0,0,1-6.75,8.69v.31c5.22.8,8.23,4.37,8.21,9.34,0,6.52-5.87,11.31-13.89,11.31S2049.1,2017.07,2048.85,2010.67Z"/><path d="M95.88,1848.6c-4.95,0-7.89,2.4-7.91,5.68,0,3.65,3.84,5.16,7.42,6l4.09,1c6.56,1.56,12.8,5,12.82,12.57s-6.09,12.91-16.55,12.91c-10.16,0-16.62-4.88-16.94-13.55h7.78c.32,4.58,4.15,6.8,9.09,6.8,5.16,0,8.7-2.5,8.72-6.22,0-3.39-3.13-4.86-7.84-6l-5-1.28C84.42,1864.64,80,1861,80,1854.77c0-7.71,6.86-12.86,16-12.86s15.57,5.22,15.72,12.59h-7.6C103.69,1850.79,100.58,1848.6,95.88,1848.6Z"/><path d="M118.4,1844.59a4.47,4.47,0,1,1,4.48,4.18A4.33,4.33,0,0,1,118.4,1844.59Zm.6,8.82h7.71v32.72H119Z"/><path d="M151,1859.37h-6.46v16.92c0,3.11,1.56,3.79,3.49,3.79a9.37,9.37,0,0,0,2.26-.3l1.3,6a15.55,15.55,0,0,1-4.54.77c-5.79.17-10.26-2.86-10.22-9v-18.2h-4.64v-6h4.64v-7.84h7.71v7.84H151Z"/><path d="M155.69,1870c0-10.1,6.11-17,15.48-17,8.06,0,15,5,15,16.53v2.37H163.34c.06,5.6,3.36,8.88,8.35,8.88,3.32,0,5.88-1.45,6.92-4.22l7.2.81c-1.36,5.69-6.6,9.42-14.23,9.42C161.72,1886.77,155.69,1880.23,155.69,1870Zm23.05-3.28c-.05-4.45-3-7.69-7.46-7.69a7.86,7.86,0,0,0-7.92,7.69Z"/><path d="M207.55,1853.41h7.58v5.41h.45a9.71,9.71,0,0,1,9.35-5.84c7.56,0,13.51,5.93,13.51,16.83s-5.78,16.89-13.49,16.89a9.85,9.85,0,0,1-9.37-5.73h-.32v17.43h-7.71Zm15.25,27c5.09,0,7.78-4.48,7.78-10.61s-2.65-10.46-7.78-10.46c-5,0-7.69,4.11-7.69,10.46S217.88,1880.38,222.8,1880.38Z"/><path d="M252.74,1886.13H245V1842.5h7.71Z"/><path d="M259.13,1877c0-7.37,6.07-9.27,12.42-10,5.77-.62,8.1-.72,8.1-2.94v-.13c0-3.21-2-5-5.54-5-3.77,0-5.94,1.92-6.71,4.16l-7.2-1c1.7-6,7-9,13.87-9,6.24,0,13.29,2.6,13.29,11.25v21.9h-7.42v-4.5h-.25c-1.41,2.75-4.47,5.16-9.61,5.16C263.84,1886.79,259.13,1883.38,259.13,1877Zm20.54-2.56v-3.85c-1,.81-5.05,1.32-7.07,1.59-3.45.49-6,1.73-6,4.69s2.3,4.3,5.51,4.3C276.73,1881.12,279.67,1878,279.67,1874.39Z"/><path d="M302.85,1886.13h-7.71v-32.72h7.37V1859h.39c1.49-3.64,4.85-6,9.75-6,6.75,0,11.23,4.48,11.21,12.32v20.83h-7.72v-19.64c0-4.37-2.38-7-6.36-7s-6.93,2.73-6.93,7.46Z"/><path d="M372.65,1871.13h-30v-6.34h30Z"/><path d="M390.11,1870c0-10.1,6.11-17,15.48-17,8.05,0,15,5,15,16.53v2.37H397.75c.07,5.6,3.37,8.88,8.35,8.88,3.32,0,5.88-1.45,6.93-4.22l7.19.81c-1.36,5.69-6.6,9.42-14.22,9.42C396.13,1886.77,390.11,1880.23,390.11,1870Zm23-3.28c0-4.45-3-7.69-7.45-7.69a7.88,7.88,0,0,0-7.93,7.69Z"/><path d="M439.34,1865.49l6.71-12.08h8.16l-9.86,16.36,10,16.36h-8.12l-6.92-11.78-6.86,11.78H424.3l10-16.36-9.71-16.36h8.18Z"/><path d="M459.59,1844.59a4.47,4.47,0,1,1,4.47,4.18A4.33,4.33,0,0,1,459.59,1844.59Zm.59,8.82h7.71v32.72h-7.71Z"/><path d="M494.65,1862.83c-.59-2.16-2.47-4.09-6-4.09-3.21,0-5.66,1.53-5.64,3.74,0,1.9,1.3,3,4.62,3.8l5.58,1.19c6.18,1.34,9.18,4.2,9.2,8.86,0,6.2-5.79,10.44-14,10.44s-13.08-3.56-14-9.57l7.52-.72c.66,2.94,3,4.47,6.5,4.47s6.09-1.68,6.09-3.92c0-1.85-1.4-3.06-4.41-3.72l-5.58-1.18c-6.28-1.3-9.22-4.45-9.2-9.22,0-6.05,5.35-9.93,13.23-9.93,7.67,0,12.1,3.54,13.16,9.08Z"/><path d="M525.1,1859.37h-6.45v16.92c0,3.11,1.55,3.79,3.49,3.79a9.45,9.45,0,0,0,2.26-.3l1.3,6a15.62,15.62,0,0,1-4.54.77c-5.79.17-10.27-2.86-10.23-9v-18.2h-4.64v-6h4.64v-7.84h7.72v7.84h6.45Z"/><path d="M531,1844.59a4.47,4.47,0,1,1,4.48,4.18A4.34,4.34,0,0,1,531,1844.59Zm.6,8.82h7.71v32.72h-7.71Z"/><path d="M554.91,1886.13H547.2v-32.72h7.37V1859H555c1.49-3.64,4.86-6,9.76-6,6.75,0,11.22,4.48,11.2,12.32v20.83H568.2v-19.64c0-4.37-2.38-7-6.37-7s-6.92,2.73-6.92,7.46Z"/><path d="M583.57,1890.82l6.94-1.69c.94,1.79,3,4,7.63,4,4.39,0,7.58-2,7.58-6.67v-6.2h-.38c-1.19,2.41-3.81,5.41-9.42,5.41-7.54,0-13.48-5.33-13.48-16S588.38,1853,596,1853a9.78,9.78,0,0,1,9.39,5.84h.43v-5.41h7.6v33.25c0,8.25-6.52,12.29-15.36,12.29C589.68,1899,585,1895.27,583.57,1890.82Zm22.2-21.2c0-6.2-2.73-10.31-7.69-10.31-5.14,0-7.78,4.37-7.78,10.31s2.69,10,7.78,10C603,1879.61,605.77,1875.86,605.77,1869.62Z"/><path d="M1808.68,1883.77h-6v-31.29h-.33c-.65,1.15-3.74,2.92-8.19,2.92v-4.87a9.85,9.85,0,0,0,8.94-6h5.53Z"/><path d="M1818.57,1864.14c0-12.79,5.39-20.19,14.4-20.19s14.39,7.42,14.39,20.19-5.32,20.28-14.39,20.28S1818.57,1877,1818.57,1864.14Zm22.9,0c0-9.78-3.22-15.17-8.5-15.17s-8.5,5.39-8.51,15.17,3.2,15.16,8.51,15.16S1841.47,1874,1841.47,1864.14Z"/><path d="M1868,1883.77h-6v-31.29h-.33c-.65,1.15-3.74,2.92-8.19,2.92v-4.87a9.85,9.85,0,0,0,8.94-6H1868Z"/><path d="M1896,1866.62h-17.41v-5H1896Z"/><path d="M1904.15,1844.48h24.63v5.11h-18.7v12h17.41v5.09h-17.41v12H1929v5.11h-24.86Z"/><path d="M1953.61,1866.62h-17.42v-5h17.42Z"/><path d="M1960.45,1864.14c0-12.79,5.39-20.19,14.4-20.19s14.39,7.42,14.39,20.19-5.31,20.28-14.39,20.28S1960.45,1877,1960.45,1864.14Zm22.9,0c0-9.78-3.22-15.17-8.5-15.17s-8.49,5.39-8.51,15.17,3.2,15.16,8.51,15.16S1983.35,1874,1983.35,1864.14Z"/><path d="M2009.87,1883.77h-5.95v-31.29h-.32c-.65,1.15-3.74,2.92-8.19,2.92v-4.87a9.86,9.86,0,0,0,8.94-6h5.52Z"/><path d="M2338.89,1836.84h8.55c5.58,0,8.31,3.35,8.31,7.77s-2.75,7.79-8.32,7.79h-4.92v8.44h-3.62Zm8.21,12.49c3.54,0,5-2,5-4.72s-1.47-4.66-5.06-4.66h-4.54v9.38Z"/><path d="M2359.7,1842.84h3.39v2.86h.18a4.67,4.67,0,0,1,4.57-3.13,4.15,4.15,0,0,1,2.36.66l-1.13,2.93a3.57,3.57,0,0,0-1.62-.35,4,4,0,0,0-4.25,4v11h-3.5Z"/><path d="M2371.38,1851.92c0-5.6,3.32-9.31,8.39-9.31s8.39,3.71,8.39,9.31-3.31,9.29-8.39,9.29S2371.38,1857.49,2371.38,1851.92Zm13.24,0c0-3.44-1.54-6.37-4.83-6.37s-4.87,2.93-4.87,6.37,1.55,6.35,4.87,6.35S2384.62,1855.37,2384.62,1851.91Z"/><path d="M2392.07,1842.84h3.42v2.92h.29a5.41,5.41,0,0,1,5.17-3.15c4.35,0,7.56,3.43,7.56,9.27s-3.17,9.31-7.53,9.31a5.48,5.48,0,0,1-5.2-3.15h-.21v9.55h-3.5Zm8.13,15.37c3.13,0,4.77-2.76,4.77-6.37s-1.59-6.26-4.77-6.26-4.7,2.5-4.7,6.26S2397.19,1858.21,2400.2,1858.21Z"/><path d="M2411.62,1852c0-5.53,3.31-9.35,8.33-9.35,4.07,0,8,2.54,8,9v1.25h-12.79c.09,3.47,2.11,5.41,5.11,5.41a4.08,4.08,0,0,0,4.15-2.57l3.31.6c-.8,2.93-3.57,4.87-7.5,4.87C2414.88,1861.21,2411.62,1857.55,2411.62,1852Zm12.86-1.69a4.45,4.45,0,0,0-4.51-4.77,4.84,4.84,0,0,0-4.84,4.77Z"/><path d="M2431.82,1842.84h3.38v2.86h.19a4.69,4.69,0,0,1,4.57-3.13c.45,0,1.14,0,1.49.08V1846a7.69,7.69,0,0,0-1.83-.22,4,4,0,0,0-4.3,4.06v11h-3.5Z"/><path d="M2454,1845.65h-3.69v9.91c0,2,1,2.4,2.16,2.4a6.31,6.31,0,0,0,1.23-.15l.63,2.89a7,7,0,0,1-2.27.38c-2.77.05-5.26-1.53-5.25-4.8v-10.63h-2.64v-2.81h2.64v-4.31h3.5v4.31H2454Z"/><path d="M2457.63,1867.43l.85-2.91c1.93.52,3.18.32,4.06-2l.52-1.41-6.59-18.24h3.75l4.56,14h.19l4.56-14h3.76l-7.5,20.63c-1,2.8-2.91,4.37-5.81,4.37A6.32,6.32,0,0,1,2457.63,1867.43Z"/><path d="M2484.48,1855.76c0-4.09,3.49-5,6.9-5.38,3.24-.38,4.55-.35,4.55-1.63v-.08c0-2-1.16-3.23-3.42-3.23a4.21,4.21,0,0,0-4.19,2.51l-3.29-.75c1.17-3.28,4.17-4.59,7.43-4.59,2.86,0,7,1,7,6.28v11.95H2496v-2.46h-.14a5.62,5.62,0,0,1-5.32,2.86C2487.14,1861.24,2484.48,1859.29,2484.48,1855.76Zm11.46-1.41V1852c-.5.5-3.2.81-4.33,1-2,.27-3.7.94-3.7,2.81s1.43,2.63,3.41,2.63C2494.24,1858.43,2495.94,1856.48,2495.94,1854.35Z"/><path d="M2503.32,1851.88c0-5.84,3.2-9.27,7.55-9.27a5.43,5.43,0,0,1,5.18,3.15h.21v-8.92h3.51v24h-3.43V1858h-.29a5.48,5.48,0,0,1-5.2,3.15C2506.48,1861.19,2503.32,1857.7,2503.32,1851.88Zm13,0c0-3.76-1.64-6.26-4.7-6.26s-4.76,2.69-4.76,6.26,1.63,6.37,4.76,6.37S2516.32,1855.63,2516.32,1851.84Z"/><path d="M2524,1851.88c0-5.84,3.2-9.27,7.55-9.27a5.43,5.43,0,0,1,5.18,3.15h.21v-8.92h3.5v24H2537V1858h-.29a5.48,5.48,0,0,1-5.2,3.15C2527.12,1861.19,2524,1857.7,2524,1851.88Zm13,0c0-3.76-1.64-6.26-4.7-6.26s-4.76,2.69-4.76,6.26,1.63,6.37,4.76,6.37S2537,1855.63,2537,1851.84Z"/><path d="M2545.41,1842.84h3.38v2.86h.19a4.67,4.67,0,0,1,4.57-3.13,4.15,4.15,0,0,1,2.36.66l-1.13,2.93a3.58,3.58,0,0,0-1.63-.35,4,4,0,0,0-4.24,4v11h-3.5Z"/><path d="M2557.09,1852c0-5.53,3.3-9.35,8.32-9.35,4.08,0,8,2.54,8,9v1.25h-12.8c.1,3.47,2.11,5.41,5.11,5.41a4.08,4.08,0,0,0,4.15-2.57l3.32.6c-.8,2.93-3.58,4.87-7.5,4.87C2560.35,1861.21,2557.09,1857.55,2557.09,1852Zm12.86-1.69a4.46,4.46,0,0,0-4.52-4.77,4.84,4.84,0,0,0-4.84,4.77Z"/><path d="M2587.59,1847.8a3.46,3.46,0,0,0-3.59-2.42c-2,0-3.5,1-3.48,2.37,0,1.22.84,1.89,2.82,2.36l2.86.65c3.3.77,4.92,2.34,4.92,4.88,0,3.26-3,5.57-7.36,5.57-4,0-6.69-1.8-7.28-5l3.39-.51c.42,1.77,1.77,2.67,3.87,2.67,2.3,0,3.78-1.09,3.78-2.48,0-1.13-.81-1.9-2.54-2.29l-3.05-.67c-3.37-.75-4.92-2.45-4.92-5,0-3.19,2.88-5.33,6.95-5.33,3.89,0,6.08,1.83,6.81,4.63Z"/><path d="M2605.28,1847.8a3.48,3.48,0,0,0-3.6-2.42c-2,0-3.49,1-3.48,2.37,0,1.22.84,1.89,2.82,2.36l2.86.65c3.31.77,4.92,2.34,4.92,4.88,0,3.26-3,5.57-7.36,5.57-4,0-6.69-1.8-7.27-5l3.38-.51c.43,1.77,1.77,2.67,3.87,2.67,2.3,0,3.79-1.09,3.79-2.48,0-1.13-.81-1.9-2.55-2.29l-3-.67c-3.38-.75-4.93-2.45-4.93-5,0-3.19,2.89-5.33,6.95-5.33,3.89,0,6.09,1.83,6.81,4.63Z"/><line class="b" x1="353.7" y1="1741.65" x2="1918.5" y2="1165.5"/><polyline class="b" points="93.58 1735.69 1911.01 1069.83 1568.12 122.42 1378.89 199.89 1176.96 271.01 976.3 343.4 563.56 490.71 379.41 561.83 359.09 561.83 180.03 631.68 160.97 632.95 97.61 658.48"/><line class="b" x1="1720" y1="1140" x2="1372" y2="202"/><line class="b" x1="1177" y1="271" x2="1518" y2="1213"/><line class="b" x1="1109" y1="712" x2="880" y2="82"/><line class="b" x1="815" y1="461" x2="1120" y2="1360"/><line class="b" x1="582" y1="484" x2="918" y2="1432"/><line class="b" x1="385" y1="560" x2="707" y2="1508"/><line class="b" x1="180" y1="632" x2="512" y2="1582"/><line class="b" x1="307.22" y1="1656.08" x2="89" y2="1030"/><line class="b" x1="160.98" y1="632.95" x2="91" y2="429"/><line class="b" x1="359.09" y1="561.83" x2="198" y2="84"/><line class="b" x1="563.56" y1="490.71" x2="423" y2="82"/><line class="b" x1="780" y1="413" x2="659" y2="84"/><line class="b" x1="1167.87" y1="274.68" x2="1098" y2="82"/><line class="b" x1="1366" y1="204" x2="1320" y2="80"/><line class="b" x1="1607" y1="222" x2="1919" y2="114"/><line class="b" x1="1683" y1="436" x2="1919" y2="353"/><line class="b" x1="1759" y1="646" x2="1919" y2="586"/><line class="b" x1="1828" y1="849" x2="1919" y2="817"/><path d="M1225.47,1594.71l18.07-6.37,1.32,3.74-13.72,4.84,3.09,8.78,12.78-4.51,1.32,3.73-12.78,4.51,3.11,8.82,13.89-4.9,1.32,3.74-18.23,6.44Z"/><path d="M1263.65,1593.91l.22-.08,2.92-13.7,5-1.78-3.9,17.58,14.12,11.22-5.07,1.79-10.84-8.68-.22.08-3,13.56-5.06,1.79L1262,1598l-14.21-11.19,5-1.77Z"/><path d="M1284.52,1606.28l.21-32.48,5-1.77,20.54,25.16-4.62,1.63-5.32-6.7-11.26,4,.05,8.56Zm13.27-17.37-8.59-10.8-.22.08.09,13.8Z"/><path d="M1309.94,1564.91l17.07,19.16.34-.11,1.27-25.64,5.28-1.86,10.16,28.81-4.13,1.46-7.36-20.85-.27.1-1.15,23.8-3.44,1.21-15.84-17.82-.27.09,7.36,20.87-4.13,1.46-10.17-28.82Z"/><path d="M1341.34,1553.83l10.27-3.62c6.7-2.36,11.39.5,13.26,5.81s0,10.52-6.68,12.88l-5.91,2.09,3.57,10.13-4.35,1.53Zm15.15,11.52c4.25-1.5,5.16-4.52,4-7.79s-3.74-5-8-3.46L1347,1556l4,11.27Z"/><path d="M1367.05,1544.76l4.35-1.53,8.85,25.07,13-4.61,1.32,3.75-17.4,6.14Z"/><path d="M1389.8,1536.74l18.07-6.38,1.32,3.74-13.72,4.84,3.1,8.78,12.77-4.5,1.32,3.73-12.78,4.5,3.12,8.83,13.88-4.9,1.32,3.74-18.23,6.43Z"/><path d="M1425,1524.33l10.28-3.63c6.68-2.35,11.29.21,13.16,5.52,1.36,3.87.64,7.43-2.43,10l10.5,9.41-5,1.75-9.7-8.84-.28.1-5.91,2.09,3.85,10.9-4.35,1.53Zm14.87,10.69c4.23-1.5,5.34-4,4.19-7.26s-3.64-4.68-7.93-3.16l-5.46,1.92,3.68,10.44Z"/><path d="M1473.28,1540.13c-7.49,2.64-15-1-18.21-10.22s.28-16.74,7.77-19.38,14.94,1,18.19,10.22S1480.74,1537.5,1473.28,1540.13Zm-9-25.63c-5,1.75-7.33,6.87-4.85,13.89s7.52,9.53,12.49,7.77,7.32-6.87,4.85-13.89S1469.19,1512.75,1464.24,1514.5Z"/><path d="M1488.38,1534.36l.2-32.47,5-1.77,20.54,25.15-4.62,1.63-5.32-6.69-11.26,4,0,8.56Zm13.26-17.37-8.58-10.8-.23.08.09,13.8Z"/><path d="M1518.68,1523.67l-10.17-28.81,9.63-3.4c8.48-3,15.47.62,18.63,9.58s0,16.24-8.76,19.34Zm7.75-7c6.57-2.32,8.47-7.29,6.06-14.12s-7-9.42-13.28-7.2l-5,1.77,7.49,21.22Z"/><polygon class="b" points="1918.5 1749.5 96 1750.5 80 80.5 1918.5 79.5 1918.5 1749.5"/><path class="b" d="M1291,1750l164-62s54-27,114-11,79,73,79,73"/><path class="b" d="M1919,1710l-35-67s-14-19-7-66,42-72,42-72"/><polygon class="d" points="1285.33 1224.49 1492.96 1150.82 1379.1 831.01 1307 856 1240.5 668.5 1110.8 711.33 1285.33 1224.49"/><polyline class="d" points="1379.1 831.01 1453 806 1375.5 587.5 1499.66 546.36 1695.56 1077.15 1492.96 1150.82"/><polyline class="d" points="1499.66 546.36 1619.5 504.5 1704 722 1775 695 1886 1006 1695.56 1077.15"/><polyline class="d" points="777.99 1043.66 574 1115 681 1435 893.84 1358.3 777.99 1043.66"/><polyline class="d" points="574 1115 518 1134 441 921 297.43 969.98 486.64 1505.8 681 1435 574 1115"/><polyline class="d" points="171.85 1263.01 372.78 1191.01 486.64 1505.8 277.33 1577.8 171.85 1263.01"/><line class="d" x1="277.33" y1="1577.8" x2="94.5" y2="1644.5"/><line class="d" x1="171.85" y1="1263.01" x2="106.54" y2="1286.45"/><polygon class="d" points="987.29 973.33 777.99 1043.66 893 1358 1094 1289 987.29 973.33"/><polyline class="d" points="102.38 78.78 212 389 86.75 433.75"/><polyline class="d" points="272.06 78.78 364 331 490.85 286.4 423 82"/><path class="d" d="M490.85,286.4C500,286,614,240,614,240L555.59,78.78"/><polyline class="d" points="880 82 903.87 147.99 1004 114 993.17 81.01"/><rect class="e" x="809.6" y="384.36" width="125.09" height="96" transform="translate(-93.15 306.73) rotate(-18.95)"/><rect class="f" x="949.48" y="214.92" width="88.19" height="96" transform="matrix(0.95, -0.32, 0.32, 0.95, -31.53, 336.98)"/><circle cx="969.5" cy="396.5" r="4.5"/><polygon class="b" points="1057.1 397 1057.7 404.51 1050.71 410.97 1053.19 418.83 1052.99 426.52 1045.98 431.64 1047.99 440.84 1040.41 444.97 1031.68 447.34 1030.92 455.85 1027.36 462.57 1022.77 468.66 1013.31 467.9 1006.81 470.57 1000.69 473.82 996.75 483.66 987.36 477.4 980.53 478.02 974.43 486.75 967 487.73 959.94 482.12 952.63 483.09 944.81 484.62 939.55 476.96 933.59 473.17 924.13 476.2 918.99 470.48 912.05 467.6 908.59 460.45 905.66 453.46 897.77 450.88 895.28 443.85 892.14 437.51 887.75 431.76 883.33 425.73 878.85 419.32 879.09 411.67 877.72 404.4 878.26 397 875.5 389.42 880.47 382.56 884.19 376.02 885.34 368.96 888.91 362.75 890.48 355.59 891.55 347.7 898.8 343.92 906.71 341.5 907.67 332.55 911.74 326 921.38 327.16 926.34 321.85 933.24 320.02 938.75 314.71 945.56 312.35 952.88 312.4 959.83 310.51 967 309.67 973.99 312.72 982.15 306.2 989.31 308.91 996.2 311.95 1002.76 315.49 1008.15 320.95 1014.05 324.98 1019.89 329.05 1026.89 331.94 1033.72 335.58 1033.78 345.03 1039.58 349.58 1041.57 356.65 1051.24 360.05 1047.12 369.49 1046.62 376.83 1051.02 382.98 1048.84 390.21 1057.1 397"/><polygon class="g" points="908.07 594.39 912.1 597.82 911.83 604.5 916.96 607.16 920.68 611.08 919.74 617.11 925.3 620.67 923.59 626.48 920.43 631.99 924.28 636.59 925.85 641.69 926.6 646.99 921.52 651.3 919.62 655.86 918.2 660.51 921.13 667.35 913.36 668.9 910.27 672.6 911.59 679.95 908.38 684.13 902.1 684.85 898.95 688.96 895.83 693.6 889.41 692.41 884.58 693.48 881.39 699.68 876 699.39 871.12 701.41 865.86 699.58 860.94 697.56 855.74 700.19 851.02 697.94 846.31 696.36 841.28 695.68 836.09 694.88 830.69 693.93 827.01 690.01 822.73 687.08 819.32 683.14 814.19 680.75 813.25 674.88 811.86 669.79 808.92 665.72 807.61 660.86 804.84 656.53 801.46 652.08 803.18 646.61 805.89 641.48 801.93 636.56 800.71 631.29 806.06 627.09 805.89 621.99 808.41 617.66 808.5 612.29 810.71 607.74 814.37 604.13 816.88 599.74 820.02 595.77 825.01 593.82 825.82 586.53 830.72 584.32 835.64 582.41 840.65 580.91 846.04 580.95 850.97 580.01 855.88 579.14 860.79 577.1 865.99 575.51 870.71 580.18 875.85 579.56 880.34 582.08 886.83 578.96 889.47 585.7 892.86 589.59 898.09 590.46 900.6 595.13 908.07 594.39"/><circle cx="866.5" cy="639.5" r="4.5"/><line class="h" x1="1295.65" y1="1285.62" x2="1276.62" y2="1229.45"/><line class="h" x1="1103.07" y1="1288.25" x2="1124" y2="1349"/><line class="h" x1="1178" y1="1331" x2="1295.65" y2="1285.62"/><line class="h" x1="1182" y1="1337" x2="1304.54" y2="1289.89"/><line class="h" x1="1178" y1="1331" x2="1181" y2="1337"/><line class="h" x1="1157.35" y1="1269.86" x2="1178" y2="1331"/><line class="h" x1="1145.09" y1="1342.22" x2="1147.3" y2="1348.75"/><line class="h" x1="1124.16" y1="1348.94" x2="1145.07" y2="1341.85"/><line class="h" x1="1145.22" y1="1343.87" x2="1178.59" y2="1332.56"/><line class="h" x1="962.31" y1="894.75" x2="921.69" y2="774.85"/><line class="h" x1="1149.21" y1="831.43" x2="1108.59" y2="711.53"/><line class="h" x1="1208.84" y1="1073.33" x2="1215.48" y2="1092.92"/><line class="h" x1="1235.5" y1="1086.13" x2="1215.48" y2="1092.92"/><line class="h" x1="1041.96" y1="1129.86" x2="1208.84" y2="1073.33"/><line class="h" x1="1208.84" y1="1073.33" x2="1202.2" y2="1053.73"/><line class="h" x1="1222.23" y1="1046.95" x2="1202.2" y2="1053.73"/><line class="h" x1="987.54" y1="969.21" x2="962.31" y2="894.75"/><line class="h" x1="1304.54" y1="1289.89" x2="1283.29" y2="1227.19"/><line class="h" x1="1096.39" y1="1290.51" x2="1117.63" y2="1353.21"/><line class="h" x1="1276.62" y1="1229.45" x2="1283.29" y2="1227.19"/><line class="h" x1="1169.1" y1="907.7" x2="1174.44" y2="905.89"/><line class="h" x1="1174.44" y1="905.89" x2="1149.21" y2="831.43"/><line class="h" x1="1096.39" y1="1290.51" x2="1103.07" y2="1288.25"/><line class="h" x1="987.54" y1="969.21" x2="992.88" y2="967.4"/><line class="d" x1="988.5" y1="972.5" x2="1175.5" y2="908.5"/><line class="h" x1="1103.07" y1="1288.25" x2="1157.35" y2="1269.86"/><line class="d" x1="1095.5" y1="1287.5" x2="1287.5" y2="1223.5"/><line class="h" x1="1235.5" y1="1086.13" x2="1283.29" y2="1227.19"/><line class="h" x1="1096.39" y1="1290.51" x2="1041.96" y2="1129.86"/><line class="h" x1="1041.96" y1="1129.86" x2="987.54" y2="969.21"/><line class="h" x1="1222.23" y1="1046.95" x2="1235.5" y2="1086.13"/><line class="h" x1="1222.23" y1="1046.95" x2="1174.44" y2="905.89"/><line class="b" x1="1568" y1="122" x2="1552" y2="80"/></svg>