<svg xmlns="http://www.w3.org/2000/svg" viewBox="0 0 2900 2100"><defs><style>.a,.b,.c,.d,.e,.f{fill:none;stroke:#000;}.a,.b,.c,.f{stroke-miterlimit:10;}.a{stroke-width:3px;}.b,.d{stroke-width:2px;}.c{stroke-width:3.9px;}.d,.e{stroke-linecap:round;stroke-linejoin:round;}</style></defs><polygon class="a" points="2870.5 2071.5 37.5 2061.5 37.5 32.5 2870.5 30.5 2870.5 2071.5"/><line class="a" x1="38" y1="1800.5" x2="2863.5" y2="1800.5"/><line class="a" x1="2304.5" y1="1797.5" x2="2304.5" y2="2068.5"/><line class="a" x1="1751.5" y1="1798" x2="1751.5" y2="2069"/><circle class="b" cx="2720.73" cy="194.49" r="58.93"/><line class="c" x1="2745.91" y1="139.48" x2="2718.83" y2="195.74"/><path d="M2765.66,120.56h-3.94L2752.34,107h-.16v13.57h-4.56V99h4l9.31,13.56h.19V99h4.54Z"/><rect x="2331.46" y="1693.8" width="20.93" height="8.49"/><rect x="2351.83" y="1702.28" width="104.66" height="8.49"/><rect x="2455.55" y="1693.8" width="104.66" height="8.49"/><rect x="2663.55" y="1693.8" width="104.66" height="8.49"/><rect x="2559.27" y="1701.34" width="104.66" height="8.49"/><rect x="2310.54" y="1702.14" width="20.93" height="8.49"/><rect x="2288.85" y="1693.66" width="20.93" height="8.49"/><rect x="2268.58" y="1701.67" width="20.93" height="8.49"/><rect x="2246.89" y="1693.19" width="20.93" height="8.49"/><path d="M2237.93,1666.36c0-8.09,3.41-12.77,9.11-12.77s9.1,4.69,9.1,12.77-3.36,12.82-9.1,12.82S2237.93,1674.49,2237.93,1666.36Zm14.48,0c0-6.19-2-9.6-5.37-9.6s-5.38,3.41-5.39,9.6,2,9.58,5.39,9.58S2252.41,1672.57,2252.41,1666.36Z"/><path d="M2356.73,1680H2353v-19.78h-.21c-.41.72-2.36,1.84-5.18,1.84V1659a6.25,6.25,0,0,0,5.66-3.82h3.49Z"/><path d="M2444,1678.25l8.41-8.71c2.67-2.83,4-4.41,4-6.6,0-2.48-1.92-4-4.44-4a4.12,4.12,0,0,0-4.39,4.42H2444c0-4.54,3.4-7.55,8-7.55s7.94,3.06,7.94,7c0,2.78-1.3,5-5.85,9.57l-4.94,5.17v.18h11.19V1681H2444Z"/><path d="M2536.35,1675.43h3.81c.14,2.21,2.24,3.59,4.93,3.59,2.93,0,5-1.64,5-4s-2-4.25-5.44-4.25h-2.1v-3h2.1c2.76,0,4.69-1.58,4.67-4s-1.65-3.84-4.18-3.84-4.59,1.39-4.67,3.67h-3.63c.12-4,3.79-6.79,8.35-6.79,4.78,0,7.77,3.11,7.76,6.76a5.44,5.44,0,0,1-4.27,5.5v.19a5.67,5.67,0,0,1,5.19,5.91c0,4.13-3.71,7.16-8.78,7.16S2536.51,1679.48,2536.35,1675.43Z"/><path d="M2647.37,1673.55l10.73-17h4.63v16.82H2666v3.17h-3.28v4.86h-3.58v-4.86h-11.78Zm11.8-12.49H2659l-7.68,12.15v.2h7.87Z"/><path d="M2759,1675h3.64a4.25,4.25,0,0,0,4.5,3.66,4.88,4.88,0,0,0,4.93-5.14,5,5,0,0,0-5.09-5.27,6.6,6.6,0,0,0-4.11,1.41l-3.43-.51,1.39-12.52h13.66v3.22H2763.9l-.79,7h.15a6.67,6.67,0,0,1,4.52-1.65c4.53,0,7.88,3.49,7.86,8.3a8.15,8.15,0,0,1-8.55,8.37C2762.53,1681.78,2759.1,1678.91,2759,1675Z"/><line class="a" x1="1752" y1="1927.5" x2="2304" y2="1927.5"/><path d="M1815.9,2020.91h-6v-31.29h-.32c-.66,1.16-3.74,2.92-8.19,2.92v-4.87a9.85,9.85,0,0,0,8.93-6h5.53Z"/><path d="M1826.54,1992.52a3.84,3.84,0,1,1,3.83,3.84A3.84,3.84,0,0,1,1826.54,1992.52Zm0,19.68a3.84,3.84,0,1,1,3.83,3.84A3.84,3.84,0,0,1,1826.54,2012.2Z"/><path d="M1841.9,2010.67h5.75c.31,3.37,3.32,5.79,7.12,5.79,4.51,0,7.78-3.42,7.78-8.13a8,8,0,0,0-8-8.33,10.4,10.4,0,0,0-6.5,2.23l-5.43-.81,2.2-19.79h21.6v5.08h-16.67l-1.24,11h.23a10.56,10.56,0,0,1,7.15-2.61c7.15,0,12.45,5.52,12.43,13.12s-5.62,13.23-13.52,13.23C1847.56,2021.44,1842.13,2016.92,1841.9,2010.67Z"/><path d="M1874.55,2001.29c0-12.8,5.39-20.2,14.41-20.2s14.38,7.42,14.38,20.2-5.31,20.27-14.38,20.27S1874.55,2014.14,1874.55,2001.29Zm22.91,0c0-9.79-3.23-15.18-8.5-15.18s-8.5,5.39-8.52,15.18,3.21,15.15,8.52,15.15S1897.46,2011.11,1897.46,2001.29Z"/><path d="M1970.31,1998.6c0,8.09-1.55,16.15-9.74,16.3-3.28.12-6.62-1.24-7.08-4.33h-.23c-.9,2.26-3.74,4.3-8.11,4.1-6.47-.25-10.5-5.52-10.5-13.4,0-7.56,4.76-12.15,10.3-12.8,4-.48,7.35,1,7.93,2.73h.24v-2.15h4.72v17.8c0,2,1.1,3.62,3.07,3.62,3.49,0,4.57-3.74,4.55-12.06,0-9.74-6.68-17-17.9-17-12.27,0-19.12,7.89-19.12,20.09,0,12.73,6.92,19.85,19.83,19.85a33.45,33.45,0,0,0,10.34-2l1.34,4.2a33.12,33.12,0,0,1-11.93,2.32c-15.86,0-24.66-8.88-24.68-24.43,0-15.12,9.05-24.5,24.41-24.5C1962.41,1977,1970.31,1987.05,1970.31,1998.6Zm-30.8,2.44c0,4.64,1.74,8.93,6.75,8.93s6.92-3,6.9-9c0-5.83-2.13-7.9-6.83-7.9C1942,1993.12,1939.53,1996.62,1939.51,2001Z"/><path d="M1974.29,2020.91l14.13-39.28h6.85l14.14,39.28h-6.29l-3.59-10.4h-15.34l-3.61,10.4Zm23.51-15.39-5.79-16.76h-.31l-5.79,16.76Z"/><path d="M2014.33,2010.67h6c.23,3.49,3.55,5.67,7.81,5.67,4.62,0,7.94-2.59,7.94-6.4s-3.15-6.72-8.59-6.72h-3.32v-4.83h3.32c4.35,0,7.4-2.49,7.38-6.29,0-3.63-2.61-6.06-6.62-6.06-3.85,0-7.25,2.18-7.38,5.79h-5.74c.2-6.39,6-10.74,13.2-10.74,7.56,0,12.29,4.93,12.27,10.7a8.58,8.58,0,0,1-6.75,8.69v.31c5.22.8,8.23,4.37,8.21,9.34,0,6.52-5.87,11.31-13.88,11.31S2014.58,2017.07,2014.33,2010.67Z"/><path d="M80.39,1842.5h28v6.63h-20V1861h18.13v6.63H88.29v18.53h-7.9Z"/><path d="M122.9,1886.13h-7.72V1842.5h7.72Z"/><path d="M129.42,1869.9c0-10.14,6.09-16.92,15.68-16.92s15.67,6.78,15.67,16.92-6.09,16.87-15.67,16.87S129.42,1880,129.42,1869.9Zm23.54,0c0-6-2.6-10.78-7.82-10.78s-7.91,4.79-7.91,10.78,2.6,10.71,7.91,10.71S153,1875.86,153,1869.88Z"/><path d="M165.9,1869.9c0-10.14,6.09-16.92,15.67-16.92s15.68,6.78,15.68,16.92-6.09,16.87-15.68,16.87S165.9,1880,165.9,1869.9Zm23.53,0c0-6-2.6-10.78-7.81-10.78s-7.91,4.79-7.91,10.78,2.6,10.71,7.91,10.71S189.43,1875.86,189.43,1869.88Z"/><path d="M203.78,1853.41h7.48v5.45h.34a8.52,8.52,0,0,1,12.46-4.73l-2.39,6.39a7,7,0,0,0-3-.68,6.9,6.9,0,0,0-7.14,7.05v19.24h-7.71Z"/><path d="M247.43,1862.83c-.6-2.16-2.47-4.09-6-4.09-3.21,0-5.66,1.53-5.64,3.74,0,1.9,1.3,3,4.62,3.8l5.58,1.19c6.18,1.34,9.18,4.2,9.2,8.86,0,6.2-5.79,10.44-14,10.44-8,0-13.08-3.56-14-9.57l7.52-.72c.66,2.94,3,4.47,6.5,4.47s6.09-1.68,6.09-3.92c0-1.85-1.4-3.06-4.41-3.72l-5.58-1.18c-6.28-1.3-9.22-4.45-9.2-9.22,0-6.05,5.35-9.93,13.23-9.93,7.67,0,12.1,3.54,13.16,9.08Z"/><path d="M276.44,1853.41H284v5.41h.45a9.7,9.7,0,0,1,9.35-5.84c7.56,0,13.5,5.93,13.5,16.83s-5.77,16.89-13.48,16.89a9.84,9.84,0,0,1-9.37-5.73h-.32v17.43h-7.71Zm15.25,27c5.09,0,7.77-4.48,7.77-10.61s-2.64-10.46-7.77-10.46c-5,0-7.69,4.11-7.69,10.46S286.77,1880.38,291.69,1880.38Z"/><path d="M321.62,1886.13h-7.71V1842.5h7.71Z"/><path d="M328,1877c0-7.37,6.07-9.27,12.42-10,5.77-.62,8.09-.72,8.09-2.94v-.13c0-3.21-2-5-5.54-5-3.77,0-5.94,1.92-6.71,4.16l-7.2-1c1.71-6,7-9,13.87-9,6.24,0,13.29,2.6,13.29,11.25v21.9h-7.41v-4.5h-.25c-1.41,2.75-4.48,5.16-9.61,5.16C332.73,1886.79,328,1883.38,328,1877Zm20.53-2.56v-3.85c-1,.81-5,1.32-7.07,1.59-3.45.49-6,1.73-6,4.69s2.3,4.3,5.52,4.3C345.61,1881.12,348.55,1878,348.55,1874.39Z"/><path d="M371.74,1886.13H364v-32.72h7.37V1859h.38c1.49-3.64,4.86-6,9.76-6,6.75,0,11.22,4.48,11.2,12.32v20.83H385v-19.64c0-4.37-2.39-7-6.37-7s-6.92,2.73-6.92,7.46Z"/><path d="M419.44,1862.83c-.59-2.16-2.47-4.09-6-4.09-3.21,0-5.66,1.53-5.64,3.74,0,1.9,1.3,3,4.62,3.8l5.58,1.19c6.18,1.34,9.18,4.2,9.2,8.86,0,6.2-5.79,10.44-14,10.44-8,0-13.08-3.56-14-9.57l7.52-.72c.66,2.94,3,4.47,6.5,4.47s6.09-1.68,6.09-3.92c0-1.85-1.4-3.06-4.41-3.72l-5.58-1.18c-6.28-1.3-9.22-4.45-9.2-9.22,0-6.05,5.35-9.93,13.23-9.93,7.67,0,12.1,3.54,13.16,9.08Z"/><path d="M459.58,1871.13h-30v-6.34h30Z"/><path d="M478.44,1853.41H486v5.41h.44a9.73,9.73,0,0,1,9.36-5.84c7.56,0,13.5,5.93,13.5,16.83s-5.77,16.89-13.48,16.89a9.87,9.87,0,0,1-9.38-5.73h-.31v17.43h-7.72Zm15.26,27c5.09,0,7.77-4.48,7.77-10.61s-2.64-10.46-7.77-10.46c-5,0-7.69,4.11-7.69,10.46S488.78,1880.38,493.7,1880.38Z"/><path d="M515.92,1853.41h7.48v5.45h.34a8.52,8.52,0,0,1,12.46-4.73l-2.38,6.39a7.05,7.05,0,0,0-3.05-.68,6.9,6.9,0,0,0-7.14,7.05v19.24h-7.71Z"/><path d="M538,1869.9c0-10.14,6.09-16.92,15.67-16.92s15.68,6.78,15.68,16.92-6.09,16.87-15.68,16.87S538,1880,538,1869.9Zm23.53,0c0-6-2.59-10.78-7.81-10.78s-7.91,4.79-7.91,10.78,2.6,10.71,7.91,10.71S561.51,1875.86,561.51,1869.88Z"/><path d="M575.86,1853.41h7.58v5.41h.45a9.71,9.71,0,0,1,9.35-5.84c7.56,0,13.51,5.93,13.51,16.83s-5.78,16.89-13.49,16.89a9.85,9.85,0,0,1-9.37-5.73h-.32v17.43h-7.71Zm15.25,27c5.09,0,7.78-4.48,7.78-10.61s-2.64-10.46-7.78-10.46c-5,0-7.69,4.11-7.69,10.46S586.19,1880.38,591.11,1880.38Z"/><path d="M611.93,1869.9c0-10.14,6.09-16.92,15.68-16.92s15.68,6.78,15.68,16.92-6.09,16.87-15.68,16.87S611.93,1880,611.93,1869.9Zm23.54,0c0-6-2.6-10.78-7.82-10.78s-7.9,4.79-7.9,10.78,2.6,10.71,7.9,10.71S635.47,1875.86,635.47,1869.88Z"/><path d="M668.65,1862.83c-.6-2.16-2.48-4.09-6-4.09-3.22,0-5.67,1.53-5.65,3.74,0,1.9,1.3,3,4.62,3.8l5.59,1.19c6.17,1.34,9.18,4.2,9.2,8.86,0,6.2-5.8,10.44-14,10.44-8,0-13.07-3.56-14-9.57l7.52-.72c.66,2.94,3,4.47,6.49,4.47s6.1-1.68,6.1-3.92c0-1.85-1.41-3.06-4.41-3.72l-5.58-1.18c-6.29-1.3-9.23-4.45-9.21-9.22,0-6.05,5.35-9.93,13.23-9.93,7.67,0,12.1,3.54,13.17,9.08Z"/><path d="M681.35,1870c0-10.1,6.11-17,15.49-17,8,0,14.95,5,14.95,16.53v2.37H689c.06,5.6,3.36,8.88,8.35,8.88,3.32,0,5.88-1.45,6.92-4.22l7.2.81c-1.36,5.69-6.6,9.42-14.23,9.42C687.38,1886.77,681.35,1880.23,681.35,1870Zm23-3.28c0-4.45-3-7.69-7.46-7.69a7.86,7.86,0,0,0-7.92,7.69Z"/><path d="M717,1869.81c0-10.9,5.95-16.83,13.51-16.83a9.71,9.71,0,0,1,9.35,5.84h.32V1842.5h7.73v43.63H740.3V1881h-.47a9.85,9.85,0,0,1-9.37,5.73C722.75,1886.7,717,1880.59,717,1869.81Zm23.33,0c0-6.35-2.73-10.46-7.69-10.46-5.13,0-7.78,4.37-7.78,10.46s2.69,10.61,7.78,10.61C737.53,1880.38,740.3,1876.12,740.3,1869.77Z"/><path d="M1808.68,1883.77h-6v-31.29h-.33c-.65,1.15-3.74,2.92-8.19,2.92v-4.87a9.85,9.85,0,0,0,8.94-6h5.53Z"/><path d="M1818.57,1864.14c0-12.79,5.39-20.19,14.4-20.19s14.39,7.42,14.39,20.19-5.32,20.28-14.39,20.28S1818.57,1877,1818.57,1864.14Zm22.9,0c0-9.78-3.22-15.17-8.5-15.17s-8.5,5.39-8.51,15.17,3.2,15.16,8.51,15.16S1841.47,1874,1841.47,1864.14Z"/><path d="M1868,1883.77h-6v-31.29h-.33c-.65,1.15-3.74,2.92-8.18,2.92v-4.87a9.84,9.84,0,0,0,8.93-6H1868Z"/><path d="M1896,1866.62h-17.41v-5H1896Z"/><path d="M1904.15,1844.48h14c9.13,0,13.6,5.49,13.6,12.72s-4.51,12.76-13.62,12.76h-8.05v13.81h-5.93Zm13.44,20.45c5.8,0,8.2-3.28,8.2-7.73s-2.4-7.63-8.27-7.63h-7.44v15.36Z"/><path d="M1953.61,1866.62h-17.42v-5h17.42Z"/><path d="M1960.45,1864.14c0-12.79,5.39-20.19,14.41-20.19s14.38,7.42,14.38,20.19-5.31,20.28-14.38,20.28S1960.45,1877,1960.45,1864.14Zm22.9,0c0-9.78-3.22-15.17-8.49-15.17s-8.5,5.39-8.52,15.17,3.2,15.16,8.52,15.16S1983.35,1874,1983.35,1864.14Z"/><path d="M1996.06,1879.47l13.29-13.77c4.22-4.47,6.29-7,6.29-10.44,0-3.91-3-6.36-7-6.36-4.24,0-7,2.76-6.94,7H1996c0-7.18,5.37-11.93,12.72-11.93s12.54,4.83,12.54,11.14c0,4.39-2,7.87-9.24,15.13l-7.81,8.18v.28h17.69v5.09h-25.86Z"/><path d="M2338.89,1836.84h8.55c5.58,0,8.31,3.35,8.31,7.77s-2.75,7.79-8.32,7.79h-4.92v8.44h-3.62Zm8.21,12.49c3.54,0,5-2,5-4.72s-1.47-4.66-5.06-4.66h-4.54v9.38Z"/><path d="M2359.7,1842.84h3.39v2.86h.18a4.67,4.67,0,0,1,4.57-3.13,4.15,4.15,0,0,1,2.36.66l-1.13,2.93a3.57,3.57,0,0,0-1.62-.35,4,4,0,0,0-4.25,4v11h-3.5Z"/><path d="M2371.38,1851.92c0-5.6,3.32-9.31,8.39-9.31s8.39,3.71,8.39,9.31-3.31,9.29-8.39,9.29S2371.38,1857.49,2371.38,1851.92Zm13.24,0c0-3.44-1.54-6.37-4.83-6.37s-4.87,2.93-4.87,6.37,1.55,6.35,4.87,6.35S2384.62,1855.37,2384.62,1851.91Z"/><path d="M2392.07,1842.84h3.42v2.92h.29a5.41,5.41,0,0,1,5.17-3.15c4.35,0,7.56,3.43,7.56,9.27s-3.17,9.31-7.53,9.31a5.48,5.48,0,0,1-5.2-3.15h-.21v9.55h-3.5Zm8.13,15.37c3.13,0,4.77-2.76,4.77-6.37s-1.59-6.26-4.77-6.26-4.7,2.5-4.7,6.26S2397.19,1858.21,2400.2,1858.21Z"/><path d="M2411.62,1852c0-5.53,3.31-9.35,8.33-9.35,4.07,0,8,2.54,8,9v1.25h-12.79c.09,3.47,2.11,5.41,5.11,5.41a4.08,4.08,0,0,0,4.15-2.57l3.31.6c-.8,2.93-3.57,4.87-7.5,4.87C2414.88,1861.21,2411.62,1857.55,2411.62,1852Zm12.86-1.69a4.45,4.45,0,0,0-4.51-4.77,4.84,4.84,0,0,0-4.84,4.77Z"/><path d="M2431.82,1842.84h3.38v2.86h.19a4.69,4.69,0,0,1,4.57-3.13c.45,0,1.14,0,1.49.08V1846a7.69,7.69,0,0,0-1.83-.22,4,4,0,0,0-4.3,4.06v11h-3.5Z"/><path d="M2454,1845.65h-3.69v9.91c0,2,1,2.4,2.16,2.4a6.31,6.31,0,0,0,1.23-.15l.63,2.89a7,7,0,0,1-2.27.38c-2.77.05-5.26-1.53-5.25-4.8v-10.63h-2.64v-2.81h2.64v-4.31h3.5v4.31H2454Z"/><path d="M2457.63,1867.43l.85-2.91c1.93.52,3.18.32,4.06-2l.52-1.41-6.59-18.24h3.75l4.56,14h.19l4.56-14h3.76l-7.5,20.63c-1,2.8-2.91,4.37-5.81,4.37A6.32,6.32,0,0,1,2457.63,1867.43Z"/><path d="M2484.48,1855.76c0-4.09,3.49-5,6.9-5.38,3.24-.38,4.55-.35,4.55-1.63v-.08c0-2-1.16-3.23-3.42-3.23a4.21,4.21,0,0,0-4.19,2.51l-3.29-.75c1.17-3.28,4.17-4.59,7.43-4.59,2.86,0,7,1,7,6.28v11.95H2496v-2.46h-.14a5.62,5.62,0,0,1-5.32,2.86C2487.14,1861.24,2484.48,1859.29,2484.48,1855.76Zm11.46-1.41V1852c-.5.5-3.2.81-4.33,1-2,.27-3.7.94-3.7,2.81s1.43,2.63,3.41,2.63C2494.24,1858.43,2495.94,1856.48,2495.94,1854.35Z"/><path d="M2503.32,1851.88c0-5.84,3.2-9.27,7.55-9.27a5.43,5.43,0,0,1,5.18,3.15h.21v-8.92h3.51v24h-3.43V1858h-.29a5.48,5.48,0,0,1-5.2,3.15C2506.48,1861.19,2503.32,1857.7,2503.32,1851.88Zm13,0c0-3.76-1.64-6.26-4.7-6.26s-4.76,2.69-4.76,6.26,1.63,6.37,4.76,6.37S2516.32,1855.63,2516.32,1851.84Z"/><path d="M2524,1851.88c0-5.84,3.2-9.27,7.55-9.27a5.43,5.43,0,0,1,5.18,3.15h.21v-8.92h3.5v24H2537V1858h-.29a5.48,5.48,0,0,1-5.2,3.15C2527.12,1861.19,2524,1857.7,2524,1851.88Zm13,0c0-3.76-1.64-6.26-4.7-6.26s-4.76,2.69-4.76,6.26,1.63,6.37,4.76,6.37S2537,1855.63,2537,1851.84Z"/><path d="M2545.41,1842.84h3.38v2.86h.19a4.67,4.67,0,0,1,4.57-3.13,4.15,4.15,0,0,1,2.36.66l-1.13,2.93a3.58,3.58,0,0,0-1.63-.35,4,4,0,0,0-4.24,4v11h-3.5Z"/><path d="M2557.09,1852c0-5.53,3.3-9.35,8.32-9.35,4.08,0,8,2.54,8,9v1.25h-12.8c.1,3.47,2.11,5.41,5.11,5.41a4.08,4.08,0,0,0,4.15-2.57l3.32.6c-.8,2.93-3.58,4.87-7.5,4.87C2560.35,1861.21,2557.09,1857.55,2557.09,1852Zm12.86-1.69a4.46,4.46,0,0,0-4.52-4.77,4.84,4.84,0,0,0-4.84,4.77Z"/><path d="M2587.59,1847.8a3.46,3.46,0,0,0-3.59-2.42c-2,0-3.5,1-3.48,2.37,0,1.22.84,1.89,2.82,2.36l2.86.65c3.3.77,4.92,2.34,4.92,4.88,0,3.26-3,5.57-7.36,5.57-4,0-6.69-1.8-7.28-5l3.39-.51c.42,1.77,1.77,2.67,3.87,2.67,2.3,0,3.78-1.09,3.78-2.48,0-1.13-.81-1.9-2.54-2.29l-3.05-.67c-3.37-.75-4.92-2.45-4.92-5,0-3.19,2.88-5.33,6.95-5.33,3.89,0,6.08,1.83,6.81,4.63Z"/><path d="M2605.28,1847.8a3.48,3.48,0,0,0-3.6-2.42c-2,0-3.49,1-3.48,2.37,0,1.22.84,1.89,2.82,2.36l2.86.65c3.31.77,4.92,2.34,4.92,4.88,0,3.26-3,5.57-7.36,5.57-4,0-6.69-1.8-7.27-5l3.38-.51c.43,1.77,1.77,2.67,3.87,2.67,2.3,0,3.79-1.09,3.79-2.48,0-1.13-.81-1.9-2.55-2.29l-3-.67c-3.38-.75-4.93-2.45-4.93-5,0-3.19,2.89-5.33,6.95-5.33,3.89,0,6.09,1.83,6.81,4.63Z"/><line class="d" x1="747.94" y1="1509.37" x2="747.94" y2="1339.24"/><line class="d" x1="248.64" y1="1527.86" x2="325.06" y2="1527.86"/><line class="d" x1="267.14" y1="1339.24" x2="267.14" y2="1509.37"/><line class="d" x1="766.43" y1="1527.86" x2="766.43" y2="1339.24"/><line class="d" x1="248.64" y1="1339.24" x2="248.64" y2="1527.86"/><line class="d" x1="417.52" y1="1509.37" x2="747.94" y2="1509.37"/><line class="d" x1="417.52" y1="1527.86" x2="766.43" y2="1527.86"/><line class="d" x1="417.52" y1="1509.37" x2="417.52" y2="1527.86"/><line class="d" x1="417.52" y1="1339.24" x2="325.06" y2="1339.24"/><line class="e" x1="417.52" y1="1339.24" x2="417.52" y2="1509.37"/><line class="d" x1="325.06" y1="1509.37" x2="325.06" y2="1527.86"/><line class="d" x1="267.14" y1="1509.37" x2="325.06" y2="1509.37"/><line class="d" x1="325.06" y1="1527.86" x2="417.52" y2="1527.86"/><line class="d" x1="270.83" y1="229.68" x2="597.04" y2="229.68"/><line class="d" x1="695.65" y1="1339.24" x2="603.18" y2="1339.24"/><line class="d" x1="374.39" y1="1078.54" x2="270.83" y2="1078.54"/><line class="d" x1="374.39" y1="1056.34" x2="270.83" y2="1056.34"/><line class="d" x1="374.39" y1="1034.15" x2="270.83" y2="1034.15"/><line class="d" x1="374.39" y1="1011.96" x2="270.83" y2="1011.96"/><line class="d" x1="374.39" y1="989.77" x2="270.83" y2="989.77"/><line class="d" x1="374.39" y1="967.58" x2="270.83" y2="967.58"/><line class="d" x1="374.39" y1="945.39" x2="270.83" y2="945.39"/><line class="d" x1="374.39" y1="1145.11" x2="270.83" y2="1145.11"/><line class="d" x1="374.39" y1="1122.92" x2="270.83" y2="1122.92"/><line class="d" x1="374.39" y1="1100.73" x2="270.83" y2="1100.73"/><polyline class="e" points="696 452.49 696 297.54 598.31 297.54 598.31 241.72"/><line class="d" x1="603.18" y1="1339.24" x2="603.18" y2="1317"/><line class="d" x1="744.24" y1="906.51" x2="744.24" y2="1317.05"/><line class="d" x1="270.83" y1="1317.05" x2="270.83" y2="1145.11"/><line class="d" x1="325.06" y1="1339.24" x2="325.06" y2="1317"/><line class="d" x1="248.64" y1="451.59" x2="248.64" y2="895.42"/><line class="d" x1="325.06" y1="473.78" x2="325.06" y2="451.59"/><line class="d" x1="766.43" y1="451.59" x2="766.43" y2="229.68"/><line class="d" x1="270.83" y1="451.59" x2="270.83" y2="303.65"/><line class="d" x1="597.04" y1="251.21" x2="744.24" y2="251.21"/><line class="d" x1="374.39" y1="752.33" x2="374.39" y2="812.24"/><line class="d" x1="374.39" y1="1145.11" x2="396.58" y2="1145.11"/><line class="d" x1="396.58" y1="748.63" x2="374.39" y2="748.63"/><line class="d" x1="270.83" y1="1078.54" x2="270.83" y2="1056.34"/><line class="d" x1="270.83" y1="1056.34" x2="270.83" y2="1034.15"/><line class="d" x1="270.83" y1="1034.15" x2="270.83" y2="1011.96"/><line class="d" x1="270.83" y1="1011.96" x2="270.83" y2="989.77"/><line class="d" x1="270.83" y1="989.77" x2="270.83" y2="967.58"/><line class="d" x1="270.83" y1="967.58" x2="270.83" y2="945.39"/><line class="d" x1="270.83" y1="945.39" x2="270.83" y2="923.2"/><line class="d" x1="270.83" y1="1145.11" x2="270.83" y2="1122.92"/><line class="d" x1="270.83" y1="1122.92" x2="270.83" y2="1100.73"/><line class="d" x1="270.83" y1="1100.73" x2="270.83" y2="1078.54"/><line class="d" x1="374.39" y1="748.63" x2="270.83" y2="748.63"/><line class="d" x1="744.24" y1="884.32" x2="695.65" y2="884.32"/><line class="d" x1="695.65" y1="906.51" x2="744.24" y2="906.51"/><line class="d" x1="603.18" y1="1339.24" x2="417.52" y2="1339.24"/><line class="d" x1="248.64" y1="1339.24" x2="248.64" y2="895.42"/><line class="d" x1="695.65" y1="1339.24" x2="695.65" y2="1317"/><line class="d" x1="417.52" y1="1339.24" x2="417.52" y2="1317"/><line class="d" x1="695.65" y1="451.59" x2="695.65" y2="473.78"/><line class="d" x1="270.83" y1="473.78" x2="325.06" y2="473.78"/><line class="d" x1="695.65" y1="473.78" x2="744.24" y2="473.78"/><line class="d" x1="766.43" y1="229.68" x2="597.04" y2="229.68"/><line class="d" x1="270.83" y1="229.68" x2="248.64" y2="229.68"/><line class="d" x1="248.64" y1="229.68" x2="248.64" y2="451.59"/><line class="d" x1="248.64" y1="451.59" x2="270.83" y2="451.59"/><line class="d" x1="744.24" y1="451.59" x2="766.43" y2="451.59"/><line class="d" x1="744.24" y1="251.21" x2="744.24" y2="451.59"/><line class="d" x1="270.83" y1="923.2" x2="374.39" y2="923.2"/><line class="d" x1="374.39" y1="923.2" x2="374.39" y2="812.24"/><line class="d" x1="270.83" y1="748.63" x2="270.83" y2="752.33"/><line class="d" x1="374.39" y1="752.33" x2="374.39" y2="748.63"/><line class="d" x1="597.04" y1="229.68" x2="597.04" y2="251.87"/><line class="d" x1="597.04" y1="251.87" x2="597.04" y2="251.21"/><line class="d" x1="396.58" y1="1145.11" x2="396.58" y2="895.42"/><line class="d" x1="396.58" y1="895.42" x2="396.58" y2="748.63"/><line class="d" x1="695.65" y1="884.32" x2="695.65" y2="895.42"/><line class="d" x1="695.65" y1="895.42" x2="695.65" y2="906.51"/><line class="d" x1="766.43" y1="1339.24" x2="747.94" y2="1339.24"/><line class="d" x1="747.94" y1="1339.24" x2="695.65" y2="1339.24"/><line class="d" x1="325.06" y1="1339.24" x2="267.14" y2="1339.24"/><line class="d" x1="267.14" y1="1339.24" x2="248.64" y2="1339.24"/><line class="d" x1="744.24" y1="473.78" x2="744.24" y2="884.32"/><line class="d" x1="744.24" y1="451.59" x2="695.65" y2="451.59"/><line class="d" x1="325.06" y1="451.59" x2="270.83" y2="451.59"/><line class="d" x1="270.83" y1="303.65" x2="270.83" y2="251.87"/><line class="d" x1="270.83" y1="251.87" x2="270.83" y2="229.68"/><line class="d" x1="270.83" y1="748.63" x2="270.83" y2="473.78"/><line class="d" x1="270.83" y1="812.24" x2="270.83" y2="752.33"/><line class="d" x1="374.39" y1="1122.92" x2="374.39" y2="1145.11"/><line class="d" x1="374.39" y1="1011.96" x2="374.39" y2="1034.15"/><line class="d" x1="374.39" y1="1034.15" x2="374.39" y2="1056.34"/><line class="d" x1="374.39" y1="1056.34" x2="374.39" y2="1078.54"/><line class="d" x1="374.39" y1="1078.54" x2="374.39" y2="1100.73"/><line class="d" x1="374.39" y1="1100.73" x2="374.39" y2="1122.92"/><line class="d" x1="374.39" y1="989.77" x2="374.39" y2="1011.96"/><line class="d" x1="374.39" y1="967.58" x2="374.39" y2="989.77"/><line class="d" x1="374.39" y1="945.39" x2="374.39" y2="967.58"/><line class="d" x1="374.39" y1="923.2" x2="374.39" y2="945.39"/><line class="d" x1="744.24" y1="1317.05" x2="270.83" y2="1317.05"/><line class="d" x1="766.43" y1="895.42" x2="766.43" y2="1339.24"/><line class="d" x1="603.18" y1="1327.74" x2="695.65" y2="1327.74"/><line class="d" x1="325.06" y1="1327.74" x2="417.52" y2="1327.74"/><line class="d" x1="270.83" y1="812.24" x2="270.83" y2="923.2"/><line class="d" x1="766.43" y1="451.59" x2="766.43" y2="895.42"/><line class="d" x1="1634.62" y1="1512.04" x2="1634.62" y2="1341.9"/><line class="d" x1="1135.32" y1="1530.53" x2="1211.74" y2="1530.53"/><line class="d" x1="1153.81" y1="1341.9" x2="1153.81" y2="1512.04"/><line class="d" x1="1653.11" y1="1530.53" x2="1653.11" y2="1341.9"/><line class="d" x1="1135.32" y1="1341.9" x2="1135.32" y2="1530.53"/><line class="d" x1="1304.2" y1="1512.04" x2="1634.62" y2="1512.04"/><line class="d" x1="1304.2" y1="1530.53" x2="1653.11" y2="1530.53"/><line class="d" x1="1304.2" y1="1512.04" x2="1304.2" y2="1530.53"/><line class="d" x1="1304.2" y1="1341.9" x2="1304.2" y2="1512.04"/><line class="d" x1="1211.74" y1="1512.04" x2="1211.74" y2="1530.53"/><line class="d" x1="1153.81" y1="1512.04" x2="1211.74" y2="1512.04"/><line class="d" x1="1211.74" y1="1530.53" x2="1304.2" y2="1530.53"/><line class="d" x1="1582.33" y1="1341.9" x2="1489.86" y2="1341.9"/><line class="d" x1="1304.2" y1="1341.9" x2="1211.74" y2="1341.9"/><line class="d" x1="1582.33" y1="454.26" x2="1489.86" y2="454.26"/><line class="d" x1="1304.2" y1="454.26" x2="1211.74" y2="454.26"/><line class="d" x1="1157.51" y1="835.95" x2="1261.07" y2="835.95"/><line class="d" x1="1653.11" y1="454.26" x2="1653.11" y2="232.35"/><line class="d" x1="1135.32" y1="454.26" x2="1135.32" y2="232.35"/><line class="d" x1="1638.32" y1="454.26" x2="1638.32" y2="247.14"/><line class="d" x1="1150.12" y1="247.14" x2="1150.12" y2="454.26"/><line class="d" x1="1638.32" y1="247.14" x2="1150.12" y2="247.14"/><line class="d" x1="1584.01" y1="399.72" x2="1528.53" y2="399.72"/><line class="d" x1="1584.01" y1="290.72" x2="1584.01" y2="399.72"/><line class="d" x1="1528.53" y1="290.72" x2="1584.01" y2="290.72"/><line class="d" x1="1528.53" y1="399.72" x2="1528.53" y2="290.72"/><line class="d" x1="1580.31" y1="396.02" x2="1580.31" y2="294.42"/><line class="d" x1="1580.31" y1="294.42" x2="1532.23" y2="294.42"/><line class="d" x1="1532.23" y1="294.42" x2="1532.23" y2="396.02"/><line class="d" x1="1532.23" y1="396.02" x2="1580.31" y2="396.02"/><line class="d" x1="1261.07" y1="1081.2" x2="1157.51" y2="1081.2"/><line class="d" x1="1261.07" y1="1059.01" x2="1157.51" y2="1059.01"/><line class="d" x1="1261.07" y1="1036.82" x2="1157.51" y2="1036.82"/><line class="d" x1="1261.07" y1="1014.63" x2="1157.51" y2="1014.63"/><line class="d" x1="1261.07" y1="992.44" x2="1157.51" y2="992.44"/><line class="d" x1="1261.07" y1="970.25" x2="1157.51" y2="970.25"/><line class="d" x1="1261.07" y1="948.06" x2="1157.51" y2="948.06"/><line class="d" x1="1261.07" y1="925.87" x2="1157.51" y2="925.87"/><line class="d" x1="1261.07" y1="903.67" x2="1157.51" y2="903.67"/><line class="d" x1="1261.07" y1="881.48" x2="1157.51" y2="881.48"/><line class="d" x1="1261.07" y1="859.29" x2="1157.51" y2="859.29"/><line class="d" x1="1261.07" y1="837.1" x2="1157.51" y2="837.1"/><line class="d" x1="1261.07" y1="1125.58" x2="1157.51" y2="1125.58"/><line class="d" x1="1261.07" y1="1103.39" x2="1157.51" y2="1103.39"/><line class="d" x1="1261.07" y1="898.08" x2="1261.07" y2="881.48"/><line class="d" x1="1261.07" y1="1147.78" x2="1261.07" y2="1125.58"/><line class="d" x1="1261.07" y1="1081.2" x2="1261.07" y2="1059.01"/><line class="d" x1="1261.07" y1="881.48" x2="1261.07" y2="859.29"/><line class="d" x1="1261.07" y1="1125.58" x2="1261.07" y2="1103.39"/><line class="d" x1="1261.07" y1="1103.39" x2="1261.07" y2="1081.2"/><line class="d" x1="1261.07" y1="1059.01" x2="1261.07" y2="1036.82"/><line class="d" x1="1261.07" y1="859.29" x2="1261.07" y2="837.1"/><line class="d" x1="1261.07" y1="837.1" x2="1261.07" y2="835.95"/><line class="d" x1="1261.07" y1="1036.82" x2="1261.07" y2="1014.63"/><line class="d" x1="1261.07" y1="1014.63" x2="1261.07" y2="992.44"/><line class="d" x1="1261.07" y1="992.44" x2="1261.07" y2="970.25"/><line class="d" x1="1261.07" y1="970.25" x2="1261.07" y2="948.06"/><line class="d" x1="1261.07" y1="948.06" x2="1261.07" y2="925.87"/><line class="d" x1="1261.07" y1="925.87" x2="1261.07" y2="903.67"/><line class="d" x1="1261.07" y1="903.67" x2="1261.07" y2="898.08"/><line class="d" x1="1135.32" y1="232.35" x2="1653.11" y2="232.35"/><line class="d" x1="1489.86" y1="1341.9" x2="1489.86" y2="1320"/><line class="d" x1="1211.74" y1="1341.9" x2="1211.74" y2="1320"/><line class="d" x1="1653.11" y1="1319.71" x2="1653.11" y2="898.08"/><line class="d" x1="1630.92" y1="1319.71" x2="1157.51" y2="1319.71"/><line class="d" x1="1582.33" y1="454.26" x2="1582.33" y2="476"/><line class="d" x1="1304.2" y1="454.26" x2="1304.2" y2="476"/><line class="d" x1="1135.32" y1="476.45" x2="1135.32" y2="898.08"/><line class="d" x1="1630.92" y1="898.08" x2="1630.92" y2="957.15"/><line class="d" x1="1630.92" y1="971.94" x2="1630.92" y2="1319.71"/><line class="d" x1="1653.11" y1="898.08" x2="1653.11" y2="476.45"/><line class="d" x1="1157.51" y1="703.72" x2="1157.51" y2="476.45"/><line class="d" x1="1135.32" y1="898.08" x2="1135.32" y2="1319.71"/><line class="d" x1="1157.51" y1="1081.2" x2="1157.51" y2="1059.01"/><line class="d" x1="1157.51" y1="1059.01" x2="1157.51" y2="1036.82"/><line class="d" x1="1157.51" y1="1036.82" x2="1157.51" y2="1014.63"/><line class="d" x1="1157.51" y1="1014.63" x2="1157.51" y2="992.44"/><line class="d" x1="1157.51" y1="992.44" x2="1157.51" y2="970.25"/><line class="d" x1="1157.51" y1="970.25" x2="1157.51" y2="948.06"/><line class="d" x1="1157.51" y1="948.06" x2="1157.51" y2="925.87"/><line class="d" x1="1157.51" y1="925.87" x2="1157.51" y2="903.67"/><line class="d" x1="1157.51" y1="881.48" x2="1157.51" y2="859.29"/><line class="d" x1="1157.51" y1="859.29" x2="1157.51" y2="837.1"/><line class="d" x1="1157.51" y1="837.1" x2="1157.51" y2="835.95"/><line class="d" x1="1157.51" y1="1147.78" x2="1157.51" y2="1125.58"/><line class="d" x1="1157.51" y1="1125.58" x2="1157.51" y2="1103.39"/><line class="d" x1="1157.51" y1="1103.39" x2="1157.51" y2="1081.2"/><line class="d" x1="1261.07" y1="1147.78" x2="1157.51" y2="1147.78"/><line class="d" x1="1364.63" y1="1162.57" x2="1364.63" y2="971.94"/><line class="d" x1="1157.51" y1="1162.57" x2="1270.33" y2="1162.57"/><line class="d" x1="1349.84" y1="1147.78" x2="1344.3" y2="1147.78"/><line class="d" x1="1349.84" y1="718.51" x2="1349.84" y2="866.28"/><line class="d" x1="1157.51" y1="718.51" x2="1262.41" y2="718.51"/><line class="d" x1="1364.63" y1="703.72" x2="1336.38" y2="703.72"/><line class="d" x1="1364.63" y1="766.52" x2="1364.63" y2="703.72"/><line class="d" x1="1364.63" y1="781.31" x2="1630.92" y2="781.31"/><line class="d" x1="1364.63" y1="957.15" x2="1364.63" y2="940.25"/><line class="d" x1="1364.63" y1="971.94" x2="1630.92" y2="971.94"/><line class="d" x1="1349.84" y1="940.25" x2="1349.84" y2="1147.78"/><line class="d" x1="1349.84" y1="866.28" x2="1364.63" y2="866.28"/><line class="d" x1="1364.63" y1="866.28" x2="1364.63" y2="781.31"/><line class="d" x1="1336.38" y1="718.51" x2="1349.84" y2="718.51"/><line class="d" x1="1262.41" y1="718.51" x2="1262.41" y2="703.72"/><line class="d" x1="1262.41" y1="703.72" x2="1157.51" y2="703.72"/><line class="d" x1="1344.3" y1="1147.78" x2="1344.3" y2="1162.57"/><line class="d" x1="1344.3" y1="1162.57" x2="1364.63" y2="1162.57"/><line class="d" x1="1489.86" y1="1341.9" x2="1304.2" y2="1341.9"/><line class="d" x1="1135.32" y1="1341.9" x2="1135.32" y2="1319.71"/><line class="d" x1="1582.33" y1="1341.9" x2="1582.33" y2="1320"/><line class="d" x1="1304.2" y1="1341.9" x2="1304.2" y2="1320"/><line class="d" x1="1653.11" y1="1319.71" x2="1653.11" y2="1341.9"/><line class="d" x1="1135.32" y1="454.26" x2="1135.32" y2="476.45"/><line class="d" x1="1489.86" y1="476" x2="1489.86" y2="454.26"/><line class="d" x1="1211.74" y1="476" x2="1211.74" y2="454.26"/><line class="d" x1="1653.11" y1="476.45" x2="1653.11" y2="454.26"/><line class="d" x1="1489.86" y1="454.26" x2="1304.2" y2="454.26"/><line class="d" x1="1630.92" y1="957.15" x2="1364.63" y2="957.15"/><line class="d" x1="1630.92" y1="766.52" x2="1364.63" y2="766.52"/><line class="d" x1="1157.51" y1="1147.78" x2="1157.51" y2="1162.57"/><line class="d" x1="1364.63" y1="940.25" x2="1349.84" y2="940.25"/><line class="f" x1="1336.38" y1="703.72" x2="1336.38" y2="718.51"/><line class="d" x1="1270.33" y1="1162.57" x2="1270.33" y2="1147.78"/><line class="d" x1="1157.51" y1="898.08" x2="1157.51" y2="881.48"/><line class="d" x1="1157.51" y1="835.95" x2="1157.51" y2="718.51"/><line class="d" x1="1157.51" y1="903.67" x2="1157.51" y2="898.08"/><line class="d" x1="1270.33" y1="1147.78" x2="1261.07" y2="1147.78"/><line class="d" x1="1653.11" y1="1341.9" x2="1634.62" y2="1341.9"/><line class="d" x1="1634.62" y1="1341.9" x2="1582.33" y2="1341.9"/><line class="d" x1="1211.74" y1="1341.9" x2="1153.81" y2="1341.9"/><line class="d" x1="1153.81" y1="1341.9" x2="1135.32" y2="1341.9"/><line class="d" x1="1653.11" y1="454.26" x2="1638.32" y2="454.26"/><line class="d" x1="1638.32" y1="454.26" x2="1582.33" y2="454.26"/><line class="d" x1="1211.74" y1="454.26" x2="1150.12" y2="454.26"/><line class="d" x1="1150.12" y1="454.26" x2="1135.32" y2="454.26"/><line class="d" x1="1630.92" y1="898.08" x2="1630.92" y2="781.31"/><line class="d" x1="1157.51" y1="476.45" x2="1630.92" y2="476.45"/><line class="d" x1="1630.92" y1="766.52" x2="1630.92" y2="476.45"/><line class="d" x1="1157.51" y1="1319.71" x2="1157.51" y2="1162.57"/><line class="d" x1="1489.86" y1="465.75" x2="1582.33" y2="465.75"/><line class="d" x1="1211.74" y1="465.75" x2="1304.2" y2="465.75"/><line class="d" x1="1489.86" y1="1330.41" x2="1582.33" y2="1330.41"/><line class="d" x1="1211.74" y1="1330.41" x2="1304.2" y2="1330.41"/><path class="b" d="M1336.41,703.57a72.6,72.6,0,0,0-72.64-72.64v73.68"/><path class="b" d="M1362.38,867.3A72.6,72.6,0,0,1,1435,939.94h-73.68"/><path class="b" d="M1343,1159.22a72.6,72.6,0,0,1-72.64,72.64v-73.67"/><polyline class="d" points="293.62 202.66 425.34 202.66 409.72 187.03"/><path d="M249.85,1614.19c-7,0-12.14,5.46-12.14,15.28s5,15.35,12.31,15.35c6.56,0,10.71-3.94,10.84-10.16H250.81v-6.17h17.7v5.24c0,11.24-7.73,18.19-18.53,18.19-12,0-20.22-8.57-20.22-22.37,0-14.06,8.56-22.45,20-22.45,9.65,0,17.06,6,18.41,14.53h-8.06C258.69,1617,255.11,1614.19,249.85,1614.19Z"/><path d="M275.83,1618.6h7.47v5.46h.34a8.16,8.16,0,0,1,8.08-5.93,8.08,8.08,0,0,1,4.38,1.2l-2.38,6.39a7.14,7.14,0,0,0-10.18,6.37v19.23h-7.71Z"/><path d="M297.88,1635.09c0-10.14,6.09-16.91,15.68-16.91s15.68,6.77,15.68,16.91-6.1,16.87-15.68,16.87S297.88,1645.21,297.88,1635.09Zm23.54,0c0-6-2.6-10.78-7.82-10.78s-7.9,4.79-7.9,10.78,2.6,10.71,7.9,10.71S321.42,1641.05,321.42,1635.07Z"/><path d="M356.62,1618.6h7.71v32.72h-7.48v-5.81h-.34c-1.49,3.66-4.94,6.24-9.84,6.24-6.43,0-10.91-4.46-10.91-12.31V1618.6h7.71v19.64c0,4.16,2.48,6.78,6.18,6.78,3.41,0,7-2.48,7-7.46Z"/><path d="M380,1651.32h-7.71V1618.6h7.37v5.56H380c1.49-3.64,4.85-6,9.75-6,6.75,0,11.23,4.47,11.21,12.31v20.83h-7.71v-19.64c0-4.37-2.39-7-6.37-7s-6.93,2.73-6.93,7.46Z"/><path d="M407.5,1635c0-10.9,5.95-16.82,13.51-16.82a9.71,9.71,0,0,1,9.35,5.83h.32V1607.7h7.73v43.62h-7.58v-5.15h-.47a9.87,9.87,0,0,1-9.37,5.73C413.28,1651.9,407.5,1645.78,407.5,1635Zm23.33,0c0-6.35-2.73-10.46-7.69-10.46-5.14,0-7.78,4.37-7.78,10.46s2.69,10.61,7.78,10.61C428.06,1645.57,430.83,1641.31,430.83,1635Z"/><path d="M478.34,1624.57h-6.79v26.75h-7.71v-26.75H459v-6h4.84v-3.09c0-6.6,4.53-9.86,10.22-9.86a19.24,19.24,0,0,1,5.86.9l-1.56,6a9.88,9.88,0,0,0-2.87-.47c-2.88,0-3.94,1.43-3.94,4v2.57h6.79Z"/><path d="M492.11,1651.32H484.4V1607.7h7.71Z"/><path d="M498.63,1635.09c0-10.14,6.09-16.91,15.68-16.91S530,1625,530,1635.09s-6.1,16.87-15.68,16.87S498.63,1645.21,498.63,1635.09Zm23.54,0c0-6-2.6-10.78-7.82-10.78s-7.9,4.79-7.9,10.78,2.6,10.71,7.9,10.71S522.17,1641.05,522.17,1635.07Z"/><path d="M535.11,1635.09c0-10.14,6.09-16.91,15.68-16.91s15.67,6.77,15.67,16.91S560.37,1652,550.79,1652,535.11,1645.21,535.11,1635.09Zm23.54,0c0-6-2.6-10.78-7.82-10.78s-7.9,4.79-7.9,10.78,2.59,10.71,7.9,10.71S558.65,1641.05,558.65,1635.07Z"/><path d="M573,1618.6h7.48v5.46h.34a8.5,8.5,0,0,1,12.46-4.73l-2.38,6.39a7.15,7.15,0,0,0-10.19,6.37v19.23H573Z"/><path d="M1122.61,1594.7h28v6.62h-20v11.84h18.13v6.63h-18.13v18.53h-7.9Z"/><path d="M1156.81,1596.78a4.47,4.47,0,1,1,4.47,4.18A4.33,4.33,0,0,1,1156.81,1596.78Zm.59,8.82h7.71v32.72h-7.71Z"/><path d="M1173,1605.6h7.48v5.46h.34a8.5,8.5,0,0,1,12.46-4.73l-2.39,6.39a7.12,7.12,0,0,0-10.18,6.37v19.23H1173Z"/><path d="M1216.7,1615c-.6-2.15-2.48-4.09-6-4.09-3.22,0-5.67,1.53-5.65,3.75,0,1.89,1.3,3,4.62,3.79l5.59,1.19c6.17,1.34,9.18,4.2,9.2,8.86,0,6.2-5.8,10.44-14,10.44-8,0-13.07-3.56-14-9.56l7.52-.73c.66,2.94,3,4.48,6.49,4.48s6.09-1.69,6.09-3.92c0-1.86-1.4-3.07-4.4-3.73l-5.59-1.17c-6.28-1.3-9.22-4.46-9.2-9.23,0-6,5.35-9.92,13.23-9.92,7.67,0,12.1,3.53,13.16,9.07Z"/><path d="M1247.14,1611.57h-6.45v16.91c0,3.11,1.55,3.79,3.49,3.79a9.45,9.45,0,0,0,2.26-.3l1.3,6a15.55,15.55,0,0,1-4.54.77c-5.79.17-10.26-2.86-10.22-9v-18.19h-4.65v-6H1233v-7.84h7.71v7.84h6.45Z"/><path d="M1285.28,1611.57h-6.79v26.75h-7.71v-26.75h-4.84v-6h4.84v-3.09c0-6.6,4.53-9.86,10.22-9.86a18.93,18.93,0,0,1,5.86.9l-1.56,6a9.88,9.88,0,0,0-2.87-.47c-2.88,0-3.94,1.43-3.94,4v2.58h6.79Z"/><path d="M1299.05,1638.32h-7.71V1594.7h7.71Z"/><path d="M1305.57,1622.09c0-10.14,6.09-16.91,15.68-16.91s15.68,6.77,15.68,16.91-6.1,16.87-15.68,16.87S1305.57,1632.21,1305.57,1622.09Zm23.54,0c0-6-2.6-10.78-7.82-10.78s-7.9,4.79-7.9,10.78,2.6,10.71,7.9,10.71S1329.11,1628.05,1329.11,1622.07Z"/><path d="M1342.05,1622.09c0-10.14,6.09-16.91,15.68-16.91s15.67,6.77,15.67,16.91-6.09,16.87-15.67,16.87S1342.05,1632.21,1342.05,1622.09Zm23.54,0c0-6-2.6-10.78-7.82-10.78s-7.9,4.79-7.9,10.78,2.59,10.71,7.9,10.71S1365.59,1628.05,1365.59,1622.07Z"/><path d="M1379.93,1605.6h7.48v5.46h.34a8.5,8.5,0,0,1,12.46-4.73l-2.38,6.39a7.13,7.13,0,0,0-10.19,6.37v19.23h-7.71Z"/><polyline class="b" points="1219 851 1206 838 1193 851"/><line class="b" x1="1206" y1="838" x2="1206" y2="1147"/><polyline class="b" points="333 937 320 924 307 937"/><line class="b" x1="320" y1="924" x2="320" y2="1147"/></svg>