<svg xmlns="http://www.w3.org/2000/svg" viewBox="0 0 2900 2100"><defs><style>.a,.b,.c,.d,.e{fill:none;stroke:#000;}.a,.b,.c{stroke-miterlimit:10;}.a{stroke-width:3px;}.b{stroke-width:2px;}.c{stroke-width:3.9px;}.d,.e{stroke-linecap:round;stroke-linejoin:round;}.d{stroke-width:1.71px;}.e{stroke-width:2.56px;}</style></defs><polygon class="a" points="2870.5 2071.5 37.5 2061.5 37.5 32.5 2870.5 30.5 2870.5 2071.5"/><line class="a" x1="38" y1="1800.5" x2="2863.5" y2="1800.5"/><line class="a" x1="2304.5" y1="1797.5" x2="2304.5" y2="2068.5"/><line class="a" x1="1751.5" y1="1798" x2="1751.5" y2="2069"/><line class="a" x1="1752" y1="1927.5" x2="2304" y2="1927.5"/><path d="M1815.9,2020.91h-6v-31.29h-.32c-.66,1.16-3.74,2.92-8.19,2.92v-4.87a9.85,9.85,0,0,0,8.93-6h5.53Z"/><path d="M1826.54,1992.52a3.84,3.84,0,1,1,3.83,3.84A3.84,3.84,0,0,1,1826.54,1992.52Zm0,19.68a3.84,3.84,0,1,1,3.83,3.84A3.84,3.84,0,0,1,1826.54,2012.2Z"/><path d="M1841.8,2016.61l13.29-13.77c4.22-4.47,6.29-7,6.29-10.43,0-3.92-3-6.37-7-6.37-4.23,0-7,2.76-6.94,7h-5.66c0-7.17,5.37-11.93,12.72-11.93s12.54,4.83,12.54,11.14c0,4.39-2,7.87-9.24,15.14l-7.81,8.17v.28h17.69v5.09H1841.8Z"/><path d="M1874.19,2001.29c0-12.8,5.39-20.2,14.4-20.2s14.39,7.42,14.39,20.2-5.31,20.27-14.39,20.27S1874.19,2014.14,1874.19,2001.29Zm22.9,0c0-9.79-3.22-15.18-8.5-15.18s-8.49,5.39-8.51,15.18,3.2,15.15,8.51,15.15S1897.09,2011.11,1897.09,2001.29Z"/><path d="M1909.07,2001.29c0-12.8,5.39-20.2,14.41-20.2s14.38,7.42,14.38,20.2-5.31,20.27-14.38,20.27S1909.07,2014.14,1909.07,2001.29Zm22.9,0c0-9.79-3.22-15.18-8.49-15.18s-8.5,5.39-8.52,15.18,3.2,15.15,8.52,15.15S1932,2011.11,1932,2001.29Z"/><path d="M2004.83,1998.6c0,8.09-1.56,16.15-9.75,16.3-3.28.12-6.61-1.24-7.07-4.33h-.23c-.91,2.26-3.74,4.3-8.12,4.1-6.46-.25-10.49-5.52-10.49-13.4,0-7.56,4.76-12.15,10.3-12.8,4-.48,7.35,1,7.92,2.73h.25v-2.15h4.72v17.8c0,2,1.09,3.62,3.07,3.62,3.49,0,4.56-3.74,4.54-12.06,0-9.74-6.67-17-17.89-17-12.28,0-19.12,7.89-19.12,20.09,0,12.73,6.92,19.85,19.83,19.85a33.45,33.45,0,0,0,10.34-2l1.34,4.2a33.12,33.12,0,0,1-11.93,2.32c-15.86,0-24.67-8.88-24.69-24.43,0-15.12,9.06-24.5,24.42-24.5C1996.93,1977,2004.83,1987.05,2004.83,1998.6ZM1974,2001c0,4.64,1.75,8.93,6.76,8.93s6.92-3,6.9-9c0-5.83-2.13-7.9-6.83-7.9C1976.52,1993.12,1974,1996.62,1974,2001Z"/><path d="M2008.81,2020.91l14.13-39.28h6.85l14.13,39.28h-6.29l-3.58-10.4H2018.7l-3.6,10.4Zm23.51-15.39-5.79-16.76h-.31l-5.79,16.76Z"/><path d="M2048.85,2010.67h6c.23,3.49,3.55,5.67,7.8,5.67,4.63,0,7.95-2.59,7.95-6.4s-3.15-6.72-8.6-6.72h-3.32v-4.83H2062c4.36,0,7.41-2.49,7.39-6.29,0-3.63-2.61-6.06-6.62-6.06-3.85,0-7.25,2.18-7.38,5.79h-5.74c.19-6.39,6-10.74,13.2-10.74,7.55,0,12.29,4.93,12.27,10.7a8.58,8.58,0,0,1-6.75,8.69v.31c5.22.8,8.23,4.37,8.21,9.34,0,6.52-5.87,11.31-13.89,11.31S2049.1,2017.07,2048.85,2010.67Z"/><path d="M80.39,1842.5H96.75c10,0,15.38,5.63,15.38,14,0,5.92-2.71,10.31-7.84,12.37l9.44,17.3h-8.82l-8.57-16h-8v16h-7.9Zm15.19,21.09c5.86,0,8.5-2.49,8.5-7.13s-2.64-7.35-8.54-7.35H88.29v14.48Z"/><path d="M117.21,1869.9c0-10.14,6.09-16.92,15.68-16.92s15.67,6.78,15.67,16.92-6.09,16.87-15.67,16.87S117.21,1880,117.21,1869.9Zm23.54,0c0-6-2.6-10.78-7.82-10.78s-7.9,4.79-7.9,10.78,2.59,10.71,7.9,10.71S140.75,1875.86,140.75,1869.88Z"/><path d="M153.69,1869.9c0-10.14,6.09-16.92,15.67-16.92S185,1859.76,185,1869.9s-6.09,16.87-15.68,16.87S153.69,1880,153.69,1869.9Zm23.53,0c0-6-2.6-10.78-7.81-10.78s-7.91,4.79-7.91,10.78,2.6,10.71,7.91,10.71S177.22,1875.86,177.22,1869.88Z"/><path d="M208.35,1859.37h-6.79v26.76h-7.71v-26.76H189v-6h4.84v-3.09c0-6.6,4.54-9.86,10.22-9.86a19.25,19.25,0,0,1,5.86.89l-1.55,6a10,10,0,0,0-2.88-.47c-2.88,0-3.94,1.43-3.94,4v2.58h6.79Z"/><path d="M229.3,1853.41h7.59v5.41h.44a9.73,9.73,0,0,1,9.36-5.84c7.56,0,13.5,5.93,13.5,16.83s-5.77,16.89-13.48,16.89a9.87,9.87,0,0,1-9.38-5.73H237v17.43H229.3Zm15.26,27c5.09,0,7.77-4.48,7.77-10.61s-2.64-10.46-7.77-10.46c-5,0-7.69,4.11-7.69,10.46S239.63,1880.38,244.56,1880.38Z"/><path d="M274.49,1886.13h-7.71V1842.5h7.71Z"/><path d="M280.89,1877c0-7.37,6.07-9.27,12.42-10,5.77-.62,8.09-.72,8.09-2.94v-.13c0-3.21-2-5-5.54-5-3.77,0-5.94,1.92-6.71,4.16l-7.2-1c1.71-6,7-9,13.87-9,6.24,0,13.29,2.6,13.29,11.25v21.9H301.7v-4.5h-.26c-1.4,2.75-4.47,5.16-9.6,5.16C285.6,1886.79,280.89,1883.38,280.89,1877Zm20.53-2.56v-3.85c-1,.81-5.05,1.32-7.07,1.59-3.45.49-6,1.73-6,4.69s2.3,4.3,5.52,4.3C298.48,1881.12,301.42,1878,301.42,1874.39Z"/><path d="M324.61,1886.13H316.9v-32.72h7.37V1859h.38c1.49-3.64,4.86-6,9.76-6,6.75,0,11.22,4.48,11.2,12.32v20.83H337.9v-19.64c0-4.37-2.39-7-6.37-7s-6.92,2.73-6.92,7.46Z"/><path d="M379.51,1871.13h-30v-6.34h30Z"/><path d="M397,1870c0-10.1,6.11-17,15.48-17,8.05,0,15,5,15,16.53v2.37h-22.8c.07,5.6,3.37,8.88,8.35,8.88,3.33,0,5.88-1.45,6.93-4.22l7.2.81c-1.37,5.69-6.61,9.42-14.23,9.42C403,1886.77,397,1880.23,397,1870Zm23-3.28c0-4.45-3-7.69-7.45-7.69a7.88,7.88,0,0,0-7.93,7.69Z"/><path d="M446.2,1865.49l6.71-12.08h8.16l-9.86,16.36,10,16.36h-8.11l-6.93-11.78-6.86,11.78h-8.18l10-16.36-9.71-16.36h8.18Z"/><path d="M466.45,1844.59a4.47,4.47,0,1,1,4.47,4.18A4.33,4.33,0,0,1,466.45,1844.59Zm.59,8.82h7.71v32.72H467Z"/><path d="M501.51,1862.83c-.59-2.16-2.47-4.09-6-4.09-3.21,0-5.66,1.53-5.64,3.74,0,1.9,1.3,3,4.62,3.8l5.58,1.19c6.18,1.34,9.18,4.2,9.21,8.86,0,6.2-5.8,10.44-14,10.44-8,0-13.08-3.56-14-9.57l7.52-.72c.66,2.94,3,4.47,6.5,4.47s6.09-1.68,6.09-3.92c0-1.85-1.4-3.06-4.41-3.72l-5.58-1.18c-6.28-1.3-9.22-4.45-9.2-9.22,0-6.05,5.35-9.93,13.23-9.93,7.67,0,12.1,3.54,13.16,9.08Z"/><path d="M532,1859.37h-6.45v16.92c0,3.11,1.55,3.79,3.49,3.79a9.45,9.45,0,0,0,2.26-.3l1.3,6a15.62,15.62,0,0,1-4.54.77c-5.79.17-10.27-2.86-10.22-9v-18.2h-4.65v-6h4.65v-7.84h7.71v7.84H532Z"/><path d="M537.83,1844.59a4.47,4.47,0,1,1,4.47,4.18A4.33,4.33,0,0,1,537.83,1844.59Zm.59,8.82h7.71v32.72h-7.71Z"/><path d="M561.77,1886.13h-7.71v-32.72h7.37V1859h.38c1.5-3.64,4.86-6,9.76-6,6.75,0,11.23,4.48,11.2,12.32v20.83h-7.71v-19.64c0-4.37-2.38-7-6.37-7s-6.92,2.73-6.92,7.46Z"/><path d="M590.43,1890.82l7-1.69c.93,1.79,3,4,7.62,4,4.39,0,7.58-2,7.58-6.67v-6.2h-.38c-1.19,2.41-3.81,5.41-9.41,5.41-7.54,0-13.49-5.33-13.49-16s6-16.68,13.51-16.68a9.78,9.78,0,0,1,9.39,5.84h.43v-5.41h7.6v33.25c0,8.25-6.52,12.29-15.36,12.29C596.54,1899,591.84,1895.27,590.43,1890.82Zm22.2-21.2c0-6.2-2.73-10.31-7.69-10.31-5.14,0-7.78,4.37-7.78,10.31s2.69,10,7.78,10C609.86,1879.61,612.63,1875.86,612.63,1869.62Z"/><path d="M1808.68,1883.77h-6v-31.29h-.33c-.65,1.15-3.74,2.92-8.19,2.92v-4.87a9.85,9.85,0,0,0,8.94-6h5.53Z"/><path d="M1818.57,1864.14c0-12.79,5.39-20.19,14.4-20.19s14.39,7.42,14.39,20.19-5.32,20.28-14.39,20.28S1818.57,1877,1818.57,1864.14Zm22.9,0c0-9.78-3.22-15.17-8.5-15.17s-8.5,5.39-8.51,15.17,3.2,15.16,8.51,15.16S1841.47,1874,1841.47,1864.14Z"/><path d="M1868,1883.77h-6v-31.29h-.33c-.65,1.15-3.74,2.92-8.19,2.92v-4.87a9.85,9.85,0,0,0,8.94-6H1868Z"/><path d="M1896,1866.62h-17.41v-5H1896Z"/><path d="M1904.15,1844.48h24.63v5.11h-18.7v12h17.41v5.09h-17.41v12H1929v5.11h-24.86Z"/><path d="M1953.61,1866.62h-17.42v-5h17.42Z"/><path d="M1960.45,1864.14c0-12.79,5.39-20.19,14.4-20.19s14.39,7.42,14.39,20.19-5.31,20.28-14.39,20.28S1960.45,1877,1960.45,1864.14Zm22.9,0c0-9.78-3.22-15.17-8.5-15.17s-8.49,5.39-8.51,15.17,3.2,15.16,8.51,15.16S1983.35,1874,1983.35,1864.14Z"/><path d="M1996.16,1873.52h5.75c.31,3.38,3.32,5.8,7.12,5.8,4.5,0,7.78-3.42,7.78-8.14a8,8,0,0,0-8-8.32,10.51,10.51,0,0,0-6.51,2.22l-5.42-.8,2.2-19.8h21.6v5.09H2004l-1.25,11h.24a10.54,10.54,0,0,1,7.15-2.61c7.15,0,12.45,5.52,12.43,13.12s-5.62,13.23-13.52,13.23C2001.81,1884.3,1996.39,1879.78,1996.16,1873.52Z"/><path d="M2338.89,1836.84h8.55c5.58,0,8.31,3.35,8.31,7.77s-2.75,7.79-8.32,7.79h-4.92v8.44h-3.62Zm8.21,12.49c3.54,0,5-2,5-4.72s-1.47-4.66-5.06-4.66h-4.54v9.38Z"/><path d="M2359.7,1842.84h3.39v2.86h.18a4.67,4.67,0,0,1,4.57-3.13,4.15,4.15,0,0,1,2.36.66l-1.13,2.93a3.57,3.57,0,0,0-1.62-.35,4,4,0,0,0-4.25,4v11h-3.5Z"/><path d="M2371.38,1851.92c0-5.6,3.32-9.31,8.39-9.31s8.39,3.71,8.39,9.31-3.31,9.29-8.39,9.29S2371.38,1857.49,2371.38,1851.92Zm13.24,0c0-3.44-1.54-6.37-4.83-6.37s-4.87,2.93-4.87,6.37,1.55,6.35,4.87,6.35S2384.62,1855.37,2384.62,1851.91Z"/><path d="M2392.07,1842.84h3.42v2.92h.29a5.41,5.41,0,0,1,5.17-3.15c4.35,0,7.56,3.43,7.56,9.27s-3.17,9.31-7.53,9.31a5.48,5.48,0,0,1-5.2-3.15h-.21v9.55h-3.5Zm8.13,15.37c3.13,0,4.77-2.76,4.77-6.37s-1.59-6.26-4.77-6.26-4.7,2.5-4.7,6.26S2397.19,1858.21,2400.2,1858.21Z"/><path d="M2411.62,1852c0-5.53,3.31-9.35,8.33-9.35,4.07,0,8,2.54,8,9v1.25h-12.79c.09,3.47,2.11,5.41,5.11,5.41a4.08,4.08,0,0,0,4.15-2.57l3.31.6c-.8,2.93-3.57,4.87-7.5,4.87C2414.88,1861.21,2411.62,1857.55,2411.62,1852Zm12.86-1.69a4.45,4.45,0,0,0-4.51-4.77,4.84,4.84,0,0,0-4.84,4.77Z"/><path d="M2431.82,1842.84h3.38v2.86h.19a4.69,4.69,0,0,1,4.57-3.13c.45,0,1.14,0,1.49.08V1846a7.69,7.69,0,0,0-1.83-.22,4,4,0,0,0-4.3,4.06v11h-3.5Z"/><path d="M2454,1845.65h-3.69v9.91c0,2,1,2.4,2.16,2.4a6.31,6.31,0,0,0,1.23-.15l.63,2.89a7,7,0,0,1-2.27.38c-2.77.05-5.26-1.53-5.25-4.8v-10.63h-2.64v-2.81h2.64v-4.31h3.5v4.31H2454Z"/><path d="M2457.63,1867.43l.85-2.91c1.93.52,3.18.32,4.06-2l.52-1.41-6.59-18.24h3.75l4.56,14h.19l4.56-14h3.76l-7.5,20.63c-1,2.8-2.91,4.37-5.81,4.37A6.32,6.32,0,0,1,2457.63,1867.43Z"/><path d="M2484.48,1855.76c0-4.09,3.49-5,6.9-5.38,3.24-.38,4.55-.35,4.55-1.63v-.08c0-2-1.16-3.23-3.42-3.23a4.21,4.21,0,0,0-4.19,2.51l-3.29-.75c1.17-3.28,4.17-4.59,7.43-4.59,2.86,0,7,1,7,6.28v11.95H2496v-2.46h-.14a5.62,5.62,0,0,1-5.32,2.86C2487.14,1861.24,2484.48,1859.29,2484.48,1855.76Zm11.46-1.41V1852c-.5.5-3.2.81-4.33,1-2,.27-3.7.94-3.7,2.81s1.43,2.63,3.41,2.63C2494.24,1858.43,2495.94,1856.48,2495.94,1854.35Z"/><path d="M2503.32,1851.88c0-5.84,3.2-9.27,7.55-9.27a5.43,5.43,0,0,1,5.18,3.15h.21v-8.92h3.51v24h-3.43V1858h-.29a5.48,5.48,0,0,1-5.2,3.15C2506.48,1861.19,2503.32,1857.7,2503.32,1851.88Zm13,0c0-3.76-1.64-6.26-4.7-6.26s-4.76,2.69-4.76,6.26,1.63,6.37,4.76,6.37S2516.32,1855.63,2516.32,1851.84Z"/><path d="M2524,1851.88c0-5.84,3.2-9.27,7.55-9.27a5.43,5.43,0,0,1,5.18,3.15h.21v-8.92h3.5v24H2537V1858h-.29a5.48,5.48,0,0,1-5.2,3.15C2527.12,1861.19,2524,1857.7,2524,1851.88Zm13,0c0-3.76-1.64-6.26-4.7-6.26s-4.76,2.69-4.76,6.26,1.63,6.37,4.76,6.37S2537,1855.63,2537,1851.84Z"/><path d="M2545.41,1842.84h3.38v2.86h.19a4.67,4.67,0,0,1,4.57-3.13,4.15,4.15,0,0,1,2.36.66l-1.13,2.93a3.58,3.58,0,0,0-1.63-.35,4,4,0,0,0-4.24,4v11h-3.5Z"/><path d="M2557.09,1852c0-5.53,3.3-9.35,8.32-9.35,4.08,0,8,2.54,8,9v1.25h-12.8c.1,3.47,2.11,5.41,5.11,5.41a4.08,4.08,0,0,0,4.15-2.57l3.32.6c-.8,2.93-3.58,4.87-7.5,4.87C2560.35,1861.21,2557.09,1857.55,2557.09,1852Zm12.86-1.69a4.46,4.46,0,0,0-4.52-4.77,4.84,4.84,0,0,0-4.84,4.77Z"/><path d="M2587.59,1847.8a3.46,3.46,0,0,0-3.59-2.42c-2,0-3.5,1-3.48,2.37,0,1.22.84,1.89,2.82,2.36l2.86.65c3.3.77,4.92,2.34,4.92,4.88,0,3.26-3,5.57-7.36,5.57-4,0-6.69-1.8-7.28-5l3.39-.51c.42,1.77,1.77,2.67,3.87,2.67,2.3,0,3.78-1.09,3.78-2.48,0-1.13-.81-1.9-2.54-2.29l-3.05-.67c-3.37-.75-4.92-2.45-4.92-5,0-3.19,2.88-5.33,6.95-5.33,3.89,0,6.08,1.83,6.81,4.63Z"/><path d="M2605.28,1847.8a3.48,3.48,0,0,0-3.6-2.42c-2,0-3.49,1-3.48,2.37,0,1.22.84,1.89,2.82,2.36l2.86.65c3.31.77,4.92,2.34,4.92,4.88,0,3.26-3,5.57-7.36,5.57-4,0-6.69-1.8-7.27-5l3.38-.51c.43,1.77,1.77,2.67,3.87,2.67,2.3,0,3.79-1.09,3.79-2.48,0-1.13-.81-1.9-2.55-2.29l-3-.67c-3.38-.75-4.93-2.45-4.93-5,0-3.19,2.89-5.33,6.95-5.33,3.89,0,6.09,1.83,6.81,4.63Z"/><circle class="b" cx="2716.55" cy="205.1" r="58.93"/><line class="c" x1="2741.73" y1="150.08" x2="2714.65" y2="206.35"/><path d="M2761.47,131.16h-3.93l-9.39-13.57H2748v13.57h-4.56V109.6h4l9.31,13.56h.18V109.6h4.54Z"/><rect x="2327.28" y="1704.4" width="20.93" height="8.49"/><rect x="2347.65" y="1712.88" width="104.66" height="8.49"/><rect x="2451.37" y="1704.4" width="104.66" height="8.49"/><rect x="2659.37" y="1704.4" width="104.66" height="8.49"/><rect x="2555.09" y="1711.94" width="104.66" height="8.49"/><rect x="2306.35" y="1712.75" width="20.93" height="8.49"/><rect x="2284.67" y="1704.26" width="20.93" height="8.49"/><rect x="2264.39" y="1712.28" width="20.93" height="8.49"/><rect x="2242.71" y="1703.79" width="20.93" height="8.49"/><path d="M2233.74,1677c0-8.09,3.41-12.77,9.11-12.77s9.1,4.69,9.1,12.77-3.36,12.82-9.1,12.82S2233.74,1685.09,2233.74,1677Zm14.49,0c0-6.18-2-9.59-5.38-9.59s-5.37,3.41-5.38,9.59,2,9.58,5.38,9.58S2248.23,1683.17,2248.23,1677Z"/><path d="M2352.54,1690.62h-3.76v-19.78h-.2c-.42.73-2.37,1.84-5.18,1.84v-3.08a6.23,6.23,0,0,0,5.65-3.82h3.49Z"/><path d="M2439.86,1688.85l8.41-8.71c2.66-2.83,4-4.4,4-6.6,0-2.47-1.91-4-4.44-4a4.12,4.12,0,0,0-4.39,4.42h-3.58c0-4.54,3.4-7.55,8.05-7.55s7.93,3.06,7.93,7c0,2.78-1.3,5-5.85,9.57l-4.93,5.17v.18h11.18v3.22h-16.35Z"/><path d="M2532.16,1686H2536c.15,2.21,2.25,3.59,4.94,3.59,2.92,0,5-1.63,5-4s-2-4.24-5.43-4.24h-2.1v-3.06h2.1c2.75,0,4.68-1.58,4.67-4s-1.65-3.83-4.19-3.83-4.58,1.38-4.67,3.66h-3.63c.13-4,3.79-6.79,8.35-6.79,4.78,0,7.78,3.11,7.76,6.77a5.42,5.42,0,0,1-4.27,5.49v.2a5.67,5.67,0,0,1,5.2,5.9c0,4.13-3.72,7.16-8.79,7.16S2532.32,1690.08,2532.16,1686Z"/><path d="M2643.18,1684.15l10.74-17h4.62V1684h3.29v3.18h-3.29V1692H2655v-4.85h-11.78Zm11.81-12.49h-.2l-7.68,12.15v.2H2655Z"/><path d="M2754.77,1685.56h3.64a4.23,4.23,0,0,0,4.5,3.66,4.87,4.87,0,0,0,4.92-5.14,5,5,0,0,0-5.08-5.26,6.63,6.63,0,0,0-4.11,1.4l-3.44-.51,1.4-12.51h13.66v3.21h-10.55l-.78,6.95h.14a6.68,6.68,0,0,1,4.53-1.65c4.52,0,7.87,3.49,7.86,8.3a8.16,8.16,0,0,1-8.55,8.37C2758.34,1692.38,2754.91,1689.52,2754.77,1685.56Z"/><line class="d" x1="456.88" y1="1621.1" x2="522.13" y2="1621.1"/><line class="d" x1="601.08" y1="1621.1" x2="899" y2="1621.1"/><line class="d" x1="522.13" y1="1621.1" x2="601.08" y2="1621.1"/><line class="d" x1="456.88" y1="512.66" x2="456.88" y2="222.75"/><line class="d" x1="899" y1="512.66" x2="899" y2="222.75"/><line class="d" x1="456.88" y1="222.75" x2="899" y2="222.75"/><line class="d" x1="851.63" y1="1081.09" x2="851.63" y2="1128.46"/><line class="d" x1="899" y1="1128.46" x2="851.63" y2="1128.46"/><line class="d" x1="456.88" y1="1081.09" x2="851.63" y2="1081.09"/><line class="d" x1="851.63" y1="1081.09" x2="851.63" y2="1033.72"/><line class="d" x1="899" y1="1033.72" x2="851.63" y2="1033.72"/><line class="d" x1="456.88" y1="692.67" x2="456.88" y2="512.66"/><line class="d" x1="899" y1="1621.1" x2="899" y2="1469.51"/><line class="d" x1="456.88" y1="1469.51" x2="456.88" y2="1621.1"/><line class="d" x1="883.21" y1="1469.51" x2="899" y2="1469.51"/><line class="d" x1="886.37" y1="692.67" x2="899" y2="692.67"/><line class="d" x1="899" y1="692.67" x2="899" y2="512.66"/><line class="d" x1="456.88" y1="1469.51" x2="472.67" y2="1469.51"/><line class="d" x1="456.88" y1="692.67" x2="469.52" y2="692.67"/><line class="e" x1="456.88" y1="692.67" x2="899" y2="692.67"/><line class="d" x1="472.67" y1="1469.51" x2="601.08" y2="1469.51"/><line class="e" x1="456.88" y1="1469.51" x2="899" y2="1469.51"/><line class="e" x1="899" y1="1128.46" x2="899" y2="1469.51"/><line class="e" x1="456.88" y1="1469.51" x2="456.88" y2="1081.09"/><line class="e" x1="456.88" y1="1081.09" x2="456.88" y2="692.67"/><line class="e" x1="899" y1="1033.72" x2="899" y2="1128.46"/><line class="e" x1="899" y1="1033.72" x2="899" y2="692.67"/><line class="d" x1="899" y1="222.75" x2="456.88" y2="222.75"/><path d="M2225.93,1363.07l13,31.61h.51l13-31.61H2262v43.62h-7.58v-30H2254L2242,1406.57h-5.67l-12.06-29.91h-.4v30h-7.58v-43.62Z"/><path d="M2269.57,1397.51c0-7.37,6.07-9.26,12.41-10,5.78-.61,8.1-.72,8.1-2.94v-.12c0-3.22-2-5-5.54-5-3.77,0-5.94,1.92-6.71,4.15l-7.2-1c1.71-6,7-9,13.87-9,6.24,0,13.29,2.6,13.29,11.25v21.89h-7.41v-4.49h-.26c-1.4,2.75-4.47,5.15-9.6,5.15C2274.27,1407.35,2269.57,1404,2269.57,1397.51Zm20.53-2.55v-3.86c-1,.81-5,1.32-7.07,1.6-3.45.49-6,1.72-6,4.68s2.3,4.31,5.52,4.31C2287.16,1401.69,2290.1,1398.6,2290.1,1395Z"/><path d="M2321.91,1379.94h-6.45v16.91c0,3.11,1.55,3.79,3.49,3.79a10.12,10.12,0,0,0,2.26-.29l1.3,6a15.21,15.21,0,0,1-4.54.77c-5.79.17-10.27-2.85-10.22-9v-18.19h-4.65v-6h4.65v-7.83h7.71V1374h6.45Z"/><path d="M2326.63,1390.53c0-10.1,6.11-17,15.48-17,8,0,15,5,15,16.53v2.36h-22.8c.07,5.6,3.37,8.89,8.35,8.89,3.33,0,5.88-1.45,6.93-4.22l7.2.81c-1.37,5.68-6.61,9.41-14.23,9.41C2332.65,1407.33,2326.63,1400.79,2326.63,1390.53Zm23-3.28c0-4.46-3-7.69-7.45-7.69a7.87,7.87,0,0,0-7.93,7.69Z"/><path d="M2363.59,1374h7.48v5.46h.34a8.16,8.16,0,0,1,8.07-5.92,18.15,18.15,0,0,1,2.77.21v7.09a15,15,0,0,0-3.58-.44c-4.24,0-7.37,2.93-7.37,7.09v19.23h-7.71Z"/><path d="M2386.8,1365.16a4.47,4.47,0,1,1,4.47,4.17A4.33,4.33,0,0,1,2386.8,1365.16Zm.59,8.81h7.71v32.72h-7.71Z"/><path d="M2401.5,1397.51c0-7.37,6.07-9.26,12.42-10,5.77-.61,8.09-.72,8.09-2.94v-.12c0-3.22-2-5-5.54-5-3.77,0-5.94,1.92-6.71,4.15l-7.2-1c1.71-6,7-9,13.87-9,6.24,0,13.29,2.6,13.29,11.25v21.89h-7.41v-4.49h-.26c-1.4,2.75-4.47,5.15-9.6,5.15C2406.2,1407.35,2401.5,1404,2401.5,1397.51ZM2422,1395v-3.86c-1,.81-5.05,1.32-7.07,1.6-3.45.49-6,1.72-6,4.68s2.3,4.31,5.52,4.31C2419.09,1401.69,2422,1398.6,2422,1395Z"/><path d="M2445.22,1406.69h-7.71v-43.62h7.71Z"/><path d="M2472,1383.39c-.59-2.15-2.47-4.09-6-4.09-3.22,0-5.67,1.53-5.65,3.75,0,1.89,1.3,3,4.62,3.79l5.58,1.19c6.18,1.35,9.19,4.2,9.21,8.86,0,6.2-5.8,10.44-14,10.44s-13.08-3.55-14-9.56l7.51-.73c.67,2.94,3,4.48,6.5,4.48s6.09-1.69,6.09-3.92c0-1.86-1.4-3.07-4.41-3.73l-5.58-1.17c-6.28-1.3-9.22-4.45-9.2-9.23,0-6,5.35-9.92,13.23-9.92,7.67,0,12.1,3.53,13.16,9.07Z"/><rect class="b" x="2213" y="1462" width="196" height="17"/><rect class="b" x="2213" y="1497" width="196" height="17"/></svg>