<svg xmlns="http://www.w3.org/2000/svg" viewBox="0 0 2900 2100"><defs><style>.a,.b,.c,.d,.e{fill:none;stroke:#000;}.a,.b,.c{stroke-miterlimit:10;}.a{stroke-width:3px;}.b{stroke-width:2px;}.c{stroke-width:3.9px;}.d,.e{stroke-linecap:round;stroke-linejoin:round;}.d{stroke-width:1.71px;}.e{stroke-width:2.56px;}</style></defs><polygon class="a" points="2870.5 2071.5 37.5 2061.5 37.5 32.5 2870.5 30.5 2870.5 2071.5"/><line class="a" x1="38" y1="1800.5" x2="2863.5" y2="1800.5"/><line class="a" x1="2304.5" y1="1797.5" x2="2304.5" y2="2068.5"/><line class="a" x1="1751.5" y1="1798" x2="1751.5" y2="2069"/><line class="a" x1="1752" y1="1927.5" x2="2304" y2="1927.5"/><path d="M1815.9,2020.91h-6v-31.29h-.32c-.66,1.16-3.74,2.92-8.19,2.92v-4.87a9.85,9.85,0,0,0,8.93-6h5.53Z"/><path d="M1826.54,1992.52a3.84,3.84,0,1,1,3.83,3.84A3.84,3.84,0,0,1,1826.54,1992.52Zm0,19.68a3.84,3.84,0,1,1,3.83,3.84A3.84,3.84,0,0,1,1826.54,2012.2Z"/><path d="M1841.8,2016.61l13.29-13.77c4.22-4.47,6.29-7,6.29-10.43,0-3.92-3-6.37-7-6.37-4.25,0-7,2.76-6.95,7h-5.66c0-7.17,5.37-11.93,12.72-11.93s12.54,4.83,12.54,11.14c0,4.39-2,7.87-9.24,15.14l-7.81,8.17v.28h17.69v5.09H1841.8Z"/><path d="M1874.19,2001.29c0-12.8,5.39-20.2,14.4-20.2s14.39,7.42,14.39,20.2-5.31,20.27-14.39,20.27S1874.19,2014.14,1874.19,2001.29Zm22.9,0c0-9.79-3.22-15.18-8.5-15.18s-8.49,5.39-8.51,15.18,3.2,15.15,8.51,15.15S1897.09,2011.11,1897.09,2001.29Z"/><path d="M1909.07,2001.29c0-12.8,5.39-20.2,14.41-20.2s14.38,7.42,14.38,20.2-5.31,20.27-14.38,20.27S1909.07,2014.14,1909.07,2001.29Zm22.9,0c0-9.79-3.22-15.18-8.49-15.18s-8.5,5.39-8.52,15.18,3.2,15.15,8.52,15.15S1932,2011.11,1932,2001.29Z"/><path d="M2004.83,1998.6c0,8.09-1.56,16.15-9.75,16.3-3.28.12-6.61-1.24-7.07-4.33h-.23c-.9,2.26-3.74,4.3-8.12,4.1-6.46-.25-10.49-5.52-10.49-13.4,0-7.56,4.76-12.15,10.3-12.8,4-.48,7.35,1,7.92,2.73h.25v-2.15h4.72v17.8c0,2,1.09,3.62,3.07,3.62,3.49,0,4.56-3.74,4.54-12.06,0-9.74-6.67-17-17.89-17-12.28,0-19.12,7.89-19.12,20.09,0,12.73,6.92,19.85,19.83,19.85a33.45,33.45,0,0,0,10.34-2l1.34,4.2a33.12,33.12,0,0,1-11.93,2.32c-15.86,0-24.67-8.88-24.68-24.43,0-15.12,9.05-24.5,24.41-24.5C1996.93,1977,2004.83,1987.05,2004.83,1998.6ZM1974,2001c0,4.64,1.75,8.93,6.76,8.93s6.92-3,6.9-9c0-5.83-2.13-7.9-6.83-7.9C1976.52,1993.12,1974,1996.62,1974,2001Z"/><path d="M2008.81,2020.91l14.13-39.28h6.85l14.13,39.28h-6.29l-3.58-10.4H2018.7l-3.6,10.4Zm23.51-15.39-5.79-16.76h-.31l-5.79,16.76Z"/><path d="M2048.85,2010.67h6c.23,3.49,3.55,5.67,7.8,5.67,4.63,0,7.95-2.59,7.95-6.4s-3.15-6.72-8.6-6.72h-3.31v-4.83H2062c4.36,0,7.41-2.49,7.39-6.29,0-3.63-2.61-6.06-6.62-6.06-3.85,0-7.25,2.18-7.38,5.79h-5.74c.19-6.39,6-10.74,13.2-10.74,7.55,0,12.29,4.93,12.27,10.7a8.58,8.58,0,0,1-6.75,8.69v.31c5.22.8,8.23,4.37,8.21,9.34,0,6.52-5.87,11.31-13.89,11.31S2049.1,2017.07,2048.85,2010.67Z"/><path d="M80.39,1842.5H96.75c10,0,15.38,5.63,15.38,14,0,5.92-2.71,10.31-7.84,12.37l9.44,17.3h-8.82l-8.57-16h-8v16h-7.9Zm15.19,21.09c5.86,0,8.5-2.49,8.5-7.13s-2.64-7.35-8.54-7.35H88.29v14.48Z"/><path d="M117.21,1869.9c0-10.14,6.09-16.92,15.68-16.92s15.67,6.78,15.67,16.92-6.09,16.87-15.67,16.87S117.21,1880,117.21,1869.9Zm23.54,0c0-6-2.6-10.78-7.82-10.78s-7.9,4.79-7.9,10.78,2.59,10.71,7.9,10.71S140.75,1875.86,140.75,1869.88Z"/><path d="M153.69,1869.9c0-10.14,6.09-16.92,15.67-16.92S185,1859.76,185,1869.9s-6.09,16.87-15.68,16.87S153.69,1880,153.69,1869.9Zm23.53,0c0-6-2.6-10.78-7.81-10.78s-7.91,4.79-7.91,10.78,2.6,10.71,7.91,10.71S177.22,1875.86,177.22,1869.88Z"/><path d="M208.35,1859.37h-6.79v26.76h-7.71v-26.76H189v-6h4.84v-3.09c0-6.6,4.54-9.86,10.22-9.86a19.25,19.25,0,0,1,5.86.89l-1.55,6a10,10,0,0,0-2.88-.47c-2.88,0-3.94,1.43-3.94,4v2.58h6.79Z"/><path d="M229.3,1853.41h7.59v5.41h.44a9.73,9.73,0,0,1,9.36-5.84c7.56,0,13.5,5.93,13.5,16.83s-5.77,16.89-13.48,16.89a9.87,9.87,0,0,1-9.38-5.73H237v17.43H229.3Zm15.26,27c5.09,0,7.77-4.48,7.77-10.61s-2.64-10.46-7.77-10.46c-5,0-7.69,4.11-7.69,10.46S239.63,1880.38,244.56,1880.38Z"/><path d="M274.49,1886.13h-7.71V1842.5h7.71Z"/><path d="M280.89,1877c0-7.37,6.07-9.27,12.42-10,5.77-.62,8.09-.72,8.09-2.94v-.13c0-3.21-2-5-5.54-5-3.77,0-5.94,1.92-6.71,4.16l-7.2-1c1.71-6,7-9,13.87-9,6.24,0,13.29,2.6,13.29,11.25v21.9H301.7v-4.5h-.26c-1.4,2.75-4.47,5.16-9.6,5.16C285.6,1886.79,280.89,1883.38,280.89,1877Zm20.53-2.56v-3.85c-1,.81-5.05,1.32-7.07,1.59-3.45.49-6,1.73-6,4.69s2.3,4.3,5.52,4.3C298.48,1881.12,301.42,1878,301.42,1874.39Z"/><path d="M324.61,1886.13H316.9v-32.72h7.37V1859h.38c1.49-3.64,4.86-6,9.76-6,6.75,0,11.22,4.48,11.2,12.32v20.83H337.9v-19.64c0-4.37-2.39-7-6.37-7s-6.92,2.73-6.92,7.46Z"/><path d="M379.51,1871.13h-30v-6.34h30Z"/><path d="M398.37,1853.41H406v5.41h.44a9.71,9.71,0,0,1,9.35-5.84c7.57,0,13.51,5.93,13.51,16.83s-5.77,16.89-13.48,16.89a9.87,9.87,0,0,1-9.38-5.73h-.32v17.43h-7.71Zm15.25,27c5.09,0,7.78-4.48,7.78-10.61s-2.64-10.46-7.78-10.46c-5,0-7.69,4.11-7.69,10.46S408.7,1880.38,413.62,1880.38Z"/><path d="M435.85,1853.41h7.48v5.45h.34a8.52,8.52,0,0,1,12.46-4.73l-2.39,6.39a7,7,0,0,0-3-.68,6.9,6.9,0,0,0-7.14,7.05v19.24h-7.71Z"/><path d="M457.9,1869.9c0-10.14,6.1-16.92,15.68-16.92s15.68,6.78,15.68,16.92-6.09,16.87-15.68,16.87S457.9,1880,457.9,1869.9Zm23.54,0c0-6-2.6-10.78-7.82-10.78s-7.9,4.79-7.9,10.78,2.6,10.71,7.9,10.71S481.44,1875.86,481.44,1869.88Z"/><path d="M495.79,1853.41h7.58v5.41h.45a9.71,9.71,0,0,1,9.35-5.84c7.56,0,13.5,5.93,13.5,16.83s-5.77,16.89-13.48,16.89a9.85,9.85,0,0,1-9.37-5.73h-.32v17.43h-7.71Zm15.25,27c5.09,0,7.77-4.48,7.77-10.61s-2.64-10.46-7.77-10.46c-5,0-7.69,4.11-7.69,10.46S506.12,1880.38,511,1880.38Z"/><path d="M531.86,1869.9c0-10.14,6.09-16.92,15.68-16.92s15.67,6.78,15.67,16.92-6.09,16.87-15.67,16.87S531.86,1880,531.86,1869.9Zm23.54,0c0-6-2.6-10.78-7.82-10.78s-7.9,4.79-7.9,10.78,2.6,10.71,7.9,10.71S555.4,1875.86,555.4,1869.88Z"/><path d="M588.57,1862.83c-.59-2.16-2.47-4.09-6-4.09-3.21,0-5.66,1.53-5.64,3.74,0,1.9,1.3,3,4.62,3.8l5.58,1.19c6.18,1.34,9.19,4.2,9.21,8.86,0,6.2-5.8,10.44-14,10.44s-13.08-3.56-14-9.57l7.52-.72c.66,2.94,3,4.47,6.5,4.47s6.09-1.68,6.09-3.92c0-1.85-1.4-3.06-4.41-3.72l-5.58-1.18c-6.28-1.3-9.22-4.45-9.2-9.22,0-6.05,5.35-9.93,13.23-9.93,7.67,0,12.1,3.54,13.16,9.08Z"/><path d="M601.28,1870c0-10.1,6.11-17,15.48-17,8.06,0,15,5,15,16.53v2.37h-22.8c.07,5.6,3.37,8.88,8.36,8.88,3.32,0,5.87-1.45,6.92-4.22l7.2.81c-1.37,5.69-6.61,9.42-14.23,9.42C607.31,1886.77,601.28,1880.23,601.28,1870Zm23.05-3.28c-.05-4.45-3-7.69-7.46-7.69a7.86,7.86,0,0,0-7.92,7.69Z"/><path d="M636.9,1869.81c0-10.9,6-16.83,13.51-16.83a9.71,9.71,0,0,1,9.35,5.84h.32V1842.5h7.73v43.63h-7.58V1881h-.47a9.86,9.86,0,0,1-9.37,5.73C642.67,1886.7,636.9,1880.59,636.9,1869.81Zm23.33,0c0-6.35-2.73-10.46-7.69-10.46-5.14,0-7.78,4.37-7.78,10.46s2.69,10.61,7.78,10.61C657.46,1880.38,660.23,1876.12,660.23,1869.77Z"/><path d="M1808.68,1883.77h-6v-31.29h-.33c-.65,1.15-3.74,2.92-8.19,2.92v-4.87a9.85,9.85,0,0,0,8.94-6h5.53Z"/><path d="M1818.57,1864.14c0-12.79,5.39-20.19,14.4-20.19s14.39,7.42,14.39,20.19-5.32,20.28-14.39,20.28S1818.57,1877,1818.57,1864.14Zm22.9,0c0-9.78-3.22-15.17-8.5-15.17s-8.5,5.39-8.51,15.17,3.2,15.16,8.51,15.16S1841.47,1874,1841.47,1864.14Z"/><path d="M1868,1883.77h-6v-31.29h-.33c-.65,1.15-3.74,2.92-8.18,2.92v-4.87a9.84,9.84,0,0,0,8.93-6H1868Z"/><path d="M1896,1866.62h-17.41v-5H1896Z"/><path d="M1904.15,1844.48h14c9.13,0,13.6,5.49,13.6,12.72s-4.51,12.76-13.62,12.76h-8.05v13.81h-5.93Zm13.44,20.45c5.8,0,8.2-3.28,8.2-7.73s-2.4-7.63-8.27-7.63h-7.44v15.36Z"/><path d="M1953.61,1866.62h-17.42v-5h17.42Z"/><path d="M1960.45,1864.14c0-12.79,5.39-20.19,14.41-20.19s14.38,7.42,14.38,20.19-5.31,20.28-14.38,20.28S1960.45,1877,1960.45,1864.14Zm22.9,0c0-9.78-3.22-15.17-8.49-15.17s-8.5,5.39-8.52,15.17,3.2,15.16,8.52,15.16S1983.35,1874,1983.35,1864.14Z"/><path d="M1996.16,1873.52h5.75c.31,3.38,3.32,5.8,7.12,5.8,4.51,0,7.78-3.42,7.78-8.14a8,8,0,0,0-8-8.32,10.46,10.46,0,0,0-6.5,2.22l-5.43-.8,2.2-19.8h21.6v5.09H2004l-1.24,11h.23a10.56,10.56,0,0,1,7.15-2.61c7.15,0,12.45,5.52,12.43,13.12s-5.62,13.23-13.52,13.23C2001.82,1884.3,1996.39,1879.78,1996.16,1873.52Z"/><path d="M2338.89,1836.84h8.55c5.58,0,8.31,3.35,8.31,7.77s-2.75,7.79-8.32,7.79h-4.92v8.44h-3.62Zm8.21,12.49c3.54,0,5-2,5-4.72s-1.47-4.66-5.06-4.66h-4.54v9.38Z"/><path d="M2359.7,1842.84h3.39v2.86h.18a4.67,4.67,0,0,1,4.57-3.13,4.15,4.15,0,0,1,2.36.66l-1.13,2.93a3.57,3.57,0,0,0-1.62-.35,4,4,0,0,0-4.25,4v11h-3.5Z"/><path d="M2371.38,1851.92c0-5.6,3.32-9.31,8.39-9.31s8.39,3.71,8.39,9.31-3.31,9.29-8.39,9.29S2371.38,1857.49,2371.38,1851.92Zm13.24,0c0-3.44-1.54-6.37-4.83-6.37s-4.87,2.93-4.87,6.37,1.55,6.35,4.87,6.35S2384.62,1855.37,2384.62,1851.91Z"/><path d="M2392.07,1842.84h3.42v2.92h.29a5.41,5.41,0,0,1,5.17-3.15c4.35,0,7.56,3.43,7.56,9.27s-3.17,9.31-7.53,9.31a5.48,5.48,0,0,1-5.2-3.15h-.21v9.55h-3.5Zm8.13,15.37c3.13,0,4.77-2.76,4.77-6.37s-1.59-6.26-4.77-6.26-4.7,2.5-4.7,6.26S2397.19,1858.21,2400.2,1858.21Z"/><path d="M2411.62,1852c0-5.53,3.31-9.35,8.33-9.35,4.07,0,8,2.54,8,9v1.25h-12.79c.09,3.47,2.11,5.41,5.11,5.41a4.08,4.08,0,0,0,4.15-2.57l3.31.6c-.8,2.93-3.57,4.87-7.5,4.87C2414.88,1861.21,2411.62,1857.55,2411.62,1852Zm12.86-1.69a4.45,4.45,0,0,0-4.51-4.77,4.84,4.84,0,0,0-4.84,4.77Z"/><path d="M2431.82,1842.84h3.38v2.86h.19a4.69,4.69,0,0,1,4.57-3.13c.45,0,1.14,0,1.49.08V1846a7.69,7.69,0,0,0-1.83-.22,4,4,0,0,0-4.3,4.06v11h-3.5Z"/><path d="M2454,1845.65h-3.69v9.91c0,2,1,2.4,2.16,2.4a6.31,6.31,0,0,0,1.23-.15l.63,2.89a7,7,0,0,1-2.27.38c-2.77.05-5.26-1.53-5.25-4.8v-10.63h-2.64v-2.81h2.64v-4.31h3.5v4.31H2454Z"/><path d="M2457.63,1867.43l.85-2.91c1.93.52,3.18.32,4.06-2l.52-1.41-6.59-18.24h3.75l4.56,14h.19l4.56-14h3.76l-7.5,20.63c-1,2.8-2.91,4.37-5.81,4.37A6.32,6.32,0,0,1,2457.63,1867.43Z"/><path d="M2484.48,1855.76c0-4.09,3.49-5,6.9-5.38,3.24-.38,4.55-.35,4.55-1.63v-.08c0-2-1.16-3.23-3.42-3.23a4.21,4.21,0,0,0-4.19,2.51l-3.29-.75c1.17-3.28,4.17-4.59,7.43-4.59,2.86,0,7,1,7,6.28v11.95H2496v-2.46h-.14a5.62,5.62,0,0,1-5.32,2.86C2487.14,1861.24,2484.48,1859.29,2484.48,1855.76Zm11.46-1.41V1852c-.5.5-3.2.81-4.33,1-2,.27-3.7.94-3.7,2.81s1.43,2.63,3.41,2.63C2494.24,1858.43,2495.94,1856.48,2495.94,1854.35Z"/><path d="M2503.32,1851.88c0-5.84,3.2-9.27,7.55-9.27a5.43,5.43,0,0,1,5.18,3.15h.21v-8.92h3.51v24h-3.43V1858h-.29a5.48,5.48,0,0,1-5.2,3.15C2506.48,1861.19,2503.32,1857.7,2503.32,1851.88Zm13,0c0-3.76-1.64-6.26-4.7-6.26s-4.76,2.69-4.76,6.26,1.63,6.37,4.76,6.37S2516.32,1855.63,2516.32,1851.84Z"/><path d="M2524,1851.88c0-5.84,3.2-9.27,7.55-9.27a5.43,5.43,0,0,1,5.18,3.15h.21v-8.92h3.5v24H2537V1858h-.29a5.48,5.48,0,0,1-5.2,3.15C2527.12,1861.19,2524,1857.7,2524,1851.88Zm13,0c0-3.76-1.64-6.26-4.7-6.26s-4.76,2.69-4.76,6.26,1.63,6.37,4.76,6.37S2537,1855.63,2537,1851.84Z"/><path d="M2545.41,1842.84h3.38v2.86h.19a4.67,4.67,0,0,1,4.57-3.13,4.15,4.15,0,0,1,2.36.66l-1.13,2.93a3.58,3.58,0,0,0-1.63-.35,4,4,0,0,0-4.24,4v11h-3.5Z"/><path d="M2557.09,1852c0-5.53,3.3-9.35,8.32-9.35,4.08,0,8,2.54,8,9v1.25h-12.8c.1,3.47,2.11,5.41,5.11,5.41a4.08,4.08,0,0,0,4.15-2.57l3.32.6c-.8,2.93-3.58,4.87-7.5,4.87C2560.35,1861.21,2557.09,1857.55,2557.09,1852Zm12.86-1.69a4.46,4.46,0,0,0-4.52-4.77,4.84,4.84,0,0,0-4.84,4.77Z"/><path d="M2587.59,1847.8a3.46,3.46,0,0,0-3.59-2.42c-2,0-3.5,1-3.48,2.37,0,1.22.84,1.89,2.82,2.36l2.86.65c3.3.77,4.92,2.34,4.92,4.88,0,3.26-3,5.57-7.36,5.57-4,0-6.69-1.8-7.28-5l3.39-.51c.42,1.77,1.77,2.67,3.87,2.67,2.3,0,3.78-1.09,3.78-2.48,0-1.13-.81-1.9-2.54-2.29l-3.05-.67c-3.37-.75-4.92-2.45-4.92-5,0-3.19,2.88-5.33,6.95-5.33,3.89,0,6.08,1.83,6.81,4.63Z"/><path d="M2605.28,1847.8a3.48,3.48,0,0,0-3.6-2.42c-2,0-3.49,1-3.48,2.37,0,1.22.84,1.89,2.82,2.36l2.86.65c3.31.77,4.92,2.34,4.92,4.88,0,3.26-3,5.57-7.36,5.57-4,0-6.69-1.8-7.27-5l3.38-.51c.43,1.77,1.77,2.67,3.87,2.67,2.3,0,3.79-1.09,3.79-2.48,0-1.13-.81-1.9-2.55-2.29l-3-.67c-3.38-.75-4.93-2.45-4.93-5,0-3.19,2.89-5.33,6.95-5.33,3.89,0,6.09,1.83,6.81,4.63Z"/><circle class="b" cx="2702.73" cy="194.49" r="58.93"/><line class="c" x1="2727.91" y1="139.48" x2="2700.83" y2="195.74"/><path d="M2747.66,120.56h-3.94L2734.34,107h-.16v13.57h-4.56V99h4l9.31,13.56h.19V99h4.54Z"/><rect x="2313.46" y="1693.8" width="20.93" height="8.49"/><rect x="2333.83" y="1702.28" width="104.66" height="8.49"/><rect x="2437.55" y="1693.8" width="104.66" height="8.49"/><rect x="2645.55" y="1693.8" width="104.66" height="8.49"/><rect x="2541.27" y="1701.34" width="104.66" height="8.49"/><rect x="2292.54" y="1702.14" width="20.93" height="8.49"/><rect x="2270.85" y="1693.66" width="20.93" height="8.49"/><rect x="2250.58" y="1701.67" width="20.93" height="8.49"/><rect x="2228.89" y="1693.19" width="20.93" height="8.49"/><path d="M2219.93,1666.36c0-8.09,3.41-12.77,9.11-12.77s9.1,4.69,9.1,12.77-3.36,12.82-9.1,12.82S2219.93,1674.49,2219.93,1666.36Zm14.48,0c0-6.19-2-9.6-5.37-9.6s-5.38,3.41-5.39,9.6,2,9.58,5.39,9.58S2234.41,1672.57,2234.41,1666.36Z"/><path d="M2338.73,1680H2335v-19.78h-.21c-.41.72-2.36,1.84-5.18,1.84V1659a6.25,6.25,0,0,0,5.66-3.82h3.49Z"/><path d="M2426,1678.25l8.41-8.71c2.67-2.83,4-4.41,4-6.6,0-2.48-1.92-4-4.44-4a4.12,4.12,0,0,0-4.39,4.42H2426c0-4.54,3.4-7.55,8-7.55s7.94,3.06,7.94,7c0,2.78-1.3,5-5.85,9.57l-4.94,5.17v.18h11.19V1681H2426Z"/><path d="M2518.35,1675.43h3.81c.14,2.21,2.24,3.59,4.93,3.59,2.93,0,5-1.64,5-4s-2-4.25-5.44-4.25h-2.1v-3h2.1c2.76,0,4.69-1.58,4.67-4s-1.65-3.83-4.18-3.83-4.59,1.38-4.67,3.66h-3.63c.12-4,3.79-6.8,8.35-6.8,4.78,0,7.77,3.12,7.76,6.77a5.44,5.44,0,0,1-4.27,5.5v.19a5.67,5.67,0,0,1,5.19,5.91c0,4.13-3.71,7.16-8.78,7.16S2518.51,1679.48,2518.35,1675.43Z"/><path d="M2629.37,1673.55l10.73-17h4.63v16.82H2648v3.17h-3.28v4.86h-3.58v-4.86h-11.78Zm11.8-12.49H2641l-7.68,12.15v.2h7.87Z"/><path d="M2741,1675h3.64a4.25,4.25,0,0,0,4.5,3.66,4.88,4.88,0,0,0,4.93-5.14,5,5,0,0,0-5.09-5.27,6.66,6.66,0,0,0-4.11,1.41l-3.43-.51,1.39-12.52h13.66v3.22H2745.9l-.79,7h.15a6.67,6.67,0,0,1,4.52-1.65c4.53,0,7.88,3.49,7.86,8.3a8.15,8.15,0,0,1-8.55,8.37C2744.53,1681.78,2741.1,1678.91,2741,1675Z"/><line class="d" x1="421.88" y1="1621.1" x2="487.13" y2="1621.1"/><line class="d" x1="566.08" y1="1621.1" x2="864" y2="1621.1"/><line class="d" x1="487.13" y1="1621.1" x2="566.08" y2="1621.1"/><line class="d" x1="421.88" y1="512.66" x2="421.88" y2="222.75"/><line class="d" x1="864" y1="512.66" x2="864" y2="222.75"/><line class="d" x1="421.88" y1="222.75" x2="864" y2="222.75"/><line class="d" x1="816.63" y1="1081.09" x2="816.63" y2="1128.46"/><line class="d" x1="864" y1="1128.46" x2="816.63" y2="1128.46"/><line class="d" x1="421.88" y1="1081.09" x2="816.63" y2="1081.09"/><line class="d" x1="816.63" y1="1081.09" x2="816.63" y2="1033.72"/><line class="d" x1="864" y1="1033.72" x2="816.63" y2="1033.72"/><line class="d" x1="584.83" y1="912.91" x2="584.83" y2="794.16"/><line class="d" x1="506.24" y1="794.16" x2="506.24" y2="912.91"/><line class="d" x1="584.83" y1="794.16" x2="506.24" y2="794.16"/><line class="d" x1="506.24" y1="912.91" x2="584.83" y2="912.91"/><line class="d" x1="579.58" y1="908.54" x2="579.58" y2="798.53"/><line class="d" x1="511.49" y1="908.54" x2="579.58" y2="908.54"/><line class="d" x1="511.49" y1="798.53" x2="511.49" y2="908.54"/><line class="d" x1="579.58" y1="798.53" x2="511.49" y2="798.53"/><line class="d" x1="421.88" y1="692.67" x2="421.88" y2="512.66"/><line class="d" x1="851.37" y1="692.67" x2="851.37" y2="525.29"/><line class="d" x1="434.52" y1="525.29" x2="434.52" y2="692.67"/><line class="d" x1="851.37" y1="525.29" x2="434.52" y2="525.29"/><line class="d" x1="804.99" y1="655.56" x2="757.62" y2="655.56"/><line class="d" x1="804.99" y1="562.5" x2="804.99" y2="655.56"/><line class="d" x1="757.62" y1="562.5" x2="804.99" y2="562.5"/><line class="d" x1="757.62" y1="655.56" x2="757.62" y2="562.5"/><line class="d" x1="801.83" y1="652.41" x2="801.83" y2="565.65"/><line class="d" x1="801.83" y1="565.65" x2="760.78" y2="565.65"/><line class="d" x1="760.78" y1="565.65" x2="760.78" y2="652.41"/><line class="d" x1="760.78" y1="652.41" x2="801.83" y2="652.41"/><line class="d" x1="864" y1="1621.1" x2="864" y2="1469.51"/><line class="d" x1="421.88" y1="1469.51" x2="421.88" y2="1621.1"/><line class="d" x1="848.21" y1="1469.51" x2="864" y2="1469.51"/><line class="d" x1="851.37" y1="692.67" x2="864" y2="692.67"/><line class="d" x1="864" y1="692.67" x2="864" y2="512.66"/><line class="d" x1="421.88" y1="1469.51" x2="437.67" y2="1469.51"/><line class="d" x1="421.88" y1="692.67" x2="434.52" y2="692.67"/><line class="e" x1="421.88" y1="692.67" x2="864" y2="692.67"/><line class="d" x1="437.67" y1="1469.51" x2="566.08" y2="1469.51"/><line class="e" x1="421.88" y1="1469.51" x2="864" y2="1469.51"/><line class="e" x1="864" y1="1128.46" x2="864" y2="1469.51"/><line class="e" x1="421.88" y1="1469.51" x2="421.88" y2="1081.09"/><line class="e" x1="421.88" y1="1081.09" x2="421.88" y2="692.67"/><line class="e" x1="864" y1="1033.72" x2="864" y2="1128.46"/><line class="e" x1="864" y1="1033.72" x2="864" y2="692.67"/><line class="d" x1="421.88" y1="512.66" x2="864" y2="512.66"/><line class="d" x1="864" y1="222.75" x2="421.88" y2="222.75"/><path d="M2227.93,1363.07l13,31.61h.51l13-31.61H2264v43.62h-7.58v-30H2256L2244,1406.57h-5.67l-12.06-29.91h-.4v30h-7.59v-43.62Z"/><path d="M2271.57,1397.51c0-7.37,6.07-9.26,12.41-10,5.78-.61,8.1-.72,8.1-2.94v-.12c0-3.22-2-5-5.54-5-3.77,0-5.94,1.92-6.71,4.15l-7.2-1c1.7-6,7-9,13.87-9,6.24,0,13.29,2.6,13.29,11.25v21.89h-7.41v-4.49h-.26c-1.4,2.75-4.47,5.15-9.61,5.15C2276.27,1407.35,2271.57,1404,2271.57,1397.51Zm20.53-2.55v-3.86c-1,.81-5,1.32-7.07,1.6-3.45.49-6,1.72-6,4.68s2.3,4.31,5.52,4.31C2289.16,1401.69,2292.1,1398.6,2292.1,1395Z"/><path d="M2323.91,1379.94h-6.45v16.91c0,3.11,1.55,3.79,3.49,3.79a10.12,10.12,0,0,0,2.26-.29l1.3,6a15.21,15.21,0,0,1-4.54.77c-5.79.17-10.27-2.85-10.22-9v-18.19h-4.65v-6h4.65v-7.83h7.71V1374h6.45Z"/><path d="M2328.63,1390.53c0-10.1,6.11-17,15.48-17,8,0,15,5,15,16.53v2.36h-22.8c.07,5.6,3.37,8.89,8.35,8.89,3.33,0,5.88-1.45,6.93-4.22l7.2.81c-1.37,5.68-6.61,9.41-14.23,9.41C2334.65,1407.33,2328.63,1400.79,2328.63,1390.53Zm23-3.28c0-4.46-3-7.69-7.45-7.69a7.87,7.87,0,0,0-7.93,7.69Z"/><path d="M2365.59,1374h7.48v5.46h.34a8.16,8.16,0,0,1,8.07-5.92,18.25,18.25,0,0,1,2.77.21v7.09a15,15,0,0,0-3.58-.44c-4.24,0-7.37,2.93-7.37,7.09v19.23h-7.71Z"/><path d="M2388.8,1365.16a4.47,4.47,0,1,1,4.47,4.17A4.33,4.33,0,0,1,2388.8,1365.16Zm.59,8.81h7.71v32.72h-7.71Z"/><path d="M2403.5,1397.51c0-7.37,6.07-9.26,12.42-10,5.77-.61,8.09-.72,8.09-2.94v-.12c0-3.22-2-5-5.54-5-3.77,0-5.94,1.92-6.71,4.15l-7.2-1c1.71-6,7-9,13.87-9,6.24,0,13.29,2.6,13.29,11.25v21.89h-7.41v-4.49h-.26c-1.4,2.75-4.47,5.15-9.6,5.15C2408.2,1407.35,2403.5,1404,2403.5,1397.51ZM2424,1395v-3.86c-1,.81-5.05,1.32-7.07,1.6-3.45.49-6,1.72-6,4.68s2.3,4.31,5.52,4.31C2421.09,1401.69,2424,1398.6,2424,1395Z"/><path d="M2447.22,1406.69h-7.72v-43.62h7.72Z"/><path d="M2474,1383.39c-.59-2.15-2.47-4.09-6-4.09-3.22,0-5.67,1.53-5.65,3.75,0,1.89,1.3,3,4.62,3.79l5.58,1.19c6.18,1.35,9.19,4.2,9.21,8.86,0,6.2-5.8,10.44-14,10.44s-13.08-3.55-14-9.56l7.51-.73c.67,2.94,3,4.48,6.5,4.48s6.09-1.69,6.09-3.92c0-1.86-1.4-3.07-4.41-3.73l-5.58-1.17c-6.28-1.3-9.22-4.45-9.2-9.23,0-6,5.35-9.92,13.23-9.92,7.67,0,12.1,3.53,13.16,9.07Z"/><rect class="b" x="2215" y="1462" width="196" height="17"/><rect class="b" x="2215" y="1497" width="196" height="17"/></svg>